<svg width="60" height="60" viewBox="0 0 60 60" fill="none" xmlns="http://www.w3.org/2000/svg">
<g clip-path="url(#clip0_185_318)">
<path d="M30 21.5908C28.625 21.5908 27.5 22.7158 27.5 24.0908V31.5908H20C18.625 31.5908 17.5 32.7158 17.5 34.0908C17.5 35.4658 18.625 36.5908 20 36.5908H27.5V44.0908C27.5 45.4658 28.625 46.5908 30 46.5908C31.375 46.5908 32.5 45.4658 32.5 44.0908V36.5908H40C41.375 36.5908 42.5 35.4658 42.5 34.0908C42.5 32.7158 41.375 31.5908 40 31.5908H32.5V24.0908C32.5 22.7158 31.375 21.5908 30 21.5908ZM30 9.09082C16.2 9.09082 5 20.2908 5 34.0908C5 47.8908 16.2 59.0908 30 59.0908C43.8 59.0908 55 47.8908 55 34.0908C55 20.2908 43.8 9.09082 30 9.09082ZM30 54.0908C18.975 54.0908 10 45.1158 10 34.0908C10 23.0658 18.975 14.0908 30 14.0908C41.025 14.0908 50 23.0658 50 34.0908C50 45.1158 41.025 54.0908 30 54.0908Z" fill="#323232"/>
</g>
<defs>
<clipPath id="clip0_185_318">
<rect width="60" height="60" fill="white"/>
</clipPath>
</defs>
</svg>
