<svg width="134" height="92" viewBox="0 0 134 92" fill="none" xmlns="http://www.w3.org/2000/svg">
<g clip-path="url(#clip0_69_946)">
<path fill-rule="evenodd" clip-rule="evenodd" d="M66.9591 4.71425C65.6453 4.69052 64.3397 4.92611 63.117 5.40754C61.8944 5.88897 60.7786 6.60679 59.8337 7.51991C58.8888 8.43303 58.1332 9.52353 57.6102 10.729C57.0871 11.9345 56.807 13.2312 56.7857 14.5451V28.2857C56.7857 29.1192 56.4546 29.9186 55.8652 30.508C55.2758 31.0974 54.4764 31.4285 53.6429 31.4285H49.7143C48.464 31.4285 47.2649 30.9319 46.3808 30.0478C45.4967 29.1636 45 27.9646 45 26.7142V20.4285C45 19.1782 45.4967 17.9791 46.3808 17.095C47.2649 16.2109 48.464 15.7142 49.7143 15.7142H52.0714V14.4885C52.1001 12.5569 52.509 10.6499 53.2748 8.87629C54.0406 7.10272 55.1483 5.49738 56.5346 4.15195C57.9208 2.80652 59.5586 1.74736 61.3543 1.03495C63.15 0.322545 65.0684 -0.0291469 67 -3.91412e-05C68.9316 -0.0291469 70.85 0.322545 72.6457 1.03495C74.4414 1.74736 76.0792 2.80652 77.4654 4.15195C78.8517 5.49738 79.9594 7.10272 80.7252 8.87629C81.491 10.6499 81.8999 12.5569 81.9286 14.4885V15.7142H84.2857C85.536 15.7142 86.7351 16.2109 87.6192 17.095C88.5033 17.9791 89 19.1782 89 20.4285V26.7142C89 27.9646 88.5033 29.1636 87.6192 30.0478C86.7351 30.9319 85.536 31.4285 84.2857 31.4285H81.9286V33C81.929 35.1238 81.1474 37.1734 79.733 38.7577C78.3185 40.3419 76.3703 41.35 74.26 41.5894C73.8502 42.3211 73.2526 42.9302 72.5289 43.3539C71.8052 43.7777 70.9815 44.0007 70.1429 44H65.4286C64.1783 44 62.9792 43.5033 62.0951 42.6192C61.211 41.7351 60.7143 40.536 60.7143 39.2857C60.7143 38.0354 61.211 36.8363 62.0951 35.9522C62.9792 35.0681 64.1783 34.5714 65.4286 34.5714H70.1429C71.8463 34.5714 73.3391 35.4734 74.1657 36.828C75.032 36.6289 75.8051 36.1419 76.3588 35.4466C76.9125 34.7513 77.2141 33.8888 77.2143 33V14.542C77.1927 13.2213 76.9096 11.9181 76.3813 10.7075C75.853 9.49698 75.09 8.40316 74.1364 7.48929C73.1828 6.57542 72.0575 5.85964 70.8255 5.38332C69.5936 4.907 68.2795 4.6796 66.9591 4.71425Z" fill="black"/>
</g>
<path d="M9.82666 70.0464C9.10238 70.0464 8.45947 70.1888 7.89795 70.4736C7.34456 70.7503 6.87663 71.1532 6.49414 71.6821C6.11979 72.2111 5.83496 72.8499 5.63965 73.5986C5.44434 74.3473 5.34668 75.1896 5.34668 76.1255C5.34668 77.3869 5.5013 78.4652 5.81055 79.3604C6.12793 80.2474 6.61621 80.9269 7.27539 81.3989C7.93457 81.8628 8.78499 82.0947 9.82666 82.0947C10.5509 82.0947 11.2752 82.0133 11.9995 81.8506C12.7319 81.6878 13.5254 81.4559 14.3799 81.1548V84.3286C13.5905 84.6541 12.8133 84.8861 12.0483 85.0244C11.2834 85.1709 10.4248 85.2441 9.47266 85.2441C7.63346 85.2441 6.11979 84.8657 4.93164 84.1089C3.75163 83.3439 2.87679 82.2778 2.30713 80.9106C1.73747 79.5353 1.45264 77.9321 1.45264 76.1011C1.45264 74.7502 1.63574 73.5132 2.00195 72.3901C2.36816 71.2671 2.90527 70.2946 3.61328 69.4727C4.32129 68.6507 5.19613 68.016 6.23779 67.5684C7.27946 67.1208 8.47575 66.897 9.82666 66.897C10.7137 66.897 11.6007 67.0109 12.4878 67.2388C13.383 67.4585 14.2375 67.7637 15.0513 68.1543L13.8306 71.2305C13.1632 70.9131 12.4919 70.6364 11.8164 70.4004C11.141 70.1644 10.4777 70.0464 9.82666 70.0464ZM23.4863 71.0718C25.3174 71.0718 26.7212 71.4705 27.6978 72.2681C28.6743 73.0656 29.1626 74.2782 29.1626 75.9058V85H26.5625L25.8423 83.1445H25.7446C25.354 83.6328 24.9552 84.0316 24.5483 84.3408C24.1414 84.6501 23.6735 84.8779 23.1445 85.0244C22.6156 85.1709 21.9727 85.2441 21.2158 85.2441C20.4102 85.2441 19.6859 85.0895 19.043 84.7803C18.4082 84.471 17.9077 83.999 17.5415 83.3643C17.1753 82.7214 16.9922 81.9076 16.9922 80.9229C16.9922 79.4743 17.5008 78.4082 18.5181 77.7246C19.5353 77.0329 21.0612 76.6504 23.0957 76.5771L25.4639 76.5039V75.9058C25.4639 75.1896 25.2767 74.6647 24.9023 74.3311C24.528 73.9974 24.0072 73.8306 23.3398 73.8306C22.6807 73.8306 22.0337 73.9242 21.3989 74.1113C20.7642 74.2985 20.1294 74.5345 19.4946 74.8193L18.2617 72.3047C18.986 71.9222 19.7957 71.6211 20.6909 71.4014C21.5942 71.1816 22.526 71.0718 23.4863 71.0718ZM25.4639 78.6768L24.0234 78.7256C22.819 78.7581 21.9808 78.9738 21.5088 79.3726C21.0449 79.7713 20.813 80.2962 20.813 80.9473C20.813 81.5169 20.9798 81.9238 21.3135 82.168C21.6471 82.404 22.0825 82.522 22.6196 82.522C23.4172 82.522 24.0885 82.286 24.6338 81.814C25.1872 81.342 25.4639 80.6706 25.4639 79.7998V78.6768ZM36.731 85H33.0078V66.0059H36.731V85ZM44.3726 85H40.6494V66.0059H44.3726V85ZM60.3271 85.2441C58.9762 85.2441 57.8247 85 56.8726 84.5117C55.9204 84.0153 55.1961 83.2503 54.6997 82.2168C54.2033 81.1833 53.9551 79.8608 53.9551 78.2495C53.9551 76.5812 54.2358 75.2222 54.7974 74.1724C55.367 73.1144 56.1523 72.3372 57.1533 71.8408C58.1624 71.3444 59.3302 71.0962 60.6567 71.0962C61.6007 71.0962 62.4146 71.1898 63.0981 71.377C63.7899 71.556 64.3921 71.7716 64.9048 72.0239L63.8062 74.9048C63.2202 74.6688 62.675 74.4775 62.1704 74.3311C61.6659 74.1764 61.1613 74.0991 60.6567 74.0991C60.0057 74.0991 59.4645 74.2537 59.0332 74.563C58.6019 74.8641 58.2804 75.3198 58.0688 75.9302C57.8573 76.5405 57.7515 77.3055 57.7515 78.2251C57.7515 79.1284 57.8654 79.8771 58.0933 80.4712C58.3211 81.0653 58.6507 81.5088 59.082 81.8018C59.5133 82.0866 60.0382 82.229 60.6567 82.229C61.4299 82.229 62.1175 82.1273 62.7197 81.9238C63.3219 81.7122 63.9079 81.4193 64.4775 81.0449V84.231C63.9079 84.589 63.3097 84.8454 62.6831 85C62.0646 85.1628 61.2793 85.2441 60.3271 85.2441ZM73.2788 71.0962C74.5402 71.0962 75.6266 71.3403 76.5381 71.8286C77.4495 72.3088 78.1535 73.0086 78.6499 73.9282C79.1463 74.8478 79.3945 75.9709 79.3945 77.2974V79.104H70.5933C70.634 80.1538 70.9473 80.9798 71.5332 81.582C72.1273 82.1761 72.9492 82.4731 73.999 82.4731C74.8698 82.4731 75.6673 82.3836 76.3916 82.2046C77.1159 82.0256 77.8605 81.757 78.6255 81.3989V84.2798C77.95 84.6134 77.242 84.8576 76.5015 85.0122C75.769 85.1668 74.8779 85.2441 73.8281 85.2441C72.4609 85.2441 71.2484 84.9919 70.1904 84.4873C69.1406 83.9827 68.3146 83.2137 67.7124 82.1802C67.1183 81.1466 66.8213 79.8446 66.8213 78.2739C66.8213 76.6789 67.0898 75.3524 67.627 74.2944C68.1722 73.2284 68.929 72.4308 69.8975 71.9019C70.8659 71.3647 71.993 71.0962 73.2788 71.0962ZM73.3032 73.7451C72.5789 73.7451 71.9767 73.9771 71.4966 74.4409C71.0246 74.9048 70.752 75.6331 70.6787 76.626H75.9033C75.8952 76.0726 75.7935 75.5802 75.5981 75.1489C75.411 74.7176 75.1261 74.3758 74.7437 74.1235C74.3693 73.8713 73.8892 73.7451 73.3032 73.7451ZM90.1733 71.0962C91.63 71.0962 92.8019 71.495 93.689 72.2925C94.576 73.0819 95.0195 74.3514 95.0195 76.1011V85H91.2964V77.0288C91.2964 76.0522 91.1174 75.3158 90.7593 74.8193C90.4093 74.3229 89.856 74.0747 89.0991 74.0747C87.9598 74.0747 87.1826 74.4613 86.7676 75.2344C86.3525 76.0075 86.145 77.1224 86.145 78.5791V85H82.4219V71.3525H85.2661L85.7666 73.0981H85.9741C86.2671 72.6261 86.6292 72.2437 87.0605 71.9507C87.5 71.6577 87.9842 71.4421 88.5132 71.3037C89.0503 71.1654 89.6037 71.0962 90.1733 71.0962ZM104.602 82.2778C105.009 82.2778 105.404 82.2371 105.786 82.1558C106.177 82.0744 106.563 81.9727 106.946 81.8506V84.6216C106.547 84.8006 106.051 84.9471 105.457 85.061C104.871 85.1831 104.228 85.2441 103.528 85.2441C102.714 85.2441 101.982 85.1139 101.331 84.8535C100.688 84.585 100.179 84.1252 99.8047 83.4741C99.4385 82.8149 99.2554 81.8994 99.2554 80.7275V74.1479H97.4731V72.5732L99.5239 71.3281L100.598 68.4473H102.979V71.3525H106.799V74.1479H102.979V80.7275C102.979 81.2484 103.125 81.639 103.418 81.8994C103.719 82.1517 104.114 82.2778 104.602 82.2778ZM115.344 71.0962C116.606 71.0962 117.692 71.3403 118.604 71.8286C119.515 72.3088 120.219 73.0086 120.715 73.9282C121.212 74.8478 121.46 75.9709 121.46 77.2974V79.104H112.659C112.699 80.1538 113.013 80.9798 113.599 81.582C114.193 82.1761 115.015 82.4731 116.064 82.4731C116.935 82.4731 117.733 82.3836 118.457 82.2046C119.181 82.0256 119.926 81.757 120.691 81.3989V84.2798C120.015 84.6134 119.307 84.8576 118.567 85.0122C117.834 85.1668 116.943 85.2441 115.894 85.2441C114.526 85.2441 113.314 84.9919 112.256 84.4873C111.206 83.9827 110.38 83.2137 109.778 82.1802C109.184 81.1466 108.887 79.8446 108.887 78.2739C108.887 76.6789 109.155 75.3524 109.692 74.2944C110.238 73.2284 110.994 72.4308 111.963 71.9019C112.931 71.3647 114.058 71.0962 115.344 71.0962ZM115.369 73.7451C114.644 73.7451 114.042 73.9771 113.562 74.4409C113.09 74.9048 112.817 75.6331 112.744 76.626H117.969C117.961 76.0726 117.859 75.5802 117.664 75.1489C117.476 74.7176 117.192 74.3758 116.809 74.1235C116.435 73.8713 115.955 73.7451 115.369 73.7451ZM132.104 71.0962C132.292 71.0962 132.507 71.1084 132.751 71.1328C133.004 71.1491 133.207 71.1735 133.362 71.2061L133.081 74.6973C132.959 74.6566 132.784 74.6281 132.556 74.6118C132.336 74.5874 132.145 74.5752 131.982 74.5752C131.502 74.5752 131.034 74.6362 130.579 74.7583C130.131 74.8804 129.728 75.0798 129.37 75.3564C129.012 75.625 128.727 75.9831 128.516 76.4307C128.312 76.8701 128.21 77.4113 128.21 78.0542V85H124.487V71.3525H127.307L127.856 73.6475H128.04C128.308 73.1836 128.642 72.7604 129.041 72.3779C129.447 71.9873 129.907 71.6781 130.42 71.4502C130.941 71.2142 131.502 71.0962 132.104 71.0962Z" fill="black"/>
<defs>
<clipPath id="clip0_69_946">
<rect width="44" height="44" fill="white" transform="translate(45)"/>
</clipPath>
</defs>
</svg>
