<svg width="76" height="52" viewBox="0 0 76 52" fill="none" xmlns="http://www.w3.org/2000/svg">
  <g clip-path="url(#clip0_218_164)">
    <path fill-rule="evenodd" clip-rule="evenodd"
      d="M37.6645 2.65181C36.9255 2.63846 36.1911 2.77098 35.5033 3.04179C34.8156 3.31259 34.188 3.71636 33.6565 4.22999C33.1249 4.74362 32.6999 5.35703 32.4057 6.0351C32.1115 6.71318 31.9539 7.44262 31.942 8.18167V15.9107C31.942 16.3796 31.7557 16.8293 31.4242 17.1608C31.0926 17.4923 30.643 17.6786 30.1741 17.6786H27.9643C27.261 17.6786 26.5865 17.3992 26.0892 16.9019C25.5919 16.4046 25.3125 15.7301 25.3125 15.0268V11.4911C25.3125 10.7878 25.5919 10.1133 26.0892 9.616C26.5865 9.11869 27.261 8.83931 27.9643 8.83931H29.2902V8.14984C29.3063 7.06331 29.5363 5.99059 29.9671 4.99296C30.3978 3.99533 31.0209 3.09232 31.8007 2.33552C32.5805 1.57871 33.5017 0.982933 34.5118 0.582205C35.5219 0.181477 36.601 -0.0163494 37.6875 2.37595e-05C38.774 -0.0163494 39.8531 0.181477 40.8632 0.582205C41.8733 0.982933 42.7945 1.57871 43.5743 2.33552C44.3541 3.09232 44.9772 3.99533 45.4079 4.99296C45.8387 5.99059 46.0687 7.06331 46.0848 8.14984V8.83931H47.4107C48.114 8.83931 48.7885 9.11869 49.2858 9.616C49.7831 10.1133 50.0625 10.7878 50.0625 11.4911V15.0268C50.0625 15.7301 49.7831 16.4046 49.2858 16.9019C48.7885 17.3992 48.114 17.6786 47.4107 17.6786H46.0848V18.5625C46.0851 19.7572 45.6454 20.9101 44.8498 21.8012C44.0542 22.6924 42.9583 23.2594 41.7713 23.3941C41.5407 23.8057 41.2046 24.1483 40.7975 24.3866C40.3904 24.625 39.9271 24.7504 39.4554 24.75H36.8036C36.1003 24.75 35.4258 24.4706 34.9285 23.9733C34.4312 23.476 34.1518 22.8015 34.1518 22.0982C34.1518 21.3949 34.4312 20.7204 34.9285 20.2231C35.4258 19.7258 36.1003 19.4465 36.8036 19.4465H39.4554C40.4135 19.4465 41.2533 19.9538 41.7182 20.7158C42.2055 20.6038 42.6404 20.3299 42.9518 19.9388C43.2633 19.5477 43.4329 19.0625 43.433 18.5625V8.1799C43.4209 7.43704 43.2617 6.70396 42.9645 6.02303C42.6673 5.3421 42.2381 4.72682 41.7017 4.21277C41.1653 3.69872 40.5323 3.29609 39.8394 3.02816C39.1464 2.76024 38.4072 2.63232 37.6645 2.65181Z"
      fill="#0345B0" />
  </g>
  <path
    d="M5.5275 39.2136C5.12009 39.2136 4.75845 39.2937 4.4426 39.4539C4.13132 39.6096 3.8681 39.8362 3.65295 40.1337C3.44238 40.4312 3.28217 40.7906 3.1723 41.2117C3.06244 41.6329 3.00751 42.1067 3.00751 42.6331C3.00751 43.3426 3.09448 43.9492 3.26843 44.4527C3.44696 44.9517 3.72162 45.3339 4.09241 45.5994C4.4632 45.8603 4.94156 45.9908 5.5275 45.9908C5.93491 45.9908 6.34232 45.945 6.74973 45.8535C7.16171 45.7619 7.60803 45.6314 8.08868 45.4621V47.2473C7.64465 47.4305 7.20749 47.5609 6.77719 47.6387C6.34689 47.7211 5.86395 47.7623 5.32837 47.7623C4.29382 47.7623 3.44238 47.5495 2.77405 47.1237C2.11029 46.6935 1.61819 46.0938 1.29776 45.3247C0.977325 44.5511 0.817108 43.6493 0.817108 42.6194C0.817108 41.8595 0.920105 41.1637 1.1261 40.532C1.33209 39.9002 1.63422 39.3532 2.03247 38.8909C2.43073 38.4285 2.92282 38.0715 3.50876 37.8197C4.0947 37.5679 4.76761 37.442 5.5275 37.442C6.02646 37.442 6.52542 37.5061 7.02438 37.6343C7.52792 37.7579 8.00858 37.9296 8.46634 38.1493L7.77969 39.8796C7.40433 39.7011 7.02667 39.5455 6.64673 39.4127C6.26678 39.28 5.89371 39.2136 5.5275 39.2136ZM13.2111 39.7904C14.241 39.7904 15.0307 40.0147 15.58 40.4633C16.1293 40.9119 16.404 41.594 16.404 42.5095V47.625H14.9414L14.5363 46.5813H14.4814C14.2616 46.856 14.0373 47.0803 13.8084 47.2542C13.5796 47.4282 13.3163 47.5563 13.0188 47.6387C12.7213 47.7211 12.3596 47.7623 11.9339 47.7623C11.4807 47.7623 11.0733 47.6754 10.7117 47.5014C10.3546 47.3275 10.0731 47.062 9.8671 46.7049C9.6611 46.3433 9.55811 45.8855 9.55811 45.3316C9.55811 44.5168 9.84421 43.9171 10.4164 43.5326C10.9886 43.1435 11.8469 42.9283 12.9913 42.8871L14.3234 42.8459V42.5095C14.3234 42.1067 14.2181 41.8114 14.0076 41.6237C13.797 41.436 13.504 41.3422 13.1287 41.3422C12.7579 41.3422 12.394 41.3948 12.0369 41.5001C11.6798 41.6054 11.3228 41.7382 10.9657 41.8984L10.2722 40.4839C10.6796 40.2687 11.1351 40.0994 11.6386 39.9758C12.1468 39.8522 12.6709 39.7904 13.2111 39.7904ZM14.3234 44.0682L13.5132 44.0956C12.8357 44.114 12.3642 44.2353 12.0987 44.4596C11.8378 44.6839 11.7073 44.9791 11.7073 45.3453C11.7073 45.6658 11.8011 45.8947 11.9888 46.032C12.1765 46.1647 12.4214 46.2311 12.7235 46.2311C13.1721 46.2311 13.5498 46.0984 13.8565 45.8329C14.1678 45.5674 14.3234 45.1897 14.3234 44.6999V44.0682ZM20.6612 47.625H18.5669V36.9408H20.6612V47.625ZM24.9596 47.625H22.8653V36.9408H24.9596V47.625ZM33.934 47.7623C33.1741 47.7623 32.5264 47.625 31.9908 47.3503C31.4552 47.0711 31.0478 46.6408 30.7686 46.0594C30.4893 45.4781 30.3497 44.7342 30.3497 43.8279C30.3497 42.8894 30.5077 42.125 30.8235 41.5345C31.144 40.9394 31.5857 40.5022 32.1487 40.223C32.7164 39.9437 33.3733 39.8041 34.1194 39.8041C34.6504 39.8041 35.1082 39.8568 35.4927 39.962C35.8818 40.0627 36.2206 40.1841 36.5089 40.326L35.891 41.9464C35.5614 41.8137 35.2547 41.7061 34.9709 41.6237C34.687 41.5367 34.4032 41.4933 34.1194 41.4933C33.7532 41.4933 33.4488 41.5802 33.2062 41.7542C32.9636 41.9236 32.7827 42.1799 32.6637 42.5232C32.5447 42.8665 32.4852 43.2968 32.4852 43.8141C32.4852 44.3222 32.5493 44.7434 32.6775 45.0775C32.8056 45.4117 32.991 45.6612 33.2336 45.826C33.4763 45.9862 33.7715 46.0663 34.1194 46.0663C34.5543 46.0663 34.9411 46.0091 35.2798 45.8947C35.6186 45.7756 35.9482 45.6108 36.2686 45.4003V47.1924C35.9482 47.3938 35.6117 47.538 35.2592 47.625C34.9113 47.7166 34.4696 47.7623 33.934 47.7623ZM41.2193 39.8041C41.9289 39.8041 42.54 39.9414 43.0527 40.2161C43.5654 40.4862 43.9613 40.8799 44.2406 41.3971C44.5198 41.9144 44.6594 42.5461 44.6594 43.2923V44.3085H39.7087C39.7316 44.899 39.9078 45.3636 40.2374 45.7024C40.5716 46.0366 41.0339 46.2036 41.6245 46.2036C42.1143 46.2036 42.5629 46.1533 42.9703 46.0526C43.3777 45.9519 43.7965 45.8008 44.2268 45.5994V47.2199C43.8469 47.4076 43.4486 47.5449 43.0321 47.6319C42.6201 47.7188 42.1188 47.7623 41.5283 47.7623C40.7593 47.7623 40.0772 47.6204 39.4821 47.3366C38.8916 47.0528 38.427 46.6202 38.0882 46.0388C37.7541 45.4575 37.587 44.7251 37.587 43.8416C37.587 42.9444 37.738 42.1982 38.0402 41.6031C38.3469 41.0034 38.7726 40.5548 39.3173 40.2573C39.8621 39.9552 40.4961 39.8041 41.2193 39.8041ZM41.2331 41.2941C40.8257 41.2941 40.4869 41.4246 40.2168 41.6855C39.9513 41.9464 39.798 42.3561 39.7568 42.9146H42.6956C42.691 42.6033 42.6338 42.3264 42.524 42.0838C42.4187 41.8412 42.2585 41.6489 42.0433 41.507C41.8327 41.3651 41.5627 41.2941 41.2331 41.2941ZM50.7225 39.8041C51.5419 39.8041 52.2011 40.0284 52.7 40.477C53.199 40.9211 53.4485 41.6352 53.4485 42.6194V47.625H51.3542V43.1412C51.3542 42.5919 51.2535 42.1776 51.0521 41.8984C50.8553 41.6191 50.544 41.4795 50.1183 41.4795C49.4774 41.4795 49.0402 41.697 48.8068 42.1318C48.5733 42.5667 48.4566 43.1938 48.4566 44.0132V47.625H46.3623V39.9483H47.9622L48.2437 40.9302H48.3604C48.5252 40.6647 48.7289 40.4496 48.9716 40.2848C49.2188 40.12 49.4911 39.9987 49.7887 39.9208C50.0908 39.843 50.4021 39.8041 50.7225 39.8041ZM58.8387 46.0938C59.0675 46.0938 59.2896 46.0709 59.5047 46.0251C59.7244 45.9793 59.9419 45.9221 60.157 45.8535V47.4121C59.9327 47.5128 59.6535 47.5952 59.3193 47.6593C58.9897 47.728 58.6281 47.7623 58.2344 47.7623C57.7766 47.7623 57.3647 47.6891 56.9984 47.5426C56.6368 47.3915 56.3507 47.1329 56.1401 46.7667C55.9341 46.3959 55.8311 45.8809 55.8311 45.2217V41.5207H54.8286V40.6349L55.9822 39.9346L56.5865 38.3141H57.9254V39.9483H60.0746V41.5207H57.9254V45.2217C57.9254 45.5147 58.0078 45.7344 58.1726 45.8809C58.342 46.0228 58.564 46.0938 58.8387 46.0938ZM64.8811 39.8041C65.5907 39.8041 66.2018 39.9414 66.7145 40.2161C67.2272 40.4862 67.6231 40.8799 67.9024 41.3971C68.1816 41.9144 68.3212 42.5461 68.3212 43.2923V44.3085H63.3705C63.3934 44.899 63.5696 45.3636 63.8992 45.7024C64.2334 46.0366 64.6957 46.2036 65.2863 46.2036C65.7761 46.2036 66.2247 46.1533 66.6321 46.0526C67.0395 45.9519 67.4583 45.8008 67.8886 45.5994V47.2199C67.5087 47.4076 67.1104 47.5449 66.6939 47.6319C66.2819 47.7188 65.7806 47.7623 65.1901 47.7623C64.4211 47.7623 63.739 47.6204 63.1439 47.3366C62.5534 47.0528 62.0888 46.6202 61.75 46.0388C61.4159 45.4575 61.2488 44.7251 61.2488 43.8416C61.2488 42.9444 61.3998 42.1982 61.702 41.6031C62.0087 41.0034 62.4344 40.5548 62.9791 40.2573C63.5239 39.9552 64.1579 39.8041 64.8811 39.8041ZM64.8949 41.2941C64.4875 41.2941 64.1487 41.4246 63.8786 41.6855C63.6131 41.9464 63.4598 42.3561 63.4186 42.9146H66.3574C66.3528 42.6033 66.2956 42.3264 66.1858 42.0838C66.0805 41.8412 65.9203 41.6489 65.7051 41.507C65.4945 41.3651 65.2245 41.2941 64.8949 41.2941ZM74.3088 39.8041C74.4141 39.8041 74.5354 39.811 74.6727 39.8247C74.8146 39.8339 74.929 39.8476 75.016 39.8659L74.8581 41.8297C74.7894 41.8068 74.691 41.7908 74.5628 41.7816C74.4392 41.7679 74.3317 41.761 74.2401 41.761C73.97 41.761 73.7068 41.7954 73.4505 41.864C73.1987 41.9327 72.9721 42.0449 72.7707 42.2005C72.5693 42.3516 72.4091 42.553 72.29 42.8047C72.1756 43.0519 72.1184 43.3564 72.1184 43.718V47.625H70.0241V39.9483H71.6103L71.9193 41.2392H72.0222C72.1733 40.9783 72.361 40.7402 72.5853 40.5251C72.8142 40.3054 73.0728 40.1314 73.3612 40.0032C73.6542 39.8705 73.97 39.8041 74.3088 39.8041Z"
    fill="black" />
  <defs>
    <clipPath id="clip0_218_164">
      <rect width="24.75" height="24.75" fill="white" transform="translate(25.3125)" />
    </clipPath>
  </defs>
</svg>