<svg width="103" height="71" viewBox="0 0 103 71" fill="none" xmlns="http://www.w3.org/2000/svg">
  <g clip-path="url(#clip0_218_168)">
    <path
      d="M51.1875 2.0625C56.8831 2.0625 61.5 6.67941 61.5 12.375C61.5 18.0706 56.8831 22.6875 51.1875 22.6875C45.4919 22.6875 40.875 18.0706 40.875 12.375C40.875 6.67941 45.4919 2.0625 51.1875 2.0625ZM51.1875 6.1875C50.914 6.1875 50.6517 6.29615 50.4583 6.48955C50.2649 6.68294 50.1562 6.94525 50.1562 7.21875V12.375C50.1563 12.6485 50.265 12.9107 50.4584 13.1041L53.5522 16.1978C53.7467 16.3857 54.0071 16.4896 54.2775 16.4873C54.5479 16.4849 54.8066 16.3765 54.9978 16.1853C55.189 15.9941 55.2974 15.7354 55.2998 15.465C55.3021 15.1946 55.1982 14.9342 55.0103 14.7397L52.2188 11.9481V7.21875C52.2188 6.94525 52.1101 6.68294 51.9167 6.48955C51.7233 6.29615 51.461 6.1875 51.1875 6.1875Z"
      fill="#0345B0" />
  </g>
  <path
    d="M7.54782 44.8372C7.54782 45.4323 7.40363 45.9496 7.11523 46.389C6.82684 46.8285 6.4057 47.1672 5.85181 47.4053C5.30249 47.6433 4.63416 47.7623 3.8468 47.7623C3.4989 47.7623 3.15787 47.7394 2.8237 47.6937C2.49411 47.6479 2.17596 47.5815 1.86926 47.4945C1.56714 47.403 1.27875 47.2908 1.00409 47.1581V45.1805C1.48016 45.3911 1.97455 45.5811 2.48724 45.7505C2.99994 45.9198 3.50806 46.0045 4.0116 46.0045C4.3595 46.0045 4.63873 45.9587 4.8493 45.8672C5.06445 45.7756 5.22009 45.6497 5.31622 45.4895C5.41235 45.3293 5.46042 45.1462 5.46042 44.9402C5.46042 44.6884 5.37573 44.4733 5.20636 44.2948C5.03699 44.1162 4.80353 43.9492 4.50598 43.7935C4.21301 43.6379 3.88113 43.4708 3.51035 43.2923C3.27689 43.1824 3.02283 43.0497 2.74817 42.894C2.47351 42.7338 2.21259 42.5392 1.96539 42.3104C1.7182 42.0815 1.5145 41.8045 1.35428 41.4795C1.19864 41.1499 1.12082 40.7563 1.12082 40.2985C1.12082 39.6988 1.25815 39.1861 1.53281 38.7604C1.80746 38.3347 2.19885 38.0097 2.70697 37.7854C3.21967 37.5565 3.82391 37.442 4.51971 37.442C5.04156 37.442 5.53824 37.5038 6.00974 37.6274C6.48581 37.7465 6.98248 37.9204 7.49976 38.1493L6.81311 39.8041C6.35077 39.6164 5.93649 39.4722 5.57028 39.3715C5.20407 39.2662 4.83099 39.2136 4.45105 39.2136C4.18555 39.2136 3.95895 39.2571 3.77127 39.3441C3.58359 39.4265 3.44168 39.5455 3.34555 39.7011C3.24942 39.8522 3.20135 40.0284 3.20135 40.2298C3.20135 40.4679 3.27002 40.6693 3.40735 40.8341C3.54926 40.9943 3.75983 41.1499 4.03906 41.301C4.32288 41.4521 4.67535 41.6283 5.0965 41.8297C5.60919 42.0723 6.04636 42.3264 6.40799 42.5919C6.7742 42.8528 7.05573 43.1618 7.25256 43.5189C7.4494 43.8713 7.54782 44.3108 7.54782 44.8372ZM11.2969 39.9483V47.625H9.20264V39.9483H11.2969ZM10.2532 36.9408C10.5645 36.9408 10.8323 37.014 11.0566 37.1605C11.2809 37.3024 11.393 37.5702 11.393 37.9639C11.393 38.353 11.2809 38.6231 11.0566 38.7741C10.8323 38.9206 10.5645 38.9939 10.2532 38.9939C9.93735 38.9939 9.66727 38.9206 9.44296 38.7741C9.22324 38.6231 9.11337 38.353 9.11337 37.9639C9.11337 37.5702 9.22324 37.3024 9.44296 37.1605C9.66727 37.014 9.93735 36.9408 10.2532 36.9408ZM18.8569 45.3453C18.8569 45.8672 18.7333 46.3089 18.4861 46.6706C18.2435 47.0276 17.8795 47.3 17.3943 47.4877C16.9091 47.6708 16.3048 47.7623 15.5816 47.7623C15.046 47.7623 14.5859 47.728 14.2014 47.6593C13.8215 47.5907 13.437 47.4762 13.0479 47.316V45.5857C13.4644 45.7733 13.9107 45.929 14.3868 46.0526C14.8675 46.1716 15.2886 46.2311 15.6502 46.2311C16.0576 46.2311 16.3483 46.1716 16.5223 46.0526C16.7008 45.929 16.7901 45.7688 16.7901 45.5719C16.7901 45.4438 16.7534 45.3293 16.6802 45.2286C16.6115 45.1233 16.4605 45.0066 16.227 44.8784C15.9936 44.7457 15.6273 44.574 15.1284 44.3634C14.6477 44.162 14.2518 43.9583 13.9405 43.7523C13.6338 43.5463 13.4049 43.3037 13.2538 43.0245C13.1074 42.7407 13.0341 42.3813 13.0341 41.9464C13.0341 41.2369 13.3088 40.7036 13.8581 40.3466C14.412 39.9849 15.1513 39.8041 16.076 39.8041C16.552 39.8041 17.0052 39.8522 17.4355 39.9483C17.8704 40.0444 18.3167 40.1978 18.7745 40.4084L18.1428 41.919C17.7628 41.7542 17.4035 41.6191 17.0647 41.5139C16.7306 41.4086 16.3895 41.3559 16.0416 41.3559C15.7349 41.3559 15.5038 41.3971 15.3481 41.4795C15.1925 41.5619 15.1147 41.6878 15.1147 41.8572C15.1147 41.9808 15.1536 42.0906 15.2314 42.1868C15.3138 42.2829 15.4694 42.3905 15.6983 42.5095C15.9318 42.6239 16.2728 42.7727 16.7214 42.9558C17.1563 43.1343 17.5339 43.322 17.8544 43.5189C18.1748 43.7111 18.422 43.9514 18.5959 44.2398C18.7699 44.5237 18.8569 44.8922 18.8569 45.3453ZM23.7252 46.0938C23.9541 46.0938 24.1761 46.0709 24.3912 46.0251C24.611 45.9793 24.8284 45.9221 25.0435 45.8535V47.4121C24.8192 47.5128 24.54 47.5952 24.2058 47.6593C23.8763 47.728 23.5146 47.7623 23.1209 47.7623C22.6632 47.7623 22.2512 47.6891 21.885 47.5426C21.5233 47.3915 21.2372 47.1329 21.0267 46.7667C20.8207 46.3959 20.7177 45.8809 20.7177 45.2217V41.5207H19.7152V40.6349L20.8687 39.9346L21.473 38.3141H22.812V39.9483H24.9612V41.5207H22.812V45.2217C22.812 45.5147 22.8943 45.7344 23.0591 45.8809C23.2285 46.0228 23.4505 46.0938 23.7252 46.0938ZM29.7677 39.8041C30.4772 39.8041 31.0883 39.9414 31.601 40.2161C32.1137 40.4862 32.5097 40.8799 32.7889 41.3971C33.0681 41.9144 33.2078 42.5461 33.2078 43.2923V44.3085H28.257C28.2799 44.899 28.4562 45.3636 28.7858 45.7024C29.1199 46.0366 29.5823 46.2036 30.1728 46.2036C30.6626 46.2036 31.1112 46.1533 31.5186 46.0526C31.926 45.9519 32.3449 45.8008 32.7752 45.5994V47.2199C32.3952 47.4076 31.997 47.5449 31.5804 47.6319C31.1684 47.7188 30.6672 47.7623 30.0767 47.7623C29.3076 47.7623 28.6255 47.6204 28.0305 47.3366C27.4399 47.0528 26.9753 46.6202 26.6366 46.0388C26.3024 45.4575 26.1353 44.7251 26.1353 43.8416C26.1353 42.9444 26.2864 42.1982 26.5885 41.6031C26.8952 41.0034 27.3209 40.5548 27.8657 40.2573C28.4104 39.9552 29.0444 39.8041 29.7677 39.8041ZM29.7814 41.2941C29.374 41.2941 29.0352 41.4246 28.7652 41.6855C28.4997 41.9464 28.3463 42.3561 28.3051 42.9146H31.244C31.2394 42.6033 31.1822 42.3264 31.0723 42.0838C30.967 41.8412 30.8068 41.6489 30.5916 41.507C30.3811 41.3651 30.111 41.2941 29.7814 41.2941ZM43.9263 39.8041C44.7961 39.8041 45.4529 40.0284 45.897 40.477C46.3456 40.9211 46.5699 41.6352 46.5699 42.6194V47.625H44.4688V43.1412C44.4688 42.5919 44.3749 42.1776 44.1872 41.8984C43.9995 41.6191 43.7089 41.4795 43.3152 41.4795C42.7613 41.4795 42.3676 41.6786 42.1342 42.0769C41.9007 42.4706 41.784 43.0359 41.784 43.7729V47.625H39.6897V43.1412C39.6897 42.775 39.6485 42.4683 39.5661 42.2211C39.4837 41.9739 39.3578 41.7885 39.1884 41.6649C39.0191 41.5413 38.8016 41.4795 38.5361 41.4795C38.147 41.4795 37.8403 41.5779 37.616 41.7748C37.3963 41.967 37.2384 42.2531 37.1422 42.6331C37.0507 43.0085 37.0049 43.4685 37.0049 44.0132V47.625H34.9106V39.9483H36.5105L36.7921 40.9302H36.9088C37.0644 40.6647 37.259 40.4496 37.4924 40.2848C37.7305 40.12 37.9914 39.9987 38.2752 39.9208C38.559 39.843 38.8474 39.8041 39.1404 39.8041C39.7034 39.8041 40.1795 39.8957 40.5686 40.0788C40.9623 40.2619 41.2644 40.5457 41.475 40.9302H41.6604C41.8893 40.5365 42.212 40.2504 42.6285 40.0719C43.0497 39.8934 43.4823 39.8041 43.9263 39.8041ZM51.8708 39.7904C52.9008 39.7904 53.6904 40.0147 54.2397 40.4633C54.789 40.9119 55.0637 41.594 55.0637 42.5095V47.625H53.6011L53.196 46.5813H53.1411C52.9214 46.856 52.6971 47.0803 52.4682 47.2542C52.2393 47.4282 51.9761 47.5563 51.6785 47.6387C51.381 47.7211 51.0193 47.7623 50.5936 47.7623C50.1404 47.7623 49.733 47.6754 49.3714 47.5014C49.0143 47.3275 48.7328 47.062 48.5268 46.7049C48.3208 46.3433 48.2178 45.8855 48.2178 45.3316C48.2178 44.5168 48.5039 43.9171 49.0761 43.5326C49.6483 43.1435 50.5067 42.9283 51.6511 42.8871L52.9832 42.8459V42.5095C52.9832 42.1067 52.8779 41.8114 52.6673 41.6237C52.4567 41.436 52.1638 41.3422 51.7884 41.3422C51.4176 41.3422 51.0537 41.3948 50.6966 41.5001C50.3396 41.6054 49.9825 41.7382 49.6255 41.8984L48.9319 40.4839C49.3394 40.2687 49.7948 40.0994 50.2984 39.9758C50.8065 39.8522 51.3306 39.7904 51.8708 39.7904ZM52.9832 44.0682L52.1729 44.0956C51.4954 44.114 51.0239 44.2353 50.7584 44.4596C50.4975 44.6839 50.367 44.9791 50.367 45.3453C50.367 45.6658 50.4609 45.8947 50.6486 46.032C50.8362 46.1647 51.0811 46.2311 51.3833 46.2311C51.8319 46.2311 52.2095 46.0984 52.5162 45.8329C52.8275 45.5674 52.9832 45.1897 52.9832 44.6999V44.0682ZM64.0244 39.7904C65.0544 39.7904 65.844 40.0147 66.3933 40.4633C66.9427 40.9119 67.2173 41.594 67.2173 42.5095V47.625H65.7548L65.3496 46.5813H65.2947C65.075 46.856 64.8507 47.0803 64.6218 47.2542C64.3929 47.4282 64.1297 47.5563 63.8322 47.6387C63.5346 47.7211 63.173 47.7623 62.7473 47.7623C62.2941 47.7623 61.8867 47.6754 61.525 47.5014C61.168 47.3275 60.8864 47.062 60.6805 46.7049C60.4745 46.3433 60.3715 45.8855 60.3715 45.3316C60.3715 44.5168 60.6576 43.9171 61.2298 43.5326C61.802 43.1435 62.6603 42.9283 63.8047 42.8871L65.1368 42.8459V42.5095C65.1368 42.1067 65.0315 41.8114 64.8209 41.6237C64.6104 41.436 64.3174 41.3422 63.942 41.3422C63.5712 41.3422 63.2073 41.3948 62.8503 41.5001C62.4932 41.6054 62.1361 41.7382 61.7791 41.8984L61.0856 40.4839C61.493 40.2687 61.9485 40.0994 62.452 39.9758C62.9601 39.8522 63.4843 39.7904 64.0244 39.7904ZM65.1368 44.0682L64.3265 44.0956C63.649 44.114 63.1776 44.2353 62.912 44.4596C62.6511 44.6839 62.5207 44.9791 62.5207 45.3453C62.5207 45.6658 62.6145 45.8947 62.8022 46.032C62.9899 46.1647 63.2348 46.2311 63.5369 46.2311C63.9855 46.2311 64.3632 46.0984 64.6699 45.8329C64.9811 45.5674 65.1368 45.1897 65.1368 44.6999V44.0682ZM72.4976 47.7623C71.7377 47.7623 71.09 47.625 70.5544 47.3503C70.0188 47.0711 69.6114 46.6408 69.3322 46.0594C69.0529 45.4781 68.9133 44.7342 68.9133 43.8279C68.9133 42.8894 69.0713 42.125 69.3871 41.5345C69.7076 40.9394 70.1493 40.5022 70.7123 40.223C71.28 39.9437 71.9369 39.8041 72.683 39.8041C73.214 39.8041 73.6718 39.8568 74.0563 39.962C74.4454 40.0627 74.7841 40.1841 75.0725 40.326L74.4546 41.9464C74.125 41.8137 73.8183 41.7061 73.5345 41.6237C73.2506 41.5367 72.9668 41.4933 72.683 41.4933C72.3168 41.4933 72.0124 41.5802 71.7698 41.7542C71.5272 41.9236 71.3463 42.1799 71.2273 42.5232C71.1083 42.8665 71.0488 43.2968 71.0488 43.8141C71.0488 44.3222 71.1129 44.7434 71.2411 45.0775C71.3692 45.4117 71.5546 45.6612 71.7972 45.826C72.0399 45.9862 72.3351 46.0663 72.683 46.0663C73.1179 46.0663 73.5047 46.0091 73.8434 45.8947C74.1822 45.7756 74.5118 45.6108 74.8322 45.4003V47.1924C74.5118 47.3938 74.1753 47.538 73.8228 47.625C73.4749 47.7166 73.0332 47.7623 72.4976 47.7623ZM79.8516 46.0938C80.0805 46.0938 80.3025 46.0709 80.5176 46.0251C80.7374 45.9793 80.9548 45.9221 81.17 45.8535V47.4121C80.9456 47.5128 80.6664 47.5952 80.3322 47.6593C80.0027 47.728 79.641 47.7623 79.2473 47.7623C78.7896 47.7623 78.3776 47.6891 78.0114 47.5426C77.6497 47.3915 77.3636 47.1329 77.1531 46.7667C76.9471 46.3959 76.8441 45.8809 76.8441 45.2217V41.5207H75.8416V40.6349L76.9951 39.9346L77.5994 38.3141H78.9384V39.9483H81.0876V41.5207H78.9384V45.2217C78.9384 45.5147 79.0208 45.7344 79.1855 45.8809C79.3549 46.0228 79.5769 46.0938 79.8516 46.0938ZM84.8229 39.9483V47.625H82.7286V39.9483H84.8229ZM83.7792 36.9408C84.0905 36.9408 84.3583 37.014 84.5826 37.1605C84.8069 37.3024 84.919 37.5702 84.919 37.9639C84.919 38.353 84.8069 38.6231 84.5826 38.7741C84.3583 38.9206 84.0905 38.9939 83.7792 38.9939C83.4633 38.9939 83.1933 38.9206 82.969 38.7741C82.7492 38.6231 82.6394 38.353 82.6394 37.9639C82.6394 37.5702 82.7492 37.3024 82.969 37.1605C83.1933 37.014 83.4633 36.9408 83.7792 36.9408ZM88.8535 47.625L85.9284 39.9483H88.1188L89.602 44.3222C89.6844 44.5786 89.7484 44.8487 89.7942 45.1325C89.8446 45.4163 89.8789 45.6703 89.8972 45.8947H89.9521C89.9659 45.652 89.9979 45.3934 90.0483 45.1187C90.1032 44.8441 90.1742 44.5786 90.2611 44.3222L91.7374 39.9483H93.9278L91.0027 47.625H88.8535ZM102.01 43.7729C102.01 44.4138 101.923 44.9814 101.749 45.4758C101.579 45.9702 101.33 46.389 101 46.7324C100.675 47.0711 100.282 47.3275 99.8192 47.5014C99.3615 47.6754 98.8442 47.7623 98.2674 47.7623C97.7273 47.7623 97.2306 47.6754 96.7774 47.5014C96.3288 47.3275 95.9374 47.0711 95.6032 46.7324C95.2737 46.389 95.0173 45.9702 94.8342 45.4758C94.6557 44.9814 94.5664 44.4138 94.5664 43.7729C94.5664 42.9215 94.7175 42.2005 95.0196 41.61C95.3217 41.0195 95.752 40.5709 96.3105 40.2642C96.869 39.9575 97.535 39.8041 98.3086 39.8041C99.0273 39.8041 99.6636 39.9575 100.217 40.2642C100.776 40.5709 101.213 41.0195 101.529 41.61C101.849 42.2005 102.01 42.9215 102.01 43.7729ZM96.7019 43.7729C96.7019 44.2765 96.7568 44.6999 96.8667 45.0432C96.9765 45.3865 97.1482 45.6452 97.3817 45.8191C97.6151 45.9931 97.9195 46.08 98.2949 46.08C98.6657 46.08 98.9655 45.9931 99.1944 45.8191C99.4279 45.6452 99.5972 45.3865 99.7025 45.0432C99.8124 44.6999 99.8673 44.2765 99.8673 43.7729C99.8673 43.2648 99.8124 42.8437 99.7025 42.5095C99.5972 42.1707 99.4279 41.9167 99.1944 41.7473C98.9609 41.5779 98.6565 41.4933 98.2812 41.4933C97.7273 41.4933 97.3244 41.6832 97.0727 42.0632C96.8255 42.4431 96.7019 43.013 96.7019 43.7729ZM42.9169 66.625H35.8994V65.1487L38.4194 62.6013C38.9275 62.0794 39.3349 61.6445 39.6416 61.2966C39.9529 60.9442 40.1772 60.6237 40.3145 60.3353C40.4565 60.0469 40.5274 59.7379 40.5274 59.4084C40.5274 59.0101 40.4153 58.7126 40.1909 58.5157C39.9712 58.3143 39.676 58.2136 39.3052 58.2136C38.9161 58.2136 38.5384 58.3029 38.1722 58.4814C37.806 58.6599 37.4238 58.914 37.0255 59.2436L35.8719 57.8771C36.1603 57.6299 36.4648 57.3965 36.7852 57.1768C37.1102 56.957 37.4856 56.7808 37.9113 56.648C38.3416 56.5107 38.8566 56.442 39.4562 56.442C40.1154 56.442 40.6808 56.5611 41.1523 56.7991C41.6283 57.0371 41.9945 57.3622 42.2509 57.7741C42.5072 58.1815 42.6354 58.6439 42.6354 59.1612C42.6354 59.7151 42.5255 60.2209 42.3058 60.6786C42.0861 61.1364 41.7657 61.5896 41.3445 62.0382C40.9279 62.4868 40.4244 62.9835 39.8339 63.5282L38.543 64.7436V64.8397H42.9169V66.625ZM51.191 64.5445H49.9825V66.625H47.9088V64.5445H43.6242V63.0682L48.0256 56.5862H49.9825V62.8965H51.191V64.5445ZM47.9088 62.8965V61.1936C47.9088 61.0334 47.9111 60.8434 47.9157 60.6237C47.9249 60.404 47.934 60.1843 47.9432 59.9645C47.9523 59.7448 47.9615 59.5503 47.9706 59.3809C47.9844 59.2069 47.9935 59.0856 47.9981 59.017H47.9432C47.8562 59.2047 47.7646 59.3878 47.6685 59.5663C47.5724 59.7402 47.4602 59.9233 47.3321 60.1156L45.4919 62.8965H47.9088ZM54.6242 55.9408V58.1175C54.6242 58.4974 54.6105 58.859 54.583 59.2024C54.5602 59.5457 54.5418 59.7883 54.5281 59.9302H54.638C54.8028 59.6647 54.9973 59.4496 55.2216 59.2848C55.4505 59.12 55.7023 58.9987 55.9769 58.9208C56.2516 58.843 56.5468 58.8041 56.8627 58.8041C57.4166 58.8041 57.8995 58.9025 58.3115 59.0994C58.7235 59.2916 59.0439 59.596 59.2728 60.0126C59.5017 60.4246 59.6161 60.9602 59.6161 61.6194V66.625H57.5219V62.1412C57.5219 61.5919 57.4212 61.1776 57.2198 60.8984C57.0183 60.6191 56.7071 60.4795 56.2859 60.4795C55.8648 60.4795 55.5329 60.5779 55.2903 60.7748C55.0477 60.967 54.876 61.2531 54.7753 61.6331C54.6746 62.0085 54.6242 62.4685 54.6242 63.0132V66.625H52.53V55.9408H54.6242ZM67.1281 64.3453C67.1281 64.8672 67.0045 65.3089 66.7573 65.6706C66.5146 66.0276 66.1507 66.3 65.6655 66.4877C65.1803 66.6708 64.576 66.7623 63.8528 66.7623C63.3172 66.7623 62.8571 66.728 62.4726 66.6593C62.0927 66.5907 61.7081 66.4762 61.319 66.316V64.5857C61.7356 64.7733 62.1819 64.929 62.658 65.0526C63.1386 65.1716 63.5598 65.2311 63.9214 65.2311C64.3288 65.2311 64.6195 65.1716 64.7935 65.0526C64.972 64.929 65.0612 64.7688 65.0612 64.5719C65.0612 64.4438 65.0246 64.3293 64.9514 64.2286C64.8827 64.1233 64.7317 64.0066 64.4982 63.8784C64.2647 63.7457 63.8985 63.574 63.3996 63.3634C62.9189 63.162 62.5229 62.9583 62.2117 62.7523C61.905 62.5463 61.6761 62.3037 61.525 62.0245C61.3785 61.7407 61.3053 61.3813 61.3053 60.9464C61.3053 60.2369 61.58 59.7036 62.1293 59.3466C62.6832 58.9849 63.4225 58.8041 64.3471 58.8041C64.8232 58.8041 65.2764 58.8522 65.7067 58.9483C66.1416 59.0444 66.5879 59.1978 67.0457 59.4084L66.4139 60.919C66.034 60.7542 65.6747 60.6191 65.3359 60.5139C65.0017 60.4086 64.6607 60.3559 64.3128 60.3559C64.0061 60.3559 63.7749 60.3971 63.6193 60.4795C63.4637 60.5619 63.3858 60.6878 63.3858 60.8572C63.3858 60.9808 63.4247 61.0906 63.5026 61.1868C63.585 61.2829 63.7406 61.3905 63.9695 61.5095C64.2029 61.6239 64.544 61.7727 64.9926 61.9558C65.4275 62.1343 65.8051 62.322 66.1255 62.5189C66.446 62.7111 66.6932 62.9514 66.8671 63.2398C67.0411 63.5237 67.1281 63.8922 67.1281 64.3453Z"
    fill="black" />
  <defs>
    <clipPath id="clip0_218_168">
      <rect width="24.75" height="24.75" fill="white" transform="translate(38.8125)" />
    </clipPath>
  </defs>
</svg>