<svg width="44" height="44" viewBox="0 0 44 44" fill="none" xmlns="http://www.w3.org/2000/svg">
<path d="M21.6883 16.5L27.5 22.2933V22C27.5 20.5413 26.9206 19.1424 25.8891 18.1109C24.8577 17.0795 23.4587 16.5 22 16.5H21.6883ZM13.805 17.9667L16.6467 20.8083C16.555 21.1933 16.5 21.5783 16.5 22C16.5 23.4587 17.0795 24.8576 18.1109 25.8891C19.1424 26.9205 20.5413 27.5 22 27.5C22.4033 27.5 22.8067 27.445 23.1917 27.3533L26.0333 30.195C24.805 30.8 23.4483 31.1667 22 31.1667C19.5689 31.1667 17.2373 30.2009 15.5182 28.4818C13.7991 26.7627 12.8333 24.4312 12.8333 22C12.8333 20.5517 13.2 19.195 13.805 17.9667ZM3.66668 7.82833L7.84668 12.0083L8.67168 12.8333C5.64668 15.2167 3.26334 18.3333 1.83334 22C5.00501 30.0483 12.8333 35.75 22 35.75C24.8417 35.75 27.555 35.2 30.03 34.21L30.8183 34.98L36.1717 40.3333L38.5 38.005L5.99501 5.5M22 12.8333C24.4312 12.8333 26.7627 13.7991 28.4818 15.5182C30.2009 17.2373 31.1667 19.5688 31.1667 22C31.1667 23.1733 30.9283 24.31 30.5067 25.3367L35.8783 30.7083C38.6283 28.4167 40.8283 25.41 42.1667 22C38.995 13.9517 31.1667 8.25 22 8.25C19.4333 8.25 16.9767 8.70833 14.6667 9.53333L18.645 13.475C19.69 13.0717 20.8083 12.8333 22 12.8333Z" fill="black"/>
</svg>
