<svg width="552" height="300" viewBox="0 0 552 323" fill="none" xmlns="http://www.w3.org/2000/svg">
  <rect y="0" width="552" height="300" rx="20" fill="#D9D9D900"/>
  <rect x="76" y="196" width="20" height="90" fill="#464646"/>
  <rect x="104" y="196" width="20" height="90" fill="#464646"/>
  <rect x="132" y="154" width="20" height="132" fill="#464646"/>
  <rect x="160" y="178" width="20" height="108" fill="#464646"/>
  <rect x="188" y="103" width="20" height="183" fill="#464646"/>
  <rect x="216" y="121" width="20" height="165" fill="#464646"/>
  <rect x="244" y="111" width="20" height="175" fill="#464646"/>
  <rect x="272" y="103" width="20" height="183" fill="#464646"/>
  <rect x="300" y="188" width="20" height="98" fill="#464646"/>
  <rect x="328" y="154" width="20" height="132" fill="#464646"/>
  <rect x="356" y="53" width="20" height="233" fill="#464646"/>
  <rect x="384" y="131" width="20" height="155" fill="#464646"/>
  <rect x="412" y="178" width="20" height="108" fill="#464646"/>
  <rect x="440" y="121" width="20" height="165" fill="#464646"/>
  <rect x="468" y="142" width="20" height="144" fill="#464646"/>
  <rect x="496" y="131" width="20" height="155" fill="#464646"/>
  <line x1="56" y1="48.999" x2="56" y2="301.001" stroke="black"/>
  <path d="M37.6688 282.419C37.6688 283.16 37.6125 283.823 37.5 284.406C37.3875 284.99 37.2104 285.483 36.9688 285.887C36.7271 286.292 36.4146 286.6 36.0313 286.812C35.6479 287.021 35.1875 287.125 34.65 287.125C33.9708 287.125 33.4083 286.94 32.9625 286.569C32.5208 286.198 32.1896 285.662 31.9688 284.962C31.7521 284.258 31.6438 283.41 31.6438 282.419C31.6438 281.444 31.7417 280.606 31.9375 279.906C32.1375 279.202 32.4583 278.662 32.9 278.287C33.3417 277.908 33.925 277.719 34.65 277.719C35.3375 277.719 35.9042 277.906 36.35 278.281C36.7958 278.652 37.1271 279.19 37.3438 279.894C37.5604 280.594 37.6688 281.435 37.6688 282.419ZM32.6875 282.419C32.6875 283.269 32.7521 283.977 32.8813 284.544C33.0104 285.11 33.2188 285.535 33.5063 285.819C33.7979 286.098 34.1792 286.237 34.65 286.237C35.1208 286.237 35.5 286.098 35.7875 285.819C36.0792 285.54 36.2896 285.117 36.4188 284.55C36.5521 283.983 36.6188 283.273 36.6188 282.419C36.6188 281.581 36.5542 280.881 36.425 280.319C36.2958 279.752 36.0875 279.327 35.8 279.044C35.5125 278.756 35.1292 278.612 34.65 278.612C34.1708 278.612 33.7875 278.756 33.5 279.044C33.2125 279.327 33.0042 279.752 32.875 280.319C32.75 280.881 32.6875 281.581 32.6875 282.419ZM40.8188 277.731C41.4438 277.731 41.9167 277.981 42.2375 278.481C42.5625 278.977 42.725 279.679 42.725 280.587C42.725 281.496 42.5688 282.204 42.2563 282.712C41.9438 283.217 41.4646 283.469 40.8188 283.469C40.2188 283.469 39.7583 283.217 39.4375 282.712C39.1208 282.204 38.9625 281.496 38.9625 280.587C38.9625 279.679 39.1146 278.977 39.4188 278.481C39.7229 277.981 40.1896 277.731 40.8188 277.731ZM40.8188 278.475C40.4813 278.475 40.2333 278.652 40.075 279.006C39.9167 279.356 39.8375 279.883 39.8375 280.587C39.8375 281.292 39.9167 281.823 40.075 282.181C40.2333 282.54 40.4813 282.719 40.8188 282.719C41.1688 282.719 41.4292 282.54 41.6 282.181C41.7708 281.823 41.8563 281.292 41.8563 280.587C41.8563 279.887 41.7708 279.36 41.6 279.006C41.4333 278.652 41.1729 278.475 40.8188 278.475ZM46.6063 277.862L41.5375 287H40.625L45.6938 277.862H46.6063ZM46.3625 281.394C46.9833 281.394 47.4563 281.644 47.7813 282.144C48.1063 282.64 48.2688 283.342 48.2688 284.25C48.2688 285.154 48.1125 285.86 47.8 286.369C47.4875 286.873 47.0083 287.125 46.3625 287.125C45.7583 287.125 45.2979 286.873 44.9813 286.369C44.6646 285.86 44.5063 285.154 44.5063 284.25C44.5063 283.342 44.6563 282.64 44.9563 282.144C45.2604 281.644 45.7292 281.394 46.3625 281.394ZM46.3625 282.144C46.025 282.144 45.7771 282.319 45.6188 282.669C45.4604 283.019 45.3813 283.546 45.3813 284.25C45.3813 284.954 45.4604 285.485 45.6188 285.844C45.7771 286.198 46.025 286.375 46.3625 286.375C46.7125 286.375 46.9729 286.2 47.1438 285.85C47.3146 285.496 47.4 284.962 47.4 284.25C47.4 283.55 47.3146 283.025 47.1438 282.675C46.9771 282.321 46.7167 282.144 46.3625 282.144Z" fill="black"/>
  <path d="M26.5188 203.412C27.1396 203.412 27.6792 203.519 28.1375 203.731C28.5958 203.94 28.95 204.244 29.2 204.644C29.4542 205.044 29.5813 205.529 29.5813 206.1C29.5813 206.725 29.4458 207.265 29.175 207.719C28.9042 208.169 28.5146 208.517 28.0063 208.762C27.4979 209.004 26.8896 209.125 26.1813 209.125C25.7063 209.125 25.2646 209.083 24.8563 209C24.4479 208.917 24.1042 208.792 23.825 208.625V207.637C24.1292 207.821 24.4979 207.967 24.9313 208.075C25.3646 208.183 25.7854 208.237 26.1938 208.237C26.6563 208.237 27.0604 208.165 27.4063 208.019C27.7563 207.869 28.0271 207.644 28.2188 207.344C28.4146 207.04 28.5125 206.658 28.5125 206.2C28.5125 205.592 28.325 205.123 27.95 204.794C27.5792 204.46 26.9917 204.294 26.1875 204.294C25.9292 204.294 25.6458 204.315 25.3375 204.356C25.0292 204.398 24.775 204.444 24.575 204.494L24.05 204.15L24.4 199.862H28.9438V200.812H25.2875L25.0563 203.569C25.2146 203.535 25.4188 203.502 25.6688 203.469C25.9188 203.431 26.2021 203.412 26.5188 203.412ZM36.9938 204.419C36.9938 205.16 36.9375 205.823 36.825 206.406C36.7125 206.99 36.5354 207.483 36.2938 207.887C36.0521 208.292 35.7396 208.6 35.3563 208.812C34.9729 209.021 34.5125 209.125 33.975 209.125C33.2958 209.125 32.7333 208.94 32.2875 208.569C31.8458 208.198 31.5146 207.662 31.2938 206.962C31.0771 206.258 30.9688 205.41 30.9688 204.419C30.9688 203.444 31.0667 202.606 31.2625 201.906C31.4625 201.202 31.7833 200.662 32.225 200.287C32.6667 199.908 33.25 199.719 33.975 199.719C34.6625 199.719 35.2292 199.906 35.675 200.281C36.1208 200.652 36.4521 201.19 36.6688 201.894C36.8854 202.594 36.9938 203.435 36.9938 204.419ZM32.0125 204.419C32.0125 205.269 32.0771 205.977 32.2063 206.544C32.3354 207.11 32.5438 207.535 32.8313 207.819C33.1229 208.098 33.5042 208.237 33.975 208.237C34.4458 208.237 34.825 208.098 35.1125 207.819C35.4042 207.54 35.6146 207.117 35.7438 206.55C35.8771 205.983 35.9438 205.273 35.9438 204.419C35.9438 203.581 35.8792 202.881 35.75 202.319C35.6208 201.752 35.4125 201.327 35.125 201.044C34.8375 200.756 34.4542 200.612 33.975 200.612C33.4958 200.612 33.1125 200.756 32.825 201.044C32.5375 201.327 32.3292 201.752 32.2 202.319C32.075 202.881 32.0125 203.581 32.0125 204.419ZM40.1438 199.731C40.7688 199.731 41.2417 199.981 41.5625 200.481C41.8875 200.977 42.05 201.679 42.05 202.587C42.05 203.496 41.8938 204.204 41.5813 204.712C41.2688 205.217 40.7896 205.469 40.1438 205.469C39.5438 205.469 39.0833 205.217 38.7625 204.712C38.4458 204.204 38.2875 203.496 38.2875 202.587C38.2875 201.679 38.4396 200.977 38.7438 200.481C39.0479 199.981 39.5146 199.731 40.1438 199.731ZM40.1438 200.475C39.8063 200.475 39.5583 200.652 39.4 201.006C39.2417 201.356 39.1625 201.883 39.1625 202.587C39.1625 203.292 39.2417 203.823 39.4 204.181C39.5583 204.54 39.8063 204.719 40.1438 204.719C40.4938 204.719 40.7542 204.54 40.925 204.181C41.0958 203.823 41.1813 203.292 41.1813 202.587C41.1813 201.887 41.0958 201.36 40.925 201.006C40.7583 200.652 40.4979 200.475 40.1438 200.475ZM45.9313 199.862L40.8625 209H39.95L45.0188 199.862H45.9313ZM45.6875 203.394C46.3083 203.394 46.7813 203.644 47.1063 204.144C47.4313 204.64 47.5938 205.342 47.5938 206.25C47.5938 207.154 47.4375 207.86 47.125 208.369C46.8125 208.873 46.3333 209.125 45.6875 209.125C45.0833 209.125 44.6229 208.873 44.3063 208.369C43.9896 207.86 43.8313 207.154 43.8313 206.25C43.8313 205.342 43.9813 204.64 44.2813 204.144C44.5854 203.644 45.0542 203.394 45.6875 203.394ZM45.6875 204.144C45.35 204.144 45.1021 204.319 44.9438 204.669C44.7854 205.019 44.7063 205.546 44.7063 206.25C44.7063 206.954 44.7854 207.485 44.9438 207.844C45.1021 208.198 45.35 208.375 45.6875 208.375C46.0375 208.375 46.2979 208.2 46.4688 207.85C46.6396 207.496 46.725 206.962 46.725 206.25C46.725 205.55 46.6396 205.025 46.4688 204.675C46.3021 204.321 46.0417 204.144 45.6875 204.144Z" fill="black"/>
  <path d="M20.4938 131H19.4813V124.525C19.4813 124.279 19.4813 124.069 19.4813 123.894C19.4854 123.715 19.4896 123.552 19.4938 123.406C19.5021 123.256 19.5125 123.104 19.525 122.95C19.3958 123.083 19.275 123.198 19.1625 123.294C19.05 123.385 18.9104 123.5 18.7438 123.637L17.7 124.475L17.1563 123.769L19.6313 121.862H20.4938V131ZM29.9938 126.419C29.9938 127.16 29.9375 127.823 29.825 128.406C29.7125 128.99 29.5354 129.483 29.2938 129.887C29.0521 130.292 28.7396 130.6 28.3563 130.812C27.9729 131.021 27.5125 131.125 26.975 131.125C26.2958 131.125 25.7333 130.94 25.2875 130.569C24.8458 130.198 24.5146 129.662 24.2938 128.962C24.0771 128.258 23.9688 127.41 23.9688 126.419C23.9688 125.444 24.0667 124.606 24.2625 123.906C24.4625 123.202 24.7833 122.662 25.225 122.287C25.6667 121.908 26.25 121.719 26.975 121.719C27.6625 121.719 28.2292 121.906 28.675 122.281C29.1208 122.652 29.4521 123.19 29.6688 123.894C29.8854 124.594 29.9938 125.435 29.9938 126.419ZM25.0125 126.419C25.0125 127.269 25.0771 127.977 25.2063 128.544C25.3354 129.11 25.5438 129.535 25.8313 129.819C26.1229 130.098 26.5042 130.237 26.975 130.237C27.4458 130.237 27.825 130.098 28.1125 129.819C28.4042 129.54 28.6146 129.117 28.7438 128.55C28.8771 127.983 28.9438 127.273 28.9438 126.419C28.9438 125.581 28.8792 124.881 28.75 124.319C28.6208 123.752 28.4125 123.327 28.125 123.044C27.8375 122.756 27.4542 122.612 26.975 122.612C26.4958 122.612 26.1125 122.756 25.825 123.044C25.5375 123.327 25.3292 123.752 25.2 124.319C25.075 124.881 25.0125 125.581 25.0125 126.419ZM37.3188 126.419C37.3188 127.16 37.2625 127.823 37.15 128.406C37.0375 128.99 36.8604 129.483 36.6188 129.887C36.3771 130.292 36.0646 130.6 35.6813 130.812C35.2979 131.021 34.8375 131.125 34.3 131.125C33.6208 131.125 33.0583 130.94 32.6125 130.569C32.1708 130.198 31.8396 129.662 31.6188 128.962C31.4021 128.258 31.2938 127.41 31.2938 126.419C31.2938 125.444 31.3917 124.606 31.5875 123.906C31.7875 123.202 32.1083 122.662 32.55 122.287C32.9917 121.908 33.575 121.719 34.3 121.719C34.9875 121.719 35.5542 121.906 36 122.281C36.4458 122.652 36.7771 123.19 36.9938 123.894C37.2104 124.594 37.3188 125.435 37.3188 126.419ZM32.3375 126.419C32.3375 127.269 32.4021 127.977 32.5313 128.544C32.6604 129.11 32.8688 129.535 33.1563 129.819C33.4479 130.098 33.8292 130.237 34.3 130.237C34.7708 130.237 35.15 130.098 35.4375 129.819C35.7292 129.54 35.9396 129.117 36.0688 128.55C36.2021 127.983 36.2688 127.273 36.2688 126.419C36.2688 125.581 36.2042 124.881 36.075 124.319C35.9458 123.752 35.7375 123.327 35.45 123.044C35.1625 122.756 34.7792 122.612 34.3 122.612C33.8208 122.612 33.4375 122.756 33.15 123.044C32.8625 123.327 32.6542 123.752 32.525 124.319C32.4 124.881 32.3375 125.581 32.3375 126.419ZM40.4688 121.731C41.0938 121.731 41.5667 121.981 41.8875 122.481C42.2125 122.977 42.375 123.679 42.375 124.587C42.375 125.496 42.2188 126.204 41.9063 126.712C41.5938 127.217 41.1146 127.469 40.4688 127.469C39.8688 127.469 39.4083 127.217 39.0875 126.712C38.7708 126.204 38.6125 125.496 38.6125 124.587C38.6125 123.679 38.7646 122.977 39.0688 122.481C39.3729 121.981 39.8396 121.731 40.4688 121.731ZM40.4688 122.475C40.1313 122.475 39.8833 122.652 39.725 123.006C39.5667 123.356 39.4875 123.883 39.4875 124.587C39.4875 125.292 39.5667 125.823 39.725 126.181C39.8833 126.54 40.1313 126.719 40.4688 126.719C40.8188 126.719 41.0792 126.54 41.25 126.181C41.4208 125.823 41.5063 125.292 41.5063 124.587C41.5063 123.887 41.4208 123.36 41.25 123.006C41.0833 122.652 40.8229 122.475 40.4688 122.475ZM46.2563 121.862L41.1875 131H40.275L45.3438 121.862H46.2563ZM46.0125 125.394C46.6333 125.394 47.1063 125.644 47.4313 126.144C47.7563 126.64 47.9188 127.342 47.9188 128.25C47.9188 129.154 47.7625 129.86 47.45 130.369C47.1375 130.873 46.6583 131.125 46.0125 131.125C45.4083 131.125 44.9479 130.873 44.6313 130.369C44.3146 129.86 44.1563 129.154 44.1563 128.25C44.1563 127.342 44.3063 126.64 44.6063 126.144C44.9104 125.644 45.3792 125.394 46.0125 125.394ZM46.0125 126.144C45.675 126.144 45.4271 126.319 45.2688 126.669C45.1104 127.019 45.0313 127.546 45.0313 128.25C45.0313 128.954 45.1104 129.485 45.2688 129.844C45.4271 130.198 45.675 130.375 46.0125 130.375C46.3625 130.375 46.6229 130.2 46.7938 129.85C46.9646 129.496 47.05 128.962 47.05 128.25C47.05 127.55 46.9646 127.025 46.7938 126.675C46.6271 126.321 46.3667 126.144 46.0125 126.144Z" fill="black"/>
  <path d="M20.4938 53H19.4813V46.525C19.4813 46.2792 19.4813 46.0687 19.4813 45.8937C19.4854 45.7146 19.4896 45.5521 19.4938 45.4062C19.5021 45.2562 19.5125 45.1042 19.525 44.95C19.3958 45.0833 19.275 45.1979 19.1625 45.2937C19.05 45.3854 18.9104 45.5 18.7438 45.6375L17.7 46.475L17.1563 45.7687L19.6313 43.8625H20.4938V53ZM26.8438 47.4125C27.4646 47.4125 28.0042 47.5187 28.4625 47.7312C28.9208 47.9396 29.275 48.2437 29.525 48.6437C29.7792 49.0437 29.9063 49.5292 29.9063 50.1C29.9063 50.725 29.7708 51.2646 29.5 51.7187C29.2292 52.1687 28.8396 52.5167 28.3313 52.7625C27.8229 53.0042 27.2146 53.125 26.5063 53.125C26.0313 53.125 25.5896 53.0833 25.1813 53C24.7729 52.9167 24.4292 52.7917 24.15 52.625V51.6375C24.4542 51.8208 24.8229 51.9667 25.2563 52.075C25.6896 52.1833 26.1104 52.2375 26.5188 52.2375C26.9813 52.2375 27.3854 52.1646 27.7313 52.0187C28.0813 51.8687 28.3521 51.6437 28.5438 51.3437C28.7396 51.0396 28.8375 50.6583 28.8375 50.2C28.8375 49.5917 28.65 49.1229 28.275 48.7937C27.9042 48.4604 27.3167 48.2937 26.5125 48.2937C26.2542 48.2937 25.9708 48.3146 25.6625 48.3562C25.3542 48.3979 25.1 48.4437 24.9 48.4937L24.375 48.15L24.725 43.8625H29.2688V44.8125H25.6125L25.3813 47.5687C25.5396 47.5354 25.7438 47.5021 25.9938 47.4687C26.2438 47.4312 26.5271 47.4125 26.8438 47.4125ZM37.3188 48.4187C37.3188 49.1604 37.2625 49.8229 37.15 50.4062C37.0375 50.9896 36.8604 51.4833 36.6188 51.8875C36.3771 52.2917 36.0646 52.6 35.6813 52.8125C35.2979 53.0208 34.8375 53.125 34.3 53.125C33.6208 53.125 33.0583 52.9396 32.6125 52.5687C32.1708 52.1979 31.8396 51.6625 31.6188 50.9625C31.4021 50.2583 31.2938 49.4104 31.2938 48.4187C31.2938 47.4437 31.3917 46.6062 31.5875 45.9062C31.7875 45.2021 32.1083 44.6625 32.55 44.2875C32.9917 43.9083 33.575 43.7187 34.3 43.7187C34.9875 43.7187 35.5542 43.9062 36 44.2812C36.4458 44.6521 36.7771 45.1896 36.9938 45.8937C37.2104 46.5937 37.3188 47.4354 37.3188 48.4187ZM32.3375 48.4187C32.3375 49.2687 32.4021 49.9771 32.5313 50.5437C32.6604 51.1104 32.8688 51.5354 33.1563 51.8187C33.4479 52.0979 33.8292 52.2375 34.3 52.2375C34.7708 52.2375 35.15 52.0979 35.4375 51.8187C35.7292 51.5396 35.9396 51.1167 36.0688 50.55C36.2021 49.9833 36.2688 49.2729 36.2688 48.4187C36.2688 47.5812 36.2042 46.8812 36.075 46.3187C35.9458 45.7521 35.7375 45.3271 35.45 45.0437C35.1625 44.7562 34.7792 44.6125 34.3 44.6125C33.8208 44.6125 33.4375 44.7562 33.15 45.0437C32.8625 45.3271 32.6542 45.7521 32.525 46.3187C32.4 46.8812 32.3375 47.5812 32.3375 48.4187ZM40.4688 43.7312C41.0938 43.7312 41.5667 43.9812 41.8875 44.4812C42.2125 44.9771 42.375 45.6792 42.375 46.5875C42.375 47.4958 42.2188 48.2042 41.9063 48.7125C41.5938 49.2167 41.1146 49.4687 40.4688 49.4687C39.8688 49.4687 39.4083 49.2167 39.0875 48.7125C38.7708 48.2042 38.6125 47.4958 38.6125 46.5875C38.6125 45.6792 38.7646 44.9771 39.0688 44.4812C39.3729 43.9812 39.8396 43.7312 40.4688 43.7312ZM40.4688 44.475C40.1313 44.475 39.8833 44.6521 39.725 45.0062C39.5667 45.3562 39.4875 45.8833 39.4875 46.5875C39.4875 47.2917 39.5667 47.8229 39.725 48.1812C39.8833 48.5396 40.1313 48.7187 40.4688 48.7187C40.8188 48.7187 41.0792 48.5396 41.25 48.1812C41.4208 47.8229 41.5063 47.2917 41.5063 46.5875C41.5063 45.8875 41.4208 45.3604 41.25 45.0062C41.0833 44.6521 40.8229 44.475 40.4688 44.475ZM46.2563 43.8625L41.1875 53H40.275L45.3438 43.8625H46.2563ZM46.0125 47.3937C46.6333 47.3937 47.1063 47.6437 47.4313 48.1437C47.7563 48.6396 47.9188 49.3417 47.9188 50.25C47.9188 51.1542 47.7625 51.8604 47.45 52.3687C47.1375 52.8729 46.6583 53.125 46.0125 53.125C45.4083 53.125 44.9479 52.8729 44.6313 52.3687C44.3146 51.8604 44.1563 51.1542 44.1563 50.25C44.1563 49.3417 44.3063 48.6396 44.6063 48.1437C44.9104 47.6437 45.3792 47.3937 46.0125 47.3937ZM46.0125 48.1437C45.675 48.1437 45.4271 48.3187 45.2688 48.6687C45.1104 49.0187 45.0313 49.5458 45.0313 50.25C45.0313 50.9542 45.1104 51.4854 45.2688 51.8437C45.4271 52.1979 45.675 52.375 46.0125 52.375C46.3625 52.375 46.6229 52.2 46.7938 51.85C46.9646 51.4958 47.05 50.9625 47.05 50.25C47.05 49.55 46.9646 49.025 46.7938 48.675C46.6271 48.3208 46.3667 48.1437 46.0125 48.1437Z" fill="black"/>
  <line x1="56" y1="300.5" x2="522" y2="300.5" stroke="black"/>
  <path d="M73.6688 311.419C73.6688 312.16 73.6125 312.823 73.5 313.406C73.3875 313.99 73.2104 314.483 72.9688 314.887C72.7271 315.292 72.4146 315.6 72.0313 315.812C71.6479 316.021 71.1875 316.125 70.65 316.125C69.9708 316.125 69.4083 315.94 68.9625 315.569C68.5208 315.198 68.1896 314.662 67.9688 313.962C67.7521 313.258 67.6438 312.41 67.6438 311.419C67.6438 310.444 67.7417 309.606 67.9375 308.906C68.1375 308.202 68.4583 307.662 68.9 307.287C69.3417 306.908 69.925 306.719 70.65 306.719C71.3375 306.719 71.9042 306.906 72.35 307.281C72.7958 307.652 73.1271 308.19 73.3438 308.894C73.5604 309.594 73.6688 310.435 73.6688 311.419ZM68.6875 311.419C68.6875 312.269 68.7521 312.977 68.8813 313.544C69.0104 314.11 69.2188 314.535 69.5063 314.819C69.7979 315.098 70.1792 315.237 70.65 315.237C71.1208 315.237 71.5 315.098 71.7875 314.819C72.0792 314.54 72.2896 314.117 72.4188 313.55C72.5521 312.983 72.6188 312.273 72.6188 311.419C72.6188 310.581 72.5542 309.881 72.425 309.319C72.2958 308.752 72.0875 308.327 71.8 308.044C71.5125 307.756 71.1292 307.612 70.65 307.612C70.1708 307.612 69.7875 307.756 69.5 308.044C69.2125 308.327 69.0042 308.752 68.875 309.319C68.75 309.881 68.6875 310.581 68.6875 311.419Z" fill="black"/>
  <path d="M173.813 316L177.563 307.812H172.581V306.862H178.675V307.662L174.95 316H173.813Z" fill="black"/>
  <path d="M281.494 316H280.481V309.525C280.481 309.279 280.481 309.069 280.481 308.894C280.485 308.715 280.49 308.552 280.494 308.406C280.502 308.256 280.513 308.104 280.525 307.95C280.396 308.083 280.275 308.198 280.163 308.294C280.05 308.385 279.91 308.5 279.744 308.637L278.7 309.475L278.156 308.769L280.631 306.862H281.494V316ZM291.4 313.881H290.031V316H289.019V313.881H284.6V313.006L288.95 306.812H290.031V312.944H291.4V313.881ZM289.019 312.944V309.956C289.019 309.727 289.021 309.521 289.025 309.337C289.029 309.15 289.035 308.977 289.044 308.819C289.052 308.656 289.058 308.502 289.063 308.356C289.071 308.21 289.077 308.067 289.081 307.925H289.031C288.952 308.092 288.86 308.269 288.756 308.456C288.656 308.64 288.554 308.804 288.45 308.95L285.631 312.944H289.019Z" fill="black"/>
  <path d="M395.619 316H389.631V315.131L392.075 312.65C392.529 312.192 392.91 311.783 393.219 311.425C393.531 311.067 393.769 310.715 393.931 310.369C394.094 310.019 394.175 309.635 394.175 309.219C394.175 308.702 394.021 308.308 393.713 308.037C393.408 307.762 393.006 307.625 392.506 307.625C392.069 307.625 391.681 307.7 391.344 307.85C391.006 308 390.66 308.212 390.306 308.487L389.75 307.787C389.992 307.583 390.254 307.402 390.538 307.244C390.825 307.085 391.131 306.96 391.456 306.869C391.785 306.777 392.135 306.731 392.506 306.731C393.069 306.731 393.554 306.829 393.963 307.025C394.371 307.221 394.685 307.5 394.906 307.862C395.131 308.225 395.244 308.656 395.244 309.156C395.244 309.64 395.148 310.09 394.956 310.506C394.765 310.919 394.496 311.329 394.15 311.737C393.804 312.142 393.4 312.571 392.938 313.025L390.95 315.006V315.05H395.619V316ZM400.819 316H399.806V309.525C399.806 309.279 399.806 309.069 399.806 308.894C399.81 308.715 399.815 308.552 399.819 308.406C399.827 308.256 399.838 308.104 399.85 307.95C399.721 308.083 399.6 308.198 399.488 308.294C399.375 308.385 399.235 308.5 399.069 308.637L398.025 309.475L397.481 308.769L399.956 306.862H400.819V316Z" fill="black"/>
  <path d="M507.619 317H501.631V316.131L504.075 313.65C504.529 313.192 504.91 312.783 505.219 312.425C505.531 312.067 505.769 311.715 505.931 311.369C506.094 311.019 506.175 310.635 506.175 310.219C506.175 309.702 506.021 309.308 505.713 309.037C505.408 308.762 505.006 308.625 504.506 308.625C504.069 308.625 503.681 308.7 503.344 308.85C503.006 309 502.66 309.212 502.306 309.487L501.75 308.787C501.992 308.583 502.254 308.402 502.538 308.244C502.825 308.085 503.131 307.96 503.456 307.869C503.785 307.777 504.135 307.731 504.506 307.731C505.069 307.731 505.554 307.829 505.963 308.025C506.371 308.221 506.685 308.5 506.906 308.862C507.131 309.225 507.244 309.656 507.244 310.156C507.244 310.64 507.148 311.09 506.956 311.506C506.765 311.919 506.496 312.329 506.15 312.737C505.804 313.142 505.4 313.571 504.938 314.025L502.95 316.006V316.05H507.619V317ZM511.975 307.731C512.504 307.731 512.973 307.815 513.381 307.981C513.79 308.148 514.108 308.394 514.338 308.719C514.571 309.04 514.688 309.435 514.688 309.906C514.688 310.277 514.606 310.602 514.444 310.881C514.285 311.156 514.071 311.398 513.8 311.606C513.529 311.81 513.229 311.994 512.9 312.156C513.292 312.335 513.644 312.537 513.956 312.762C514.273 312.987 514.523 313.252 514.706 313.556C514.89 313.86 514.981 314.221 514.981 314.637C514.981 315.15 514.856 315.594 514.606 315.969C514.36 316.34 514.015 316.625 513.569 316.825C513.123 317.025 512.6 317.125 512 317.125C511.354 317.125 510.804 317.029 510.35 316.837C509.9 316.642 509.556 316.362 509.319 316C509.085 315.633 508.969 315.194 508.969 314.681C508.969 314.26 509.058 313.896 509.238 313.587C509.417 313.275 509.654 313.006 509.95 312.781C510.246 312.556 510.569 312.367 510.919 312.212C510.615 312.046 510.335 311.856 510.081 311.644C509.831 311.431 509.631 311.183 509.481 310.9C509.335 310.612 509.263 310.279 509.263 309.9C509.263 309.437 509.379 309.046 509.613 308.725C509.85 308.4 510.173 308.154 510.581 307.987C510.994 307.817 511.458 307.731 511.975 307.731ZM509.988 314.687C509.988 315.154 510.152 315.54 510.481 315.844C510.81 316.144 511.308 316.294 511.975 316.294C512.608 316.294 513.098 316.144 513.444 315.844C513.79 315.54 513.963 315.142 513.963 314.65C513.963 314.346 513.883 314.079 513.725 313.85C513.567 313.617 513.342 313.408 513.05 313.225C512.758 313.042 512.415 312.875 512.019 312.725L511.794 312.644C511.41 312.802 511.083 312.979 510.813 313.175C510.546 313.367 510.342 313.585 510.2 313.831C510.058 314.077 509.988 314.362 509.988 314.687ZM511.963 308.581C511.471 308.581 511.069 308.7 510.756 308.937C510.444 309.171 510.288 309.508 510.288 309.95C510.288 310.267 510.363 310.535 510.513 310.756C510.667 310.973 510.875 311.16 511.138 311.319C511.4 311.473 511.694 311.617 512.019 311.75C512.335 311.617 512.617 311.471 512.863 311.312C513.108 311.15 513.302 310.958 513.444 310.737C513.585 310.517 513.656 310.252 513.656 309.944C513.656 309.502 513.5 309.165 513.188 308.931C512.879 308.698 512.471 308.581 511.963 308.581Z" fill="black"/>
  <path d="M46.5063 311.344C46.5063 312.373 46.3188 313.233 45.9438 313.925C45.5688 314.612 45.025 315.131 44.3125 315.481C43.6042 315.827 42.7438 316 41.7313 316H39.25V306.862H42.0063C42.9354 306.862 43.7354 307.033 44.4063 307.375C45.0771 307.712 45.5938 308.215 45.9563 308.881C46.3229 309.544 46.5063 310.365 46.5063 311.344ZM45.3875 311.381C45.3875 310.56 45.25 309.883 44.975 309.35C44.7042 308.817 44.3042 308.421 43.775 308.162C43.25 307.9 42.6063 307.769 41.8438 307.769H40.3125V315.087H41.6063C42.8646 315.087 43.8083 314.777 44.4375 314.156C45.0708 313.535 45.3875 312.61 45.3875 311.381ZM49.4188 316H48.3813V309.15H49.4188V316ZM50.7125 306.194V306.319C50.6292 306.44 50.5146 306.585 50.3688 306.756C50.2271 306.923 50.0688 307.1 49.8938 307.287C49.7188 307.471 49.5417 307.646 49.3625 307.812C49.1875 307.979 49.025 308.123 48.875 308.244H48.1813V308.094C48.3146 307.935 48.4604 307.746 48.6188 307.525C48.7771 307.3 48.9313 307.071 49.0813 306.837C49.2313 306.6 49.3563 306.385 49.4563 306.194H50.7125ZM54.1813 309.037C54.9979 309.037 55.6042 309.221 56 309.587C56.3958 309.954 56.5938 310.54 56.5938 311.344V316H55.8375L55.6375 314.987H55.5875C55.3958 315.237 55.1958 315.448 54.9875 315.619C54.7792 315.785 54.5375 315.912 54.2625 316C53.9917 316.083 53.6583 316.125 53.2625 316.125C52.8458 316.125 52.475 316.052 52.15 315.906C51.8292 315.76 51.575 315.54 51.3875 315.244C51.2042 314.948 51.1125 314.573 51.1125 314.119C51.1125 313.435 51.3833 312.91 51.925 312.544C52.4667 312.177 53.2917 311.977 54.4 311.944L55.5813 311.894V311.475C55.5813 310.883 55.4542 310.469 55.2 310.231C54.9458 309.994 54.5875 309.875 54.125 309.875C53.7667 309.875 53.425 309.927 53.1 310.031C52.775 310.135 52.4667 310.258 52.175 310.4L51.8563 309.612C52.1646 309.454 52.5188 309.319 52.9188 309.206C53.3188 309.094 53.7396 309.037 54.1813 309.037ZM55.5688 312.625L54.525 312.669C53.6708 312.702 53.0688 312.842 52.7188 313.087C52.3688 313.333 52.1938 313.681 52.1938 314.131C52.1938 314.523 52.3125 314.812 52.55 315C52.7875 315.187 53.1021 315.281 53.4938 315.281C54.1021 315.281 54.6 315.112 54.9875 314.775C55.375 314.437 55.5688 313.931 55.5688 313.256V312.625ZM63.1625 314.125C63.1625 314.562 63.0521 314.931 62.8313 315.231C62.6146 315.527 62.3021 315.75 61.8938 315.9C61.4896 316.05 61.0063 316.125 60.4438 316.125C59.9646 316.125 59.55 316.088 59.2 316.013C58.85 315.937 58.5438 315.831 58.2813 315.694V314.737C58.5604 314.875 58.8938 315 59.2813 315.112C59.6688 315.225 60.0646 315.281 60.4688 315.281C61.0604 315.281 61.4896 315.185 61.7563 314.994C62.0229 314.802 62.1563 314.542 62.1563 314.212C62.1563 314.025 62.1021 313.86 61.9938 313.719C61.8896 313.573 61.7125 313.433 61.4625 313.3C61.2125 313.162 60.8667 313.012 60.425 312.85C59.9875 312.683 59.6083 312.519 59.2875 312.356C58.9708 312.19 58.725 311.987 58.55 311.75C58.3792 311.512 58.2938 311.204 58.2938 310.825C58.2938 310.246 58.5271 309.802 58.9938 309.494C59.4646 309.181 60.0813 309.025 60.8438 309.025C61.2563 309.025 61.6417 309.067 62 309.15C62.3625 309.229 62.7 309.337 63.0125 309.475L62.6625 310.306C62.3792 310.185 62.0771 310.083 61.7563 310C61.4354 309.917 61.1083 309.875 60.775 309.875C60.2958 309.875 59.9271 309.954 59.6688 310.112C59.4146 310.271 59.2875 310.487 59.2875 310.762C59.2875 310.975 59.3458 311.15 59.4625 311.287C59.5833 311.425 59.775 311.554 60.0375 311.675C60.3 311.796 60.6458 311.937 61.075 312.1C61.5042 312.258 61.875 312.423 62.1875 312.594C62.5 312.76 62.7396 312.965 62.9063 313.206C63.0771 313.444 63.1625 313.75 63.1625 314.125Z" fill="black"/>
  </svg>  