<svg width="38" height="38" viewBox="0 0 38 38" fill="none" xmlns="http://www.w3.org/2000/svg">
<path d="M19.0003 0.666748C8.88033 0.666748 0.666992 8.88008 0.666992 19.0001C0.666992 29.1201 8.88033 37.3334 19.0003 37.3334C29.1203 37.3334 37.3337 29.1201 37.3337 19.0001C37.3337 8.88008 29.1203 0.666748 19.0003 0.666748ZM19.0003 6.16675C22.0437 6.16675 24.5003 8.62341 24.5003 11.6667C24.5003 14.7101 22.0437 17.1667 19.0003 17.1667C15.957 17.1667 13.5003 14.7101 13.5003 11.6667C13.5003 8.62341 15.957 6.16675 19.0003 6.16675ZM19.0003 32.2001C14.417 32.2001 10.3653 29.8534 8.00033 26.2967C8.05533 22.6484 15.3337 20.6501 19.0003 20.6501C22.6487 20.6501 29.9453 22.6484 30.0003 26.2967C27.6353 29.8534 23.5837 32.2001 19.0003 32.2001Z" fill="#D9D9D9"/>
</svg>
