<svg width="60" height="60" viewBox="0 0 60 60" fill="none" xmlns="http://www.w3.org/2000/svg">
  <path
    d="M24.375 9.375H13.125C12.1304 9.375 11.1766 9.77009 10.4733 10.4733C9.77009 11.1766 9.375 12.1304 9.375 13.125V24.375C9.375 25.3696 9.77009 26.3234 10.4733 27.0266C11.1766 27.7299 12.1304 28.125 13.125 28.125H24.375C25.3696 28.125 26.3234 27.7299 27.0266 27.0266C27.7299 26.3234 28.125 25.3696 28.125 24.375V13.125C28.125 12.1304 27.7299 11.1766 27.0266 10.4733C26.3234 9.77009 25.3696 9.375 24.375 9.375ZM24.375 24.375H13.125V13.125H24.375V24.375ZM24.375 31.875H13.125C12.1304 31.875 11.1766 32.2701 10.4733 32.9734C9.77009 33.6766 9.375 34.6304 9.375 35.625V46.875C9.375 47.8696 9.77009 48.8234 10.4733 49.5266C11.1766 50.2299 12.1304 50.625 13.125 50.625H24.375C25.3696 50.625 26.3234 50.2299 27.0266 49.5266C27.7299 48.8234 28.125 47.8696 28.125 46.875V35.625C28.125 34.6304 27.7299 33.6766 27.0266 32.9734C26.3234 32.2701 25.3696 31.875 24.375 31.875ZM24.375 46.875H13.125V35.625H24.375V46.875ZM46.875 9.375H35.625C34.6304 9.375 33.6766 9.77009 32.9734 10.4733C32.2701 11.1766 31.875 12.1304 31.875 13.125V24.375C31.875 25.3696 32.2701 26.3234 32.9734 27.0266C33.6766 27.7299 34.6304 28.125 35.625 28.125H46.875C47.8696 28.125 48.8234 27.7299 49.5266 27.0266C50.2299 26.3234 50.625 25.3696 50.625 24.375V13.125C50.625 12.1304 50.2299 11.1766 49.5266 10.4733C48.8234 9.77009 47.8696 9.375 46.875 9.375ZM46.875 24.375H35.625V13.125H46.875V24.375ZM31.875 41.25V33.75C31.875 33.2527 32.0725 32.7758 32.4242 32.4242C32.7758 32.0725 33.2527 31.875 33.75 31.875C34.2473 31.875 34.7242 32.0725 35.0758 32.4242C35.4275 32.7758 35.625 33.2527 35.625 33.75V41.25C35.625 41.7473 35.4275 42.2242 35.0758 42.5758C34.7242 42.9275 34.2473 43.125 33.75 43.125C33.2527 43.125 32.7758 42.9275 32.4242 42.5758C32.0725 42.2242 31.875 41.7473 31.875 41.25ZM50.625 37.5C50.625 37.9973 50.4275 38.4742 50.0758 38.8258C49.7242 39.1775 49.2473 39.375 48.75 39.375H43.125V48.75C43.125 49.2473 42.9275 49.7242 42.5758 50.0758C42.2242 50.4275 41.7473 50.625 41.25 50.625H33.75C33.2527 50.625 32.7758 50.4275 32.4242 50.0758C32.0725 49.7242 31.875 49.2473 31.875 48.75C31.875 48.2527 32.0725 47.7758 32.4242 47.4242C32.7758 47.0725 33.2527 46.875 33.75 46.875H39.375V33.75C39.375 33.2527 39.5725 32.7758 39.9242 32.4242C40.2758 32.0725 40.7527 31.875 41.25 31.875C41.7473 31.875 42.2242 32.0725 42.5758 32.4242C42.9275 32.7758 43.125 33.2527 43.125 33.75V35.625H48.75C49.2473 35.625 49.7242 35.8225 50.0758 36.1742C50.4275 36.5258 50.625 37.0027 50.625 37.5ZM50.625 45V48.75C50.625 49.2473 50.4275 49.7242 50.0758 50.0758C49.7242 50.4275 49.2473 50.625 48.75 50.625C48.2527 50.625 47.7758 50.4275 47.4242 50.0758C47.0725 49.7242 46.875 49.2473 46.875 48.75V45C46.875 44.5027 47.0725 44.0258 47.4242 43.6742C47.7758 43.3225 48.2527 43.125 48.75 43.125C49.2473 43.125 49.7242 43.3225 50.0758 43.6742C50.4275 44.0258 50.625 44.5027 50.625 45Z"
    fill="black" />
</svg>