<svg width="74" height="90" viewBox="0 0 74 90" fill="none" xmlns="http://www.w3.org/2000/svg">
  <g clip-path="url(#clip0_218_174)">
    <path
      d="M44.6367 9.9H43.3126V6.1875C43.3126 6.1875 43.3126 0 37.1251 0C30.9376 0 30.9376 6.1875 30.9376 6.1875V9.9H29.6135C28.98 9.9 28.3725 10.1516 27.9246 10.5995C27.4767 11.0474 27.2251 11.6549 27.2251 12.2884V22.374C27.2284 23.0053 27.4814 23.6096 27.929 24.0548C28.3765 24.5001 28.9822 24.75 29.6135 24.75H44.6367C45.2702 24.75 45.8777 24.4984 46.3256 24.0505C46.7735 23.6026 47.0251 22.9951 47.0251 22.3616V12.2884C47.0251 11.6549 46.7735 11.0474 46.3256 10.5995C45.8777 10.1516 45.2702 9.9 44.6367 9.9ZM33.4126 6.80625C33.4126 4.95 33.4126 2.475 37.1251 2.475C40.8376 2.475 40.8376 4.95 40.8376 6.80625V9.9H33.4126V6.80625ZM37.1251 19.8C36.6356 19.8 36.1571 19.6548 35.7501 19.3829C35.3431 19.1109 35.0258 18.7244 34.8385 18.2721C34.6512 17.8199 34.6022 17.3223 34.6977 16.8422C34.7932 16.362 35.0289 15.921 35.375 15.5749C35.7211 15.2288 36.1621 14.9931 36.6422 14.8976C37.1224 14.8021 37.62 14.8511 38.0722 15.0384C38.5245 15.2257 38.911 15.543 39.183 15.95C39.4549 16.357 39.6001 16.8355 39.6001 17.325C39.6001 17.9814 39.3393 18.6109 38.8752 19.0751C38.411 19.5392 37.7815 19.8 37.1251 19.8Z"
      fill="#0345B0" />
  </g>
  <path
    d="M7.24765 44.8372C7.24765 45.4323 7.10345 45.9496 6.81506 46.389C6.52667 46.8285 6.10553 47.1672 5.55164 47.4053C5.00232 47.6433 4.33398 47.7623 3.54663 47.7623C3.19873 47.7623 2.8577 47.7394 2.52353 47.6937C2.19394 47.6479 1.87579 47.5815 1.56909 47.4945C1.26697 47.403 0.978577 47.2908 0.703918 47.1581V45.1805C1.17999 45.3911 1.67438 45.5811 2.18707 45.7505C2.69977 45.9198 3.20789 46.0045 3.71143 46.0045C4.05933 46.0045 4.33856 45.9587 4.54913 45.8672C4.76428 45.7756 4.91992 45.6497 5.01605 45.4895C5.11218 45.3293 5.16025 45.1462 5.16025 44.9402C5.16025 44.6884 5.07556 44.4733 4.90619 44.2948C4.73682 44.1162 4.50336 43.9492 4.20581 43.7935C3.91284 43.6379 3.58096 43.4708 3.21017 43.2923C2.97672 43.1824 2.72266 43.0497 2.448 42.894C2.17334 42.7338 1.91241 42.5392 1.66522 42.3104C1.41803 42.0815 1.21432 41.8045 1.05411 41.4795C0.898468 41.1499 0.820648 40.7563 0.820648 40.2985C0.820648 39.6988 0.957977 39.1861 1.23264 38.7604C1.50729 38.3347 1.89868 38.0097 2.4068 37.7854C2.91949 37.5565 3.52374 37.442 4.21954 37.442C4.74139 37.442 5.23807 37.5038 5.70956 37.6274C6.18564 37.7465 6.68231 37.9204 7.19958 38.1493L6.51294 39.8041C6.0506 39.6164 5.63632 39.4722 5.27011 39.3715C4.9039 39.2662 4.53082 39.2136 4.15088 39.2136C3.88538 39.2136 3.65878 39.2571 3.4711 39.3441C3.28342 39.4265 3.14151 39.5455 3.04538 39.7011C2.94925 39.8522 2.90118 40.0284 2.90118 40.2298C2.90118 40.4679 2.96985 40.6693 3.10718 40.8341C3.24908 40.9943 3.45966 41.1499 3.73889 41.301C4.02271 41.4521 4.37518 41.6283 4.79633 41.8297C5.30902 42.0723 5.74619 42.3264 6.10782 42.5919C6.47403 42.8528 6.75555 43.1618 6.95239 43.5189C7.14923 43.8713 7.24765 44.3108 7.24765 44.8372ZM12.0679 39.8041C12.7774 39.8041 13.3885 39.9414 13.9012 40.2161C14.4139 40.4862 14.8099 40.8799 15.0891 41.3971C15.3684 41.9144 15.508 42.5461 15.508 43.2923V44.3085H10.5573C10.5802 44.899 10.7564 45.3636 11.086 45.7024C11.4202 46.0366 11.8825 46.2036 12.473 46.2036C12.9628 46.2036 13.4114 46.1533 13.8188 46.0526C14.2263 45.9519 14.6451 45.8008 15.0754 45.5994V47.2199C14.6955 47.4076 14.2972 47.5449 13.8806 47.6319C13.4687 47.7188 12.9674 47.7623 12.3769 47.7623C11.6078 47.7623 10.9258 47.6204 10.3307 47.3366C9.74017 47.0528 9.27554 46.6202 8.9368 46.0388C8.60263 45.4575 8.43555 44.7251 8.43555 43.8416C8.43555 42.9444 8.58661 42.1982 8.88873 41.6031C9.19543 41.0034 9.62115 40.5548 10.1659 40.2573C10.7106 39.9552 11.3446 39.8041 12.0679 39.8041ZM12.0816 41.2941C11.6742 41.2941 11.3355 41.4246 11.0654 41.6855C10.7999 41.9464 10.6465 42.3561 10.6053 42.9146H13.5442C13.5396 42.6033 13.4824 42.3264 13.3725 42.0838C13.2672 41.8412 13.107 41.6489 12.8919 41.507C12.6813 41.3651 12.4112 41.2941 12.0816 41.2941ZM19.4562 51.0033C18.385 51.0033 17.5656 50.8156 16.998 50.4402C16.435 50.0695 16.1534 49.5476 16.1534 48.8747C16.1534 48.4124 16.2976 48.0255 16.586 47.7143C16.8744 47.403 17.2979 47.181 17.8563 47.0482C17.6412 46.9567 17.4535 46.8079 17.2933 46.6019C17.1331 46.3913 17.0529 46.1693 17.0529 45.9359C17.0529 45.6429 17.1376 45.4003 17.307 45.208C17.4764 45.0112 17.7213 44.8189 18.0417 44.6312C17.6389 44.4573 17.3185 44.178 17.0804 43.7935C16.847 43.409 16.7302 42.9558 16.7302 42.434C16.7302 41.8755 16.8515 41.4017 17.0941 41.0126C17.3413 40.6189 17.6984 40.3191 18.1653 40.1131C18.6368 39.9071 19.209 39.8041 19.8819 39.8041C20.0238 39.8041 20.1886 39.8133 20.3763 39.8316C20.564 39.8499 20.7357 39.8705 20.8913 39.8934C21.0515 39.9163 21.1591 39.9346 21.214 39.9483H23.8919V41.0126L22.6903 41.3216C22.8002 41.491 22.8826 41.6718 22.9375 41.864C22.9924 42.0563 23.0199 42.26 23.0199 42.4752C23.0199 43.2991 22.7315 43.9423 22.1547 44.4046C21.5825 44.8624 20.786 45.0913 19.7652 45.0913C19.5226 45.0775 19.2937 45.0592 19.0786 45.0363C18.9733 45.1187 18.8932 45.2057 18.8382 45.2973C18.7833 45.3888 18.7558 45.485 18.7558 45.5857C18.7558 45.6864 18.797 45.7711 18.8794 45.8397C18.9664 45.9038 19.0946 45.9542 19.2639 45.9908C19.4379 46.0228 19.653 46.0388 19.9094 46.0388H21.214C22.0563 46.0388 22.6972 46.2197 23.1366 46.5813C23.5807 46.9429 23.8027 47.4739 23.8027 48.1743C23.8027 49.0715 23.4273 49.7673 22.6766 50.2617C21.9304 50.7561 20.857 51.0033 19.4562 51.0033ZM19.5455 49.6369C20.0444 49.6369 20.4724 49.5888 20.8295 49.4927C21.1911 49.4011 21.4681 49.2684 21.6603 49.0944C21.8526 48.925 21.9487 48.7213 21.9487 48.4833C21.9487 48.291 21.8915 48.1377 21.7771 48.0233C21.6672 47.9134 21.4978 47.8356 21.269 47.7898C21.0446 47.744 20.7563 47.7211 20.4038 47.7211H19.3189C19.0625 47.7211 18.8314 47.7623 18.6254 47.8447C18.424 47.9271 18.2637 48.0416 18.1447 48.188C18.0257 48.3391 17.9662 48.5131 17.9662 48.7099C17.9662 48.9983 18.1035 49.2249 18.3782 49.3897C18.6574 49.5545 19.0465 49.6369 19.5455 49.6369ZM19.8819 43.8141C20.2756 43.8141 20.564 43.6928 20.7471 43.4502C20.9302 43.2076 21.0218 42.878 21.0218 42.4614C21.0218 41.9991 20.9256 41.6535 20.7334 41.4246C20.5457 41.1911 20.2619 41.0744 19.8819 41.0744C19.4974 41.0744 19.209 41.1911 19.0168 41.4246C18.8245 41.6535 18.7284 41.9991 18.7284 42.4614C18.7284 42.878 18.8222 43.2076 19.0099 43.4502C19.2021 43.6928 19.4928 43.8141 19.8819 43.8141ZM32.2072 39.9483V47.625H30.6005L30.3189 46.6431H30.2091C30.0443 46.904 29.8383 47.1169 29.5911 47.2817C29.3439 47.4465 29.0715 47.5678 28.774 47.6456C28.4764 47.7234 28.1674 47.7623 27.847 47.7623C27.2977 47.7623 26.8193 47.6662 26.4119 47.4739C26.0045 47.2771 25.6864 46.9727 25.4575 46.5607C25.2332 46.1487 25.121 45.6131 25.121 44.9539V39.9483H27.2153V44.4321C27.2153 44.9814 27.3137 45.3957 27.5106 45.6749C27.7074 45.9542 28.021 46.0938 28.4513 46.0938C28.877 46.0938 29.2112 45.9977 29.4538 45.8054C29.6964 45.6086 29.8658 45.3224 29.9619 44.9471C30.0626 44.5671 30.1129 44.1048 30.1129 43.5601V39.9483H32.2072ZM38.6891 39.8041C38.7944 39.8041 38.9157 39.811 39.0531 39.8247C39.195 39.8339 39.3094 39.8476 39.3964 39.8659L39.2385 41.8297C39.1698 41.8068 39.0714 41.7908 38.9432 41.7816C38.8196 41.7679 38.712 41.761 38.6205 41.761C38.3504 41.761 38.0872 41.7954 37.8308 41.864C37.5791 41.9327 37.3525 42.0449 37.1511 42.2005C36.9496 42.3516 36.7894 42.553 36.6704 42.8047C36.556 43.0519 36.4987 43.3564 36.4987 43.718V47.625H34.4045V39.9483H35.9906L36.2996 41.2392H36.4026C36.5537 40.9783 36.7414 40.7402 36.9657 40.5251C37.1945 40.3054 37.4532 40.1314 37.7416 40.0032C38.0345 39.8705 38.3504 39.8041 38.6891 39.8041ZM42.8846 39.9483V47.625H40.7903V39.9483H42.8846ZM41.8409 36.9408C42.1521 36.9408 42.4199 37.014 42.6442 37.1605C42.8685 37.3024 42.9807 37.5702 42.9807 37.9639C42.9807 38.353 42.8685 38.6231 42.6442 38.7741C42.4199 38.9206 42.1521 38.9939 41.8409 38.9939C41.525 38.9939 41.2549 38.9206 41.0306 38.7741C40.8109 38.6231 40.701 38.353 40.701 37.9639C40.701 37.5702 40.8109 37.3024 41.0306 37.1605C41.2549 37.014 41.525 36.9408 41.8409 36.9408ZM47.5194 47.7623C46.6634 47.7623 45.9653 47.4282 45.4251 46.7598C44.8896 46.0869 44.6218 45.1004 44.6218 43.8004C44.6218 42.4866 44.8941 41.4933 45.4389 40.8203C45.9836 40.1429 46.6954 39.8041 47.5743 39.8041C47.9406 39.8041 48.2633 39.8545 48.5425 39.9552C48.8217 40.0559 49.0621 40.1909 49.2635 40.3603C49.4695 40.5297 49.6434 40.7196 49.7853 40.9302H49.854C49.8265 40.7837 49.7922 40.5686 49.751 40.2848C49.7144 39.9964 49.6961 39.7011 49.6961 39.399V36.9408H51.7972V47.625H50.1905L49.7853 46.6294H49.6961C49.5633 46.8399 49.3962 47.0322 49.1948 47.2061C48.998 47.3755 48.7622 47.5106 48.4876 47.6113C48.2129 47.712 47.8902 47.7623 47.5194 47.7623ZM48.2541 46.0938C48.8263 46.0938 49.2292 45.9244 49.4626 45.5857C49.7007 45.2423 49.8265 44.7274 49.8403 44.0407V43.8141C49.8403 43.068 49.7258 42.498 49.4969 42.1044C49.2681 41.7061 48.8423 41.507 48.2198 41.507C47.7574 41.507 47.3958 41.7061 47.1349 42.1044C46.874 42.5026 46.7435 43.0771 46.7435 43.8279C46.7435 44.5786 46.874 45.1439 47.1349 45.5239C47.4004 45.9038 47.7735 46.0938 48.2541 46.0938ZM57.1324 39.7904C58.1624 39.7904 58.9521 40.0147 59.5014 40.4633C60.0507 40.9119 60.3253 41.594 60.3253 42.5095V47.625H58.8628L58.4577 46.5813H58.4027C58.183 46.856 57.9587 47.0803 57.7298 47.2542C57.5009 47.4282 57.2377 47.5563 56.9402 47.6387C56.6426 47.7211 56.281 47.7623 55.8553 47.7623C55.4021 47.7623 54.9947 47.6754 54.6331 47.5014C54.276 47.3275 53.9945 47.062 53.7885 46.7049C53.5825 46.3433 53.4795 45.8855 53.4795 45.3316C53.4795 44.5168 53.7656 43.9171 54.3378 43.5326C54.91 43.1435 55.7683 42.9283 56.9127 42.8871L58.2448 42.8459V42.5095C58.2448 42.1067 58.1395 41.8114 57.929 41.6237C57.7184 41.436 57.4254 41.3422 57.05 41.3422C56.6793 41.3422 56.3153 41.3948 55.9583 41.5001C55.6012 41.6054 55.2442 41.7382 54.8871 41.8984L54.1936 40.4839C54.601 40.2687 55.0565 40.0994 55.56 39.9758C56.0681 39.8522 56.5923 39.7904 57.1324 39.7904ZM58.2448 44.0682L57.4346 44.0956C56.7571 44.114 56.2856 44.2353 56.0201 44.4596C55.7592 44.6839 55.6287 44.9791 55.6287 45.3453C55.6287 45.6658 55.7225 45.8947 55.9102 46.032C56.0979 46.1647 56.3428 46.2311 56.6449 46.2311C57.0935 46.2311 57.4712 46.0984 57.7779 45.8329C58.0892 45.5674 58.2448 45.1897 58.2448 44.6999V44.0682ZM64.919 47.7623C64.063 47.7623 63.3649 47.4282 62.8247 46.7598C62.2892 46.0869 62.0214 45.1004 62.0214 43.8004C62.0214 42.4866 62.2937 41.4933 62.8385 40.8203C63.3832 40.1429 64.095 39.8041 64.9739 39.8041C65.3401 39.8041 65.6629 39.8545 65.9421 39.9552C66.2213 40.0559 66.4617 40.1909 66.6631 40.3603C66.8691 40.5297 67.043 40.7196 67.1849 40.9302H67.2536C67.2261 40.7837 67.1918 40.5686 67.1506 40.2848C67.114 39.9964 67.0957 39.7011 67.0957 39.399V36.9408H69.1968V47.625H67.5901L67.1849 46.6294H67.0957C66.9629 46.8399 66.7958 47.0322 66.5944 47.2061C66.3976 47.3755 66.1618 47.5106 65.8872 47.6113C65.6125 47.712 65.2898 47.7623 64.919 47.7623ZM65.6537 46.0938C66.2259 46.0938 66.6288 45.9244 66.8622 45.5857C67.1003 45.2423 67.2261 44.7274 67.2399 44.0407V43.8141C67.2399 43.068 67.1254 42.498 66.8965 42.1044C66.6677 41.7061 66.2419 41.507 65.6194 41.507C65.157 41.507 64.7954 41.7061 64.5345 42.1044C64.2736 42.5026 64.1431 43.0771 64.1431 43.8279C64.1431 44.5786 64.2736 45.1439 64.5345 45.5239C64.8 45.9038 65.1731 46.0938 65.6537 46.0938ZM32.9969 58.9483H35.2903L36.7391 63.2673C36.7849 63.4046 36.8238 63.5443 36.8558 63.6862C36.8878 63.8281 36.9153 63.9745 36.9382 64.1256C36.9611 64.2767 36.9794 64.4346 36.9931 64.5994H37.0343C37.0618 64.3522 37.0984 64.121 37.1442 63.9059C37.1945 63.6907 37.2563 63.4779 37.3296 63.2673L38.7509 58.9483H40.9963L37.7484 67.6069C37.5516 68.1379 37.2953 68.5797 36.9794 68.9321C36.6635 69.2892 36.2996 69.557 35.8876 69.7355C35.4802 69.914 35.0316 70.0033 34.5418 70.0033C34.3038 70.0033 34.0978 69.9896 33.9238 69.9621C33.7499 69.9392 33.6011 69.914 33.4775 69.8866V68.2249C33.5736 68.2478 33.6949 68.2684 33.8414 68.2867C33.9879 68.305 34.1413 68.3141 34.3015 68.3141C34.5945 68.3141 34.8462 68.2523 35.0568 68.1288C35.2674 68.0052 35.4436 67.8381 35.5855 67.6275C35.7274 67.4215 35.8396 67.1949 35.922 66.9477L36.0456 66.5701L32.9969 58.9483ZM5.40744 77.8041C6.27261 77.8041 6.9707 78.1406 7.50171 78.8135C8.03729 79.4864 8.30508 80.4729 8.30508 81.7729C8.30508 82.6427 8.1792 83.3751 7.92743 83.9702C7.67566 84.5607 7.32776 85.007 6.88373 85.3091C6.4397 85.6113 5.92929 85.7623 5.35251 85.7623C4.98172 85.7623 4.66357 85.7166 4.39807 85.625C4.13257 85.5289 3.90598 85.4076 3.71829 85.2611C3.53061 85.11 3.3681 84.9498 3.23077 84.7804H3.12091C3.15753 84.9635 3.185 85.1512 3.20331 85.3435C3.22162 85.5357 3.23077 85.7234 3.23077 85.9065V89.0033H1.13651V77.9483H2.83939L3.13464 78.9439H3.23077C3.3681 78.7379 3.53519 78.548 3.73203 78.374C3.92886 78.2001 4.16461 78.0627 4.43927 77.962C4.71851 77.8568 5.04123 77.8041 5.40744 77.8041ZM4.73453 79.4795C4.36832 79.4795 4.07764 79.5551 3.86249 79.7061C3.64734 79.8572 3.48941 80.0838 3.3887 80.3859C3.29257 80.688 3.23993 81.0703 3.23077 81.5326V81.7592C3.23077 82.2536 3.27655 82.6724 3.3681 83.0157C3.46423 83.3591 3.62216 83.62 3.84189 83.7985C4.06619 83.9771 4.37289 84.0663 4.76199 84.0663C5.08243 84.0663 5.34564 83.9771 5.55164 83.7985C5.75763 83.62 5.91098 83.3591 6.01169 83.0157C6.11697 82.6678 6.16962 82.2444 6.16962 81.7455C6.16962 80.9947 6.05289 80.4294 5.81943 80.0494C5.58597 79.6695 5.22433 79.4795 4.73453 79.4795ZM14.3201 77.8041C14.4254 77.8041 14.5467 77.811 14.684 77.8247C14.8259 77.8339 14.9404 77.8476 15.0273 77.8659L14.8694 79.8297C14.8008 79.8068 14.7023 79.7908 14.5742 79.7816C14.4506 79.7679 14.343 79.761 14.2514 79.761C13.9814 79.761 13.7181 79.7954 13.4618 79.864C13.21 79.9327 12.9834 80.0449 12.782 80.2005C12.5806 80.3516 12.4204 80.553 12.3014 80.8047C12.1869 81.0519 12.1297 81.3564 12.1297 81.718V85.625H10.0354V77.9483H11.6216L11.9306 79.2392H12.0336C12.1846 78.9783 12.3723 78.7402 12.5966 78.5251C12.8255 78.3054 13.0841 78.1314 13.3725 78.0032C13.6655 77.8705 13.9814 77.8041 14.3201 77.8041ZM18.5155 77.9483V85.625H16.4212V77.9483H18.5155ZM17.4718 74.9408C17.7831 74.9408 18.0509 75.014 18.2752 75.1605C18.4995 75.3024 18.6116 75.5702 18.6116 75.9639C18.6116 76.353 18.4995 76.6231 18.2752 76.7741C18.0509 76.9206 17.7831 76.9939 17.4718 76.9939C17.1559 76.9939 16.8859 76.9206 16.6616 76.7741C16.4418 76.6231 16.332 76.353 16.332 75.9639C16.332 75.5702 16.4418 75.3024 16.6616 75.1605C16.8859 75.014 17.1559 74.9408 17.4718 74.9408ZM22.5461 85.625L19.621 77.9483H21.8114L23.2946 82.3222C23.377 82.5786 23.441 82.8487 23.4868 83.1325C23.5372 83.4163 23.5715 83.6703 23.5898 83.8947H23.6447C23.6585 83.652 23.6905 83.3934 23.7409 83.1187C23.7958 82.8441 23.8668 82.5786 23.9537 82.3222L25.43 77.9483H27.6204L24.6953 85.625H22.5461ZM31.8708 77.7904C32.9007 77.7904 33.6904 78.0147 34.2397 78.4633C34.789 78.9119 35.0637 79.594 35.0637 80.5095V85.625H33.6011L33.196 84.5813H33.1411C32.9213 84.856 32.697 85.0803 32.4681 85.2542C32.2393 85.4282 31.976 85.5563 31.6785 85.6387C31.381 85.7211 31.0193 85.7623 30.5936 85.7623C30.1404 85.7623 29.733 85.6754 29.3714 85.5014C29.0143 85.3275 28.7328 85.062 28.5268 84.7049C28.3208 84.3433 28.2178 83.8855 28.2178 83.3316C28.2178 82.5168 28.5039 81.9171 29.0761 81.5326C29.6483 81.1435 30.5066 80.9283 31.651 80.8871L32.9831 80.8459V80.5095C32.9831 80.1067 32.8778 79.8114 32.6673 79.6237C32.4567 79.436 32.1637 79.3422 31.7884 79.3422C31.4176 79.3422 31.0536 79.3948 30.6966 79.5001C30.3395 79.6054 29.9825 79.7382 29.6254 79.8984L28.9319 78.4839C29.3393 78.2687 29.7948 78.0994 30.2983 77.9758C30.8065 77.8522 31.3306 77.7904 31.8708 77.7904ZM32.9831 82.0682L32.1729 82.0956C31.4954 82.114 31.0239 82.2353 30.7584 82.4596C30.4975 82.6839 30.367 82.9791 30.367 83.3453C30.367 83.6658 30.4608 83.8947 30.6485 84.032C30.8362 84.1647 31.0811 84.2311 31.3832 84.2311C31.8318 84.2311 32.2095 84.0984 32.5162 83.8329C32.8275 83.5674 32.9831 83.1897 32.9831 82.6999V82.0682ZM40.344 85.7623C39.5841 85.7623 38.9363 85.625 38.4008 85.3503C37.8652 85.0711 37.4578 84.6408 37.1785 84.0594C36.8993 83.4781 36.7597 82.7342 36.7597 81.8279C36.7597 80.8894 36.9176 80.125 37.2335 79.5345C37.5539 78.9394 37.9956 78.5022 38.5587 78.223C39.1263 77.9437 39.7832 77.8041 40.5294 77.8041C41.0604 77.8041 41.5181 77.8568 41.9026 77.962C42.2917 78.0627 42.6305 78.1841 42.9189 78.326L42.3009 79.9464C41.9713 79.8137 41.6646 79.7061 41.3808 79.6237C41.097 79.5367 40.8132 79.4933 40.5294 79.4933C40.1631 79.4933 39.8587 79.5802 39.6161 79.7542C39.3735 79.9236 39.1927 80.1799 39.0737 80.5232C38.9547 80.8665 38.8951 81.2968 38.8951 81.8141C38.8951 82.3222 38.9592 82.7434 39.0874 83.0775C39.2156 83.4117 39.401 83.6612 39.6436 83.826C39.8862 83.9862 40.1815 84.0663 40.5294 84.0663C40.9642 84.0663 41.351 84.0091 41.6898 83.8947C42.0285 83.7756 42.3581 83.6108 42.6786 83.4003V85.1924C42.3581 85.3938 42.0217 85.538 41.6692 85.625C41.3213 85.7166 40.8795 85.7623 40.344 85.7623ZM46.5581 77.9483V85.625H44.4638V77.9483H46.5581ZM45.5144 74.9408C45.8257 74.9408 46.0935 75.014 46.3178 75.1605C46.5421 75.3024 46.6542 75.5702 46.6542 75.9639C46.6542 76.353 46.5421 76.6231 46.3178 76.7741C46.0935 76.9206 45.8257 76.9939 45.5144 76.9939C45.1985 76.9939 44.9285 76.9206 44.7042 76.7741C44.4844 76.6231 44.3746 76.353 44.3746 75.9639C44.3746 75.5702 44.4844 75.3024 44.7042 75.1605C44.9285 75.014 45.1985 74.9408 45.5144 74.9408ZM51.193 85.7623C50.3369 85.7623 49.6389 85.4282 49.0987 84.7598C48.5631 84.0869 48.2953 83.1004 48.2953 81.8004C48.2953 80.4866 48.5677 79.4933 49.1124 78.8203C49.6572 78.1429 50.369 77.8041 51.2479 77.8041C51.6141 77.8041 51.9368 77.8545 52.2161 77.9552C52.4953 78.0559 52.7356 78.1909 52.937 78.3603C53.143 78.5297 53.317 78.7196 53.4589 78.9302H53.5276C53.5001 78.7837 53.4658 78.5686 53.4246 78.2848C53.3879 77.9964 53.3696 77.7011 53.3696 77.399V74.9408H55.4708V85.625H53.864L53.4589 84.6294H53.3696C53.2369 84.8399 53.0698 85.0322 52.8684 85.2061C52.6715 85.3755 52.4358 85.5106 52.1611 85.6113C51.8865 85.712 51.5638 85.7623 51.193 85.7623ZM51.9277 84.0938C52.4999 84.0938 52.9027 83.9244 53.1362 83.5857C53.3742 83.2423 53.5001 82.7274 53.5138 82.0407V81.8141C53.5138 81.068 53.3994 80.498 53.1705 80.1044C52.9416 79.7061 52.5159 79.507 51.8933 79.507C51.431 79.507 51.0694 79.7061 50.8084 80.1044C50.5475 80.5026 50.4171 81.0771 50.4171 81.8279C50.4171 82.5786 50.5475 83.1439 50.8084 83.5239C51.0739 83.9038 51.447 84.0938 51.9277 84.0938ZM60.806 77.7904C61.836 77.7904 62.6256 78.0147 63.1749 78.4633C63.7242 78.9119 63.9989 79.594 63.9989 80.5095V85.625H62.5363L62.1312 84.5813H62.0763C61.8566 84.856 61.6323 85.0803 61.4034 85.2542C61.1745 85.4282 60.9113 85.5563 60.6137 85.6387C60.3162 85.7211 59.9546 85.7623 59.5288 85.7623C59.0757 85.7623 58.6682 85.6754 58.3066 85.5014C57.9496 85.3275 57.668 85.062 57.462 84.7049C57.256 84.3433 57.153 83.8855 57.153 83.3316C57.153 82.5168 57.4391 81.9171 58.0114 81.5326C58.5836 81.1435 59.4419 80.9283 60.5863 80.8871L61.9184 80.8459V80.5095C61.9184 80.1067 61.8131 79.8114 61.6025 79.6237C61.3919 79.436 61.099 79.3422 60.7236 79.3422C60.3528 79.3422 59.9889 79.3948 59.6318 79.5001C59.2748 79.6054 58.9177 79.7382 58.5607 79.8984L57.8672 78.4839C58.2746 78.2687 58.73 78.0994 59.2336 77.9758C59.7417 77.8522 60.2658 77.7904 60.806 77.7904ZM61.9184 82.0682L61.1081 82.0956C60.4306 82.114 59.9591 82.2353 59.6936 82.4596C59.4327 82.6839 59.3022 82.9791 59.3022 83.3453C59.3022 83.6658 59.3961 83.8947 59.5838 84.032C59.7715 84.1647 60.0164 84.2311 60.3185 84.2311C60.7671 84.2311 61.1447 84.0984 61.4514 83.8329C61.7627 83.5674 61.9184 83.1897 61.9184 82.6999V82.0682ZM68.5926 85.7623C67.7365 85.7623 67.0385 85.4282 66.4983 84.7598C65.9627 84.0869 65.6949 83.1004 65.6949 81.8004C65.6949 80.4866 65.9673 79.4933 66.512 78.8203C67.0568 78.1429 67.7686 77.8041 68.6475 77.8041C69.0137 77.8041 69.3364 77.8545 69.6157 77.9552C69.8949 78.0559 70.1352 78.1909 70.3366 78.3603C70.5426 78.5297 70.7166 78.7196 70.8585 78.9302H70.9272C70.8997 78.7837 70.8654 78.5686 70.8242 78.2848C70.7875 77.9964 70.7692 77.7011 70.7692 77.399V74.9408H72.8704V85.625H71.2636L70.8585 84.6294H70.7692C70.6365 84.8399 70.4694 85.0322 70.268 85.2061C70.0711 85.3755 69.8354 85.5106 69.5607 85.6113C69.2861 85.712 68.9633 85.7623 68.5926 85.7623ZM69.3273 84.0938C69.8995 84.0938 70.3023 83.9244 70.5358 83.5857C70.7738 83.2423 70.8997 82.7274 70.9134 82.0407V81.8141C70.9134 81.068 70.799 80.498 70.5701 80.1044C70.3412 79.7061 69.9155 79.507 69.2929 79.507C68.8306 79.507 68.469 79.7061 68.208 80.1044C67.9471 80.5026 67.8167 81.0771 67.8167 81.8279C67.8167 82.5786 67.9471 83.1439 68.208 83.5239C68.4735 83.9038 68.8466 84.0938 69.3273 84.0938Z"
    fill="black" />
  <defs>
    <clipPath id="clip0_218_174">
      <rect width="24.75" height="24.75" fill="white" transform="translate(24.75)" />
    </clipPath>
  </defs>
</svg>