<svg width="132" height="160" viewBox="0 0 132 160" fill="none" xmlns="http://www.w3.org/2000/svg">
<g clip-path="url(#clip0_69_944)">
<path d="M79.3539 17.6H76.9999V11C76.9999 11 76.9999 0 65.9999 0C54.9999 0 54.9999 11 54.9999 11V17.6H52.6459C51.5198 17.6 50.4398 18.0473 49.6435 18.8436C48.8472 19.6399 48.3999 20.7199 48.3999 21.846V39.776C48.4057 40.8983 48.8556 41.9726 49.6513 42.7642C50.4469 43.5557 51.5236 44 52.6459 44H79.3539C80.48 44 81.56 43.5527 82.3563 42.7564C83.1526 41.9601 83.5999 40.8801 83.5999 39.754V21.846C83.5999 20.7199 83.1526 19.6399 82.3563 18.8436C81.56 18.0473 80.48 17.6 79.3539 17.6ZM59.3999 12.1C59.3999 8.8 59.3999 4.4 65.9999 4.4C72.5999 4.4 72.5999 8.8 72.5999 12.1V17.6H59.3999V12.1ZM65.9999 35.2C65.1297 35.2 64.279 34.9419 63.5554 34.4585C62.8318 33.975 62.2679 33.2878 61.9348 32.4838C61.6018 31.6798 61.5147 30.7951 61.6844 29.9416C61.8542 29.0881 62.2733 28.3041 62.8886 27.6887C63.504 27.0734 64.288 26.6543 65.1415 26.4845C65.995 26.3148 66.8797 26.4019 67.6837 26.7349C68.4877 27.068 69.1749 27.6319 69.6584 28.3555C70.1418 29.0791 70.3999 29.9298 70.3999 30.8C70.3999 31.967 69.9363 33.0861 69.1112 33.9113C68.286 34.7364 67.1669 35.2 65.9999 35.2Z" fill="black"/>
</g>
<path d="M13.1069 80.0439C13.1069 81.1019 12.8506 82.0215 12.3379 82.8027C11.8252 83.584 11.0765 84.1862 10.0918 84.6094C9.11523 85.0326 7.92708 85.2441 6.52734 85.2441C5.90885 85.2441 5.30257 85.2035 4.7085 85.1221C4.12256 85.0407 3.55697 84.9227 3.01172 84.7681C2.47461 84.6053 1.96191 84.4059 1.47363 84.1699V80.6543C2.31999 81.0286 3.19889 81.3664 4.11035 81.6675C5.02181 81.9686 5.92513 82.1191 6.82031 82.1191C7.4388 82.1191 7.93522 82.0378 8.30957 81.875C8.69206 81.7122 8.96875 81.4884 9.13965 81.2036C9.31055 80.9188 9.396 80.5933 9.396 80.2271C9.396 79.7795 9.24544 79.397 8.94434 79.0796C8.64323 78.7622 8.22819 78.4652 7.69922 78.1885C7.17839 77.9118 6.58838 77.6147 5.9292 77.2974C5.51416 77.1021 5.0625 76.866 4.57422 76.5894C4.08594 76.3045 3.62207 75.9587 3.18262 75.5518C2.74316 75.1449 2.38102 74.6525 2.09619 74.0747C1.8195 73.4888 1.68115 72.7889 1.68115 71.9751C1.68115 70.909 1.92529 69.9976 2.41357 69.2407C2.90186 68.4839 3.59766 67.9061 4.50098 67.5073C5.41243 67.1004 6.48665 66.897 7.72363 66.897C8.65137 66.897 9.53434 67.0068 10.3726 67.2266C11.2189 67.4382 12.1019 67.7474 13.0215 68.1543L11.8008 71.0962C10.9788 70.7625 10.2424 70.5062 9.59131 70.3271C8.94027 70.14 8.27702 70.0464 7.60156 70.0464C7.12956 70.0464 6.72673 70.1237 6.39307 70.2783C6.05941 70.4248 5.80713 70.6364 5.63623 70.9131C5.46533 71.1816 5.37988 71.495 5.37988 71.853C5.37988 72.2762 5.50195 72.6343 5.74609 72.9272C5.99837 73.2121 6.37272 73.4888 6.86914 73.7573C7.3737 74.0259 8.00033 74.3392 8.74902 74.6973C9.66048 75.1286 10.4377 75.5802 11.0806 76.0522C11.7316 76.5161 12.2321 77.0654 12.582 77.7002C12.932 78.3268 13.1069 79.1081 13.1069 80.0439ZM21.6763 71.0962C22.9377 71.0962 24.0241 71.3403 24.9355 71.8286C25.847 72.3088 26.5509 73.0086 27.0474 73.9282C27.5438 74.8478 27.792 75.9709 27.792 77.2974V79.104H18.9907C19.0314 80.1538 19.3447 80.9798 19.9307 81.582C20.5247 82.1761 21.3467 82.4731 22.3965 82.4731C23.2673 82.4731 24.0648 82.3836 24.7891 82.2046C25.5133 82.0256 26.258 81.757 27.0229 81.3989V84.2798C26.3475 84.6134 25.6395 84.8576 24.8989 85.0122C24.1665 85.1668 23.2754 85.2441 22.2256 85.2441C20.8584 85.2441 19.6458 84.9919 18.5879 84.4873C17.5381 83.9827 16.7121 83.2137 16.1099 82.1802C15.5158 81.1466 15.2188 79.8446 15.2188 78.2739C15.2188 76.6789 15.4873 75.3524 16.0244 74.2944C16.5697 73.2284 17.3265 72.4308 18.2949 71.9019C19.2633 71.3647 20.3905 71.0962 21.6763 71.0962ZM21.7007 73.7451C20.9764 73.7451 20.3742 73.9771 19.894 74.4409C19.422 74.9048 19.1494 75.6331 19.0762 76.626H24.3008C24.2926 76.0726 24.1909 75.5802 23.9956 75.1489C23.8084 74.7176 23.5236 74.3758 23.1411 74.1235C22.7668 73.8713 22.2866 73.7451 21.7007 73.7451ZM34.811 91.0059C32.9067 91.0059 31.45 90.6722 30.4409 90.0049C29.4399 89.3457 28.9395 88.418 28.9395 87.2217C28.9395 86.3997 29.1958 85.7121 29.7085 85.1587C30.2212 84.6053 30.974 84.2106 31.9668 83.9746C31.5843 83.8118 31.2507 83.5474 30.9658 83.1812C30.681 82.8068 30.5386 82.4121 30.5386 81.9971C30.5386 81.4762 30.6891 81.0449 30.9902 80.7031C31.2913 80.3532 31.7267 80.0114 32.2964 79.6777C31.5802 79.3685 31.0106 78.8721 30.5874 78.1885C30.1724 77.5049 29.9648 76.6992 29.9648 75.7715C29.9648 74.7786 30.1805 73.9364 30.6118 73.2446C31.0513 72.5448 31.686 72.0117 32.5161 71.6455C33.3543 71.2793 34.3716 71.0962 35.5679 71.0962C35.8201 71.0962 36.1131 71.1125 36.4468 71.145C36.7804 71.1776 37.0856 71.2142 37.3623 71.2549C37.6471 71.2956 37.8384 71.3281 37.936 71.3525H42.6968V73.2446L40.5605 73.7939C40.7559 74.0951 40.9023 74.4165 41 74.7583C41.0977 75.1001 41.1465 75.4622 41.1465 75.8447C41.1465 77.3096 40.6338 78.453 39.6084 79.2749C38.5911 80.0887 37.1751 80.4956 35.3604 80.4956C34.929 80.4712 34.5221 80.4386 34.1396 80.3979C33.9525 80.5444 33.8101 80.6991 33.7124 80.8618C33.6147 81.0246 33.5659 81.1955 33.5659 81.3745C33.5659 81.5535 33.6392 81.7041 33.7856 81.8262C33.9403 81.9401 34.1681 82.0296 34.4692 82.0947C34.7785 82.1517 35.161 82.1802 35.6167 82.1802H37.936C39.4334 82.1802 40.5728 82.5016 41.354 83.1445C42.1434 83.7874 42.5381 84.7314 42.5381 85.9766C42.5381 87.5716 41.8708 88.8086 40.5361 89.6875C39.2096 90.5664 37.3013 91.0059 34.811 91.0059ZM34.9697 88.5767C35.8568 88.5767 36.6177 88.4912 37.2524 88.3203C37.8953 88.1576 38.3877 87.9215 38.7295 87.6123C39.0713 87.3112 39.2422 86.9491 39.2422 86.5259C39.2422 86.1841 39.1405 85.9115 38.937 85.708C38.7417 85.5127 38.4406 85.3743 38.0337 85.293C37.6349 85.2116 37.1222 85.1709 36.4956 85.1709H34.5669C34.1112 85.1709 33.7002 85.2441 33.334 85.3906C32.9759 85.5371 32.6911 85.7406 32.4795 86.001C32.2679 86.2695 32.1621 86.5788 32.1621 86.9287C32.1621 87.4414 32.4062 87.8442 32.8945 88.1372C33.391 88.4302 34.0827 88.5767 34.9697 88.5767ZM35.5679 78.2251C36.2677 78.2251 36.7804 78.0094 37.106 77.5781C37.4315 77.1468 37.5942 76.5609 37.5942 75.8203C37.5942 74.9984 37.4233 74.384 37.0815 73.9771C36.7479 73.562 36.2433 73.3545 35.5679 73.3545C34.8843 73.3545 34.3716 73.562 34.0298 73.9771C33.688 74.384 33.5171 74.9984 33.5171 75.8203C33.5171 76.5609 33.6839 77.1468 34.0176 77.5781C34.3594 78.0094 34.8761 78.2251 35.5679 78.2251ZM57.4795 71.3525V85H54.623L54.1226 83.2544H53.9272C53.6343 83.7183 53.2681 84.0967 52.8286 84.3896C52.3892 84.6826 51.9049 84.8983 51.376 85.0366C50.847 85.175 50.2977 85.2441 49.728 85.2441C48.7515 85.2441 47.901 85.0732 47.1768 84.7314C46.4525 84.3815 45.8869 83.8403 45.48 83.1079C45.0812 82.3755 44.8818 81.4233 44.8818 80.2515V71.3525H48.605V79.3237C48.605 80.3003 48.7799 81.0368 49.1299 81.5332C49.4798 82.0296 50.0373 82.2778 50.8022 82.2778C51.5591 82.2778 52.1532 82.1069 52.5845 81.7651C53.0158 81.4152 53.3169 80.9066 53.4878 80.2393C53.6668 79.5638 53.7563 78.7419 53.7563 77.7734V71.3525H57.4795ZM69.0029 71.0962C69.1901 71.0962 69.4058 71.1084 69.6499 71.1328C69.9022 71.1491 70.1056 71.1735 70.2603 71.2061L69.9795 74.6973C69.8574 74.6566 69.6825 74.6281 69.4546 74.6118C69.2349 74.5874 69.0436 74.5752 68.8809 74.5752C68.4007 74.5752 67.9328 74.6362 67.4771 74.7583C67.0295 74.8804 66.6266 75.0798 66.2686 75.3564C65.9105 75.625 65.6257 75.9831 65.4141 76.4307C65.2106 76.8701 65.1089 77.4113 65.1089 78.0542V85H61.3857V71.3525H64.2056L64.7549 73.6475H64.938C65.2065 73.1836 65.5402 72.7604 65.939 72.3779C66.3459 71.9873 66.8057 71.6781 67.3184 71.4502C67.8392 71.2142 68.4007 71.0962 69.0029 71.0962ZM76.4614 71.3525V85H72.7383V71.3525H76.4614ZM74.606 66.0059C75.1593 66.0059 75.6354 66.1361 76.0342 66.3965C76.4329 66.6488 76.6323 67.1248 76.6323 67.8247C76.6323 68.5164 76.4329 68.9966 76.0342 69.2651C75.6354 69.5256 75.1593 69.6558 74.606 69.6558C74.0444 69.6558 73.5643 69.5256 73.1655 69.2651C72.7749 68.9966 72.5796 68.5164 72.5796 67.8247C72.5796 67.1248 72.7749 66.6488 73.1655 66.3965C73.5643 66.1361 74.0444 66.0059 74.606 66.0059ZM84.7012 85.2441C83.1794 85.2441 81.9383 84.6501 80.978 83.4619C80.0259 82.2656 79.5498 80.5119 79.5498 78.2007C79.5498 75.8651 80.034 74.0991 81.0024 72.9028C81.9709 71.6984 83.2363 71.0962 84.7988 71.0962C85.4499 71.0962 86.0236 71.1857 86.52 71.3647C87.0164 71.5438 87.4437 71.7839 87.8018 72.085C88.168 72.3861 88.4772 72.7238 88.7295 73.0981H88.8516C88.8027 72.8377 88.7417 72.4552 88.6685 71.9507C88.6034 71.438 88.5708 70.9131 88.5708 70.376V66.0059H92.3062V85H89.4497L88.7295 83.23H88.5708C88.3348 83.6043 88.0378 83.9461 87.6797 84.2554C87.3298 84.5565 86.9106 84.7965 86.4224 84.9756C85.9341 85.1546 85.3604 85.2441 84.7012 85.2441ZM86.0073 82.2778C87.0246 82.2778 87.7407 81.9767 88.1558 81.3745C88.5789 80.7642 88.8027 79.8486 88.8271 78.6279V78.2251C88.8271 76.8986 88.6237 75.8854 88.2168 75.1855C87.8099 74.4775 87.0531 74.1235 85.9463 74.1235C85.1243 74.1235 84.4814 74.4775 84.0176 75.1855C83.5537 75.8936 83.3218 76.9149 83.3218 78.2495C83.3218 79.5841 83.5537 80.5892 84.0176 81.2646C84.4896 81.9401 85.1528 82.2778 86.0073 82.2778ZM101.791 71.0718C103.622 71.0718 105.026 71.4705 106.002 72.2681C106.979 73.0656 107.467 74.2782 107.467 75.9058V85H104.867L104.147 83.1445H104.049C103.659 83.6328 103.26 84.0316 102.853 84.3408C102.446 84.6501 101.978 84.8779 101.449 85.0244C100.92 85.1709 100.277 85.2441 99.5205 85.2441C98.7148 85.2441 97.9906 85.0895 97.3477 84.7803C96.7129 84.471 96.2124 83.999 95.8462 83.3643C95.48 82.7214 95.2969 81.9076 95.2969 80.9229C95.2969 79.4743 95.8055 78.4082 96.8228 77.7246C97.84 77.0329 99.3659 76.6504 101.4 76.5771L103.769 76.5039V75.9058C103.769 75.1896 103.581 74.6647 103.207 74.3311C102.833 73.9974 102.312 73.8306 101.645 73.8306C100.985 73.8306 100.338 73.9242 99.7036 74.1113C99.0688 74.2985 98.4341 74.5345 97.7993 74.8193L96.5664 72.3047C97.2907 71.9222 98.1004 71.6211 98.9956 71.4014C99.8989 71.1816 100.831 71.0718 101.791 71.0718ZM103.769 78.6768L102.328 78.7256C101.124 78.7581 100.285 78.9738 99.8135 79.3726C99.3496 79.7713 99.1177 80.2962 99.1177 80.9473C99.1177 81.5169 99.2845 81.9238 99.6182 82.168C99.9518 82.404 100.387 82.522 100.924 82.522C101.722 82.522 102.393 82.286 102.938 81.814C103.492 81.342 103.769 80.6706 103.769 79.7998V78.6768ZM115.634 85.2441C114.112 85.2441 112.871 84.6501 111.911 83.4619C110.958 82.2656 110.482 80.5119 110.482 78.2007C110.482 75.8651 110.967 74.0991 111.935 72.9028C112.903 71.6984 114.169 71.0962 115.731 71.0962C116.382 71.0962 116.956 71.1857 117.453 71.3647C117.949 71.5438 118.376 71.7839 118.734 72.085C119.101 72.3861 119.41 72.7238 119.662 73.0981H119.784C119.735 72.8377 119.674 72.4552 119.601 71.9507C119.536 71.438 119.503 70.9131 119.503 70.376V66.0059H123.239V85H120.382L119.662 83.23H119.503C119.267 83.6043 118.97 83.9461 118.612 84.2554C118.262 84.5565 117.843 84.7965 117.355 84.9756C116.867 85.1546 116.293 85.2441 115.634 85.2441ZM116.94 82.2778C117.957 82.2778 118.673 81.9767 119.088 81.3745C119.512 80.7642 119.735 79.8486 119.76 78.6279V78.2251C119.76 76.8986 119.556 75.8854 119.149 75.1855C118.743 74.4775 117.986 74.1235 116.879 74.1235C116.057 74.1235 115.414 74.4775 114.95 75.1855C114.486 75.8936 114.254 76.9149 114.254 78.2495C114.254 79.5841 114.486 80.5892 114.95 81.2646C115.422 81.9401 116.085 82.2778 116.94 82.2778ZM58.8833 105.353H62.9604L65.5361 113.031C65.6175 113.275 65.6867 113.523 65.7437 113.775C65.8006 114.028 65.8494 114.288 65.8901 114.557C65.9308 114.825 65.9634 115.106 65.9878 115.399H66.061C66.1099 114.959 66.175 114.549 66.2563 114.166C66.3459 113.784 66.4557 113.405 66.5859 113.031L69.1128 105.353H73.1045L67.3306 120.746C66.9806 121.69 66.5249 122.475 65.9634 123.102C65.4019 123.736 64.7549 124.212 64.0225 124.53C63.2982 124.847 62.5007 125.006 61.6299 125.006C61.2067 125.006 60.8405 124.981 60.5312 124.933C60.222 124.892 59.9575 124.847 59.7378 124.798V121.844C59.9087 121.885 60.1243 121.922 60.3848 121.954C60.6452 121.987 60.9178 122.003 61.2026 122.003C61.7235 122.003 62.1711 121.893 62.5454 121.673C62.9198 121.454 63.2331 121.157 63.4854 120.782C63.7376 120.416 63.937 120.013 64.0835 119.574L64.3032 118.902L58.8833 105.353ZM9.83545 139.096C11.3735 139.096 12.6146 139.694 13.5586 140.891C14.5107 142.087 14.9868 143.841 14.9868 146.152C14.9868 147.698 14.763 149 14.3154 150.058C13.8678 151.108 13.2493 151.901 12.46 152.438C11.6706 152.976 10.7632 153.244 9.73779 153.244C9.07861 153.244 8.51302 153.163 8.04102 153C7.56901 152.829 7.16618 152.613 6.83252 152.353C6.49886 152.084 6.20996 151.8 5.96582 151.499H5.77051C5.83561 151.824 5.88444 152.158 5.91699 152.5C5.94954 152.841 5.96582 153.175 5.96582 153.5V159.006H2.24268V139.353H5.27002L5.79492 141.123H5.96582C6.20996 140.756 6.507 140.419 6.85693 140.109C7.20687 139.8 7.62598 139.556 8.11426 139.377C8.61068 139.19 9.18441 139.096 9.83545 139.096ZM8.63916 142.075C7.98812 142.075 7.47135 142.209 7.08887 142.478C6.70638 142.746 6.42562 143.149 6.24658 143.686C6.07568 144.223 5.9821 144.903 5.96582 145.725V146.127C5.96582 147.006 6.0472 147.751 6.20996 148.361C6.38086 148.972 6.66162 149.436 7.05225 149.753C7.45101 150.07 7.99626 150.229 8.68799 150.229C9.25765 150.229 9.72559 150.07 10.0918 149.753C10.458 149.436 10.7306 148.972 10.9097 148.361C11.0968 147.743 11.1904 146.99 11.1904 146.103C11.1904 144.768 10.9829 143.763 10.5679 143.088C10.1528 142.412 9.50993 142.075 8.63916 142.075ZM25.6802 139.096C25.8674 139.096 26.083 139.108 26.3271 139.133C26.5794 139.149 26.7829 139.174 26.9375 139.206L26.6567 142.697C26.5347 142.657 26.3597 142.628 26.1318 142.612C25.9121 142.587 25.7209 142.575 25.5581 142.575C25.078 142.575 24.61 142.636 24.1543 142.758C23.7067 142.88 23.3039 143.08 22.9458 143.356C22.5877 143.625 22.3029 143.983 22.0913 144.431C21.8879 144.87 21.7861 145.411 21.7861 146.054V153H18.063V139.353H20.8828L21.4321 141.647H21.6152C21.8838 141.184 22.2174 140.76 22.6162 140.378C23.0231 139.987 23.4829 139.678 23.9956 139.45C24.5164 139.214 25.078 139.096 25.6802 139.096ZM33.1387 139.353V153H29.4155V139.353H33.1387ZM31.2832 134.006C31.8366 134.006 32.3127 134.136 32.7114 134.396C33.1102 134.649 33.3096 135.125 33.3096 135.825C33.3096 136.516 33.1102 136.997 32.7114 137.265C32.3127 137.526 31.8366 137.656 31.2832 137.656C30.7217 137.656 30.2415 137.526 29.8428 137.265C29.4521 136.997 29.2568 136.516 29.2568 135.825C29.2568 135.125 29.4521 134.649 29.8428 134.396C30.2415 134.136 30.7217 134.006 31.2832 134.006ZM40.3042 153L35.104 139.353H38.998L41.6348 147.128C41.7812 147.584 41.8952 148.064 41.9766 148.569C42.0661 149.073 42.1271 149.525 42.1597 149.924H42.2573C42.2817 149.493 42.3387 149.033 42.4282 148.544C42.5259 148.056 42.652 147.584 42.8066 147.128L45.4312 139.353H49.3252L44.125 153H40.3042ZM56.8813 139.072C58.7124 139.072 60.1162 139.471 61.0928 140.268C62.0693 141.066 62.5576 142.278 62.5576 143.906V153H59.9575L59.2373 151.145H59.1396C58.749 151.633 58.3503 152.032 57.9434 152.341C57.5365 152.65 57.0685 152.878 56.5396 153.024C56.0106 153.171 55.3677 153.244 54.6108 153.244C53.8052 153.244 53.0809 153.09 52.438 152.78C51.8032 152.471 51.3027 151.999 50.9365 151.364C50.5703 150.721 50.3872 149.908 50.3872 148.923C50.3872 147.474 50.8958 146.408 51.9131 145.725C52.9303 145.033 54.4562 144.65 56.4907 144.577L58.8589 144.504V143.906C58.8589 143.19 58.6717 142.665 58.2974 142.331C57.923 141.997 57.4022 141.831 56.7349 141.831C56.0757 141.831 55.4287 141.924 54.7939 142.111C54.1592 142.299 53.5244 142.535 52.8896 142.819L51.6567 140.305C52.381 139.922 53.1908 139.621 54.0859 139.401C54.9893 139.182 55.9211 139.072 56.8813 139.072ZM58.8589 146.677L57.4185 146.726C56.214 146.758 55.3758 146.974 54.9038 147.373C54.4399 147.771 54.208 148.296 54.208 148.947C54.208 149.517 54.3748 149.924 54.7085 150.168C55.0422 150.404 55.4775 150.522 56.0146 150.522C56.8122 150.522 57.4836 150.286 58.0288 149.814C58.5822 149.342 58.8589 148.671 58.8589 147.8V146.677ZM71.9448 153.244C70.5939 153.244 69.4424 153 68.4902 152.512C67.5381 152.015 66.8138 151.25 66.3174 150.217C65.821 149.183 65.5728 147.861 65.5728 146.25C65.5728 144.581 65.8535 143.222 66.415 142.172C66.9847 141.114 67.77 140.337 68.771 139.841C69.7801 139.344 70.9479 139.096 72.2744 139.096C73.2184 139.096 74.0322 139.19 74.7158 139.377C75.4076 139.556 76.0098 139.772 76.5225 140.024L75.4238 142.905C74.8379 142.669 74.2926 142.478 73.7881 142.331C73.2835 142.176 72.779 142.099 72.2744 142.099C71.6234 142.099 71.0822 142.254 70.6509 142.563C70.2196 142.864 69.8981 143.32 69.6865 143.93C69.4749 144.541 69.3691 145.306 69.3691 146.225C69.3691 147.128 69.4831 147.877 69.7109 148.471C69.9388 149.065 70.2684 149.509 70.6997 149.802C71.131 150.087 71.6559 150.229 72.2744 150.229C73.0475 150.229 73.7352 150.127 74.3374 149.924C74.9396 149.712 75.5256 149.419 76.0952 149.045V152.231C75.5256 152.589 74.9274 152.845 74.3008 153C73.6823 153.163 72.897 153.244 71.9448 153.244ZM82.9922 139.353V153H79.269V139.353H82.9922ZM81.1367 134.006C81.6901 134.006 82.1662 134.136 82.5649 134.396C82.9637 134.649 83.1631 135.125 83.1631 135.825C83.1631 136.516 82.9637 136.997 82.5649 137.265C82.1662 137.526 81.6901 137.656 81.1367 137.656C80.5752 137.656 80.0951 137.526 79.6963 137.265C79.3057 136.997 79.1104 136.516 79.1104 135.825C79.1104 135.125 79.3057 134.649 79.6963 134.396C80.0951 134.136 80.5752 134.006 81.1367 134.006ZM91.2319 153.244C89.7101 153.244 88.4691 152.65 87.5088 151.462C86.5566 150.266 86.0806 148.512 86.0806 146.201C86.0806 143.865 86.5648 142.099 87.5332 140.903C88.5016 139.698 89.7671 139.096 91.3296 139.096C91.9806 139.096 92.5544 139.186 93.0508 139.365C93.5472 139.544 93.9744 139.784 94.3325 140.085C94.6987 140.386 95.008 140.724 95.2603 141.098H95.3823C95.3335 140.838 95.2725 140.455 95.1992 139.951C95.1341 139.438 95.1016 138.913 95.1016 138.376V134.006H98.8369V153H95.9805L95.2603 151.23H95.1016C94.8656 151.604 94.5685 151.946 94.2104 152.255C93.8605 152.556 93.4414 152.797 92.9531 152.976C92.4648 153.155 91.8911 153.244 91.2319 153.244ZM92.5381 150.278C93.5553 150.278 94.2715 149.977 94.6865 149.375C95.1097 148.764 95.3335 147.849 95.3579 146.628V146.225C95.3579 144.899 95.1545 143.885 94.7476 143.186C94.3407 142.478 93.5838 142.124 92.4771 142.124C91.6551 142.124 91.0122 142.478 90.5483 143.186C90.0845 143.894 89.8525 144.915 89.8525 146.25C89.8525 147.584 90.0845 148.589 90.5483 149.265C91.0203 149.94 91.6836 150.278 92.5381 150.278ZM108.322 139.072C110.153 139.072 111.557 139.471 112.533 140.268C113.51 141.066 113.998 142.278 113.998 143.906V153H111.398L110.678 151.145H110.58C110.189 151.633 109.791 152.032 109.384 152.341C108.977 152.65 108.509 152.878 107.98 153.024C107.451 153.171 106.808 153.244 106.051 153.244C105.246 153.244 104.521 153.09 103.878 152.78C103.244 152.471 102.743 151.999 102.377 151.364C102.011 150.721 101.828 149.908 101.828 148.923C101.828 147.474 102.336 146.408 103.354 145.725C104.371 145.033 105.897 144.65 107.931 144.577L110.299 144.504V143.906C110.299 143.19 110.112 142.665 109.738 142.331C109.363 141.997 108.843 141.831 108.175 141.831C107.516 141.831 106.869 141.924 106.234 142.111C105.6 142.299 104.965 142.535 104.33 142.819L103.097 140.305C103.821 139.922 104.631 139.621 105.526 139.401C106.43 139.182 107.361 139.072 108.322 139.072ZM110.299 146.677L108.859 146.726C107.654 146.758 106.816 146.974 106.344 147.373C105.88 147.771 105.648 148.296 105.648 148.947C105.648 149.517 105.815 149.924 106.149 150.168C106.483 150.404 106.918 150.522 107.455 150.522C108.253 150.522 108.924 150.286 109.469 149.814C110.023 149.342 110.299 148.671 110.299 147.8V146.677ZM122.165 153.244C120.643 153.244 119.402 152.65 118.441 151.462C117.489 150.266 117.013 148.512 117.013 146.201C117.013 143.865 117.497 142.099 118.466 140.903C119.434 139.698 120.7 139.096 122.262 139.096C122.913 139.096 123.487 139.186 123.983 139.365C124.48 139.544 124.907 139.784 125.265 140.085C125.631 140.386 125.941 140.724 126.193 141.098H126.315C126.266 140.838 126.205 140.455 126.132 139.951C126.067 139.438 126.034 138.913 126.034 138.376V134.006H129.77V153H126.913L126.193 151.23H126.034C125.798 151.604 125.501 151.946 125.143 152.255C124.793 152.556 124.374 152.797 123.886 152.976C123.397 153.155 122.824 153.244 122.165 153.244ZM123.471 150.278C124.488 150.278 125.204 149.977 125.619 149.375C126.042 148.764 126.266 147.849 126.291 146.628V146.225C126.291 144.899 126.087 143.885 125.68 143.186C125.273 142.478 124.516 142.124 123.41 142.124C122.588 142.124 121.945 142.478 121.481 143.186C121.017 143.894 120.785 144.915 120.785 146.25C120.785 147.584 121.017 148.589 121.481 149.265C121.953 149.94 122.616 150.278 123.471 150.278Z" fill="black"/>
<defs>
<clipPath id="clip0_69_944">
<rect width="44" height="44" fill="white" transform="translate(44)"/>
</clipPath>
</defs>
</svg>

