<svg width="44" height="44" viewBox="0 0 44 44" fill="none" xmlns="http://www.w3.org/2000/svg">
<path d="M22 16.5C20.5413 16.5 19.1424 17.0795 18.1109 18.1109C17.0795 19.1424 16.5 20.5413 16.5 22C16.5 23.4587 17.0795 24.8576 18.1109 25.8891C19.1424 26.9205 20.5413 27.5 22 27.5C23.4587 27.5 24.8577 26.9205 25.8891 25.8891C26.9206 24.8576 27.5 23.4587 27.5 22C27.5 20.5413 26.9206 19.1424 25.8891 18.1109C24.8577 17.0795 23.4587 16.5 22 16.5ZM22 31.1667C19.5689 31.1667 17.2373 30.2009 15.5182 28.4818C13.7991 26.7627 12.8333 24.4312 12.8333 22C12.8333 19.5688 13.7991 17.2373 15.5182 15.5182C17.2373 13.7991 19.5689 12.8333 22 12.8333C24.4312 12.8333 26.7627 13.7991 28.4818 15.5182C30.2009 17.2373 31.1667 19.5688 31.1667 22C31.1667 24.4312 30.2009 26.7627 28.4818 28.4818C26.7627 30.2009 24.4312 31.1667 22 31.1667ZM22 8.25C12.8333 8.25 5.00501 13.9517 1.83334 22C5.00501 30.0483 12.8333 35.75 22 35.75C31.1667 35.75 38.995 30.0483 42.1667 22C38.995 13.9517 31.1667 8.25 22 8.25Z" fill="black"/>
</svg>
