<svg width="182" height="126" viewBox="0 0 182 126" fill="none" xmlns="http://www.w3.org/2000/svg">
<g clip-path="url(#clip0_69_945)">
<path d="M91.0001 3.66675C101.126 3.66675 109.333 11.8746 109.333 22.0001C109.333 32.1256 101.126 40.3334 91.0001 40.3334C80.8746 40.3334 72.6667 32.1256 72.6667 22.0001C72.6667 11.8746 80.8746 3.66675 91.0001 3.66675ZM91.0001 11.0001C90.5139 11.0001 90.0475 11.1932 89.7037 11.5371C89.3599 11.8809 89.1667 12.3472 89.1667 12.8334V22.0001C89.1669 22.4863 89.3601 22.9525 89.7039 23.2962L95.2039 28.7962C95.5497 29.1302 96.0128 29.315 96.4935 29.3108C96.9742 29.3066 97.434 29.1138 97.7739 28.7739C98.1138 28.434 98.3066 27.9742 98.3108 27.4935C98.315 27.0128 98.1302 26.5497 97.7962 26.2039L92.8334 21.2411V12.8334C92.8334 12.3472 92.6403 11.8809 92.2964 11.5371C91.9526 11.1932 91.4863 11.0001 91.0001 11.0001Z" fill="black"/>
</g>
<path d="M12.8628 80.0439C12.8628 81.1019 12.6064 82.0215 12.0938 82.8027C11.5811 83.584 10.8324 84.1862 9.84766 84.6094C8.87109 85.0326 7.68294 85.2441 6.2832 85.2441C5.66471 85.2441 5.05843 85.2035 4.46436 85.1221C3.87842 85.0407 3.31283 84.9227 2.76758 84.7681C2.23047 84.6053 1.71777 84.4059 1.22949 84.1699V80.6543C2.07585 81.0286 2.95475 81.3664 3.86621 81.6675C4.77767 81.9686 5.68099 82.1191 6.57617 82.1191C7.19466 82.1191 7.69108 82.0378 8.06543 81.875C8.44792 81.7122 8.72461 81.4884 8.89551 81.2036C9.06641 80.9188 9.15186 80.5933 9.15186 80.2271C9.15186 79.7795 9.0013 79.397 8.7002 79.0796C8.39909 78.7622 7.98405 78.4652 7.45508 78.1885C6.93424 77.9118 6.34424 77.6147 5.68506 77.2974C5.27002 77.1021 4.81836 76.866 4.33008 76.5894C3.8418 76.3045 3.37793 75.9587 2.93848 75.5518C2.49902 75.1449 2.13688 74.6525 1.85205 74.0747C1.57536 73.4888 1.43701 72.7889 1.43701 71.9751C1.43701 70.909 1.68115 69.9976 2.16943 69.2407C2.65771 68.4839 3.35352 67.9061 4.25684 67.5073C5.16829 67.1004 6.24251 66.897 7.47949 66.897C8.40723 66.897 9.2902 67.0068 10.1284 67.2266C10.9748 67.4382 11.8577 67.7474 12.7773 68.1543L11.5566 71.0962C10.7347 70.7625 9.99821 70.5062 9.34717 70.3271C8.69613 70.14 8.03288 70.0464 7.35742 70.0464C6.88542 70.0464 6.48258 70.1237 6.14893 70.2783C5.81527 70.4248 5.56299 70.6364 5.39209 70.9131C5.22119 71.1816 5.13574 71.495 5.13574 71.853C5.13574 72.2762 5.25781 72.6343 5.50195 72.9272C5.75423 73.2121 6.12858 73.4888 6.625 73.7573C7.12956 74.0259 7.75618 74.3392 8.50488 74.6973C9.41634 75.1286 10.1935 75.5802 10.8364 76.0522C11.4875 76.5161 11.988 77.0654 12.3379 77.7002C12.6878 78.3268 12.8628 79.1081 12.8628 80.0439ZM19.5278 71.3525V85H15.8047V71.3525H19.5278ZM17.6724 66.0059C18.2257 66.0059 18.7018 66.1361 19.1006 66.3965C19.4993 66.6488 19.6987 67.1248 19.6987 67.8247C19.6987 68.5164 19.4993 68.9966 19.1006 69.2651C18.7018 69.5256 18.2257 69.6558 17.6724 69.6558C17.1108 69.6558 16.6307 69.5256 16.2319 69.2651C15.8413 68.9966 15.646 68.5164 15.646 67.8247C15.646 67.1248 15.8413 66.6488 16.2319 66.3965C16.6307 66.1361 17.1108 66.0059 17.6724 66.0059ZM32.9678 80.9473C32.9678 81.875 32.748 82.6603 32.3086 83.3032C31.8773 83.938 31.2303 84.4222 30.3677 84.7559C29.505 85.0814 28.4308 85.2441 27.145 85.2441C26.1929 85.2441 25.375 85.1831 24.6914 85.061C24.016 84.939 23.3324 84.7355 22.6406 84.4507V81.3745C23.3812 81.7082 24.1746 81.9849 25.021 82.2046C25.8755 82.4162 26.6242 82.522 27.2671 82.522C27.9914 82.522 28.5081 82.4162 28.8174 82.2046C29.1348 81.9849 29.2935 81.7 29.2935 81.3501C29.2935 81.1222 29.2284 80.9188 29.0981 80.7397C28.9761 80.5526 28.7075 80.3451 28.2925 80.1172C27.8774 79.8812 27.2264 79.576 26.3394 79.2017C25.4849 78.8436 24.7809 78.4814 24.2275 78.1152C23.6823 77.749 23.2754 77.3177 23.0068 76.8213C22.7464 76.3167 22.6162 75.6779 22.6162 74.9048C22.6162 73.6434 23.1045 72.6953 24.0811 72.0605C25.0658 71.4176 26.38 71.0962 28.0239 71.0962C28.8703 71.0962 29.6759 71.1816 30.4409 71.3525C31.214 71.5234 32.0075 71.7961 32.8213 72.1704L31.6982 74.856C31.0228 74.563 30.384 74.3229 29.7817 74.1357C29.1877 73.9486 28.5814 73.855 27.9629 73.855C27.4176 73.855 27.0067 73.9282 26.73 74.0747C26.4533 74.2212 26.3149 74.445 26.3149 74.7461C26.3149 74.9658 26.3841 75.1611 26.5225 75.332C26.6689 75.5029 26.9456 75.6942 27.3525 75.9058C27.7676 76.1092 28.3739 76.3737 29.1714 76.6992C29.9445 77.0166 30.6159 77.3503 31.1855 77.7002C31.7552 78.042 32.1947 78.4692 32.5039 78.9819C32.8132 79.4865 32.9678 80.1416 32.9678 80.9473ZM41.6226 82.2778C42.0295 82.2778 42.4242 82.2371 42.8066 82.1558C43.1973 82.0744 43.5838 81.9727 43.9663 81.8506V84.6216C43.5675 84.8006 43.0711 84.9471 42.4771 85.061C41.8911 85.1831 41.2482 85.2441 40.5483 85.2441C39.7345 85.2441 39.0021 85.1139 38.3511 84.8535C37.7082 84.585 37.1995 84.1252 36.8252 83.4741C36.459 82.8149 36.2759 81.8994 36.2759 80.7275V74.1479H34.4937V72.5732L36.5444 71.3281L37.6187 68.4473H39.999V71.3525H43.8198V74.1479H39.999V80.7275C39.999 81.2484 40.1455 81.639 40.4385 81.8994C40.7396 82.1517 41.1343 82.2778 41.6226 82.2778ZM52.3647 71.0962C53.6261 71.0962 54.7126 71.3403 55.624 71.8286C56.5355 72.3088 57.2394 73.0086 57.7358 73.9282C58.2323 74.8478 58.4805 75.9709 58.4805 77.2974V79.104H49.6792C49.7199 80.1538 50.0332 80.9798 50.6191 81.582C51.2132 82.1761 52.0352 82.4731 53.085 82.4731C53.9557 82.4731 54.7533 82.3836 55.4775 82.2046C56.2018 82.0256 56.9465 81.757 57.7114 81.3989V84.2798C57.036 84.6134 56.328 84.8576 55.5874 85.0122C54.855 85.1668 53.9639 85.2441 52.9141 85.2441C51.5469 85.2441 50.3343 84.9919 49.2764 84.4873C48.2266 83.9827 47.4006 83.2137 46.7983 82.1802C46.2043 81.1466 45.9072 79.8446 45.9072 78.2739C45.9072 76.6789 46.1758 75.3524 46.7129 74.2944C47.2581 73.2284 48.015 72.4308 48.9834 71.9019C49.9518 71.3647 51.0789 71.0962 52.3647 71.0962ZM52.3892 73.7451C51.6649 73.7451 51.0627 73.9771 50.5825 74.4409C50.1105 74.9048 49.8379 75.6331 49.7646 76.626H54.9893C54.9811 76.0726 54.8794 75.5802 54.6841 75.1489C54.4969 74.7176 54.2121 74.3758 53.8296 74.1235C53.4552 73.8713 52.9751 73.7451 52.3892 73.7451ZM77.5356 71.0962C79.0819 71.0962 80.2497 71.495 81.0391 72.2925C81.8366 73.0819 82.2354 74.3514 82.2354 76.1011V85H78.5V77.0288C78.5 76.0522 78.3332 75.3158 77.9995 74.8193C77.6659 74.3229 77.1491 74.0747 76.4492 74.0747C75.4645 74.0747 74.7646 74.4287 74.3496 75.1367C73.9346 75.8366 73.7271 76.8416 73.7271 78.1519V85H70.0039V77.0288C70.0039 76.3778 69.9307 75.8325 69.7842 75.3931C69.6377 74.9536 69.4139 74.624 69.1128 74.4043C68.8117 74.1846 68.4251 74.0747 67.9531 74.0747C67.2614 74.0747 66.7161 74.2497 66.3174 74.5996C65.9268 74.9414 65.646 75.45 65.4751 76.1255C65.3123 76.7928 65.231 77.6107 65.231 78.5791V85H61.5078V71.3525H64.3521L64.8525 73.0981H65.0601C65.3368 72.6261 65.6826 72.2437 66.0977 71.9507C66.5208 71.6577 66.9847 71.4421 67.4893 71.3037C67.9938 71.1654 68.5065 71.0962 69.0273 71.0962C70.0283 71.0962 70.8747 71.259 71.5664 71.5845C72.2663 71.91 72.8034 72.4146 73.1777 73.0981H73.5073C73.9142 72.3983 74.488 71.8896 75.2285 71.5723C75.9772 71.2549 76.7463 71.0962 77.5356 71.0962ZM91.6592 71.0718C93.4902 71.0718 94.894 71.4705 95.8706 72.2681C96.8472 73.0656 97.3354 74.2782 97.3354 75.9058V85H94.7354L94.0151 83.1445H93.9175C93.5269 83.6328 93.1281 84.0316 92.7212 84.3408C92.3143 84.6501 91.8464 84.8779 91.3174 85.0244C90.7884 85.1709 90.1455 85.2441 89.3887 85.2441C88.583 85.2441 87.8587 85.0895 87.2158 84.7803C86.5811 84.471 86.0806 83.999 85.7144 83.3643C85.3481 82.7214 85.165 81.9076 85.165 80.9229C85.165 79.4743 85.6737 78.4082 86.6909 77.7246C87.7082 77.0329 89.234 76.6504 91.2686 76.5771L93.6367 76.5039V75.9058C93.6367 75.1896 93.4495 74.6647 93.0752 74.3311C92.7008 73.9974 92.18 73.8306 91.5127 73.8306C90.8535 73.8306 90.2065 73.9242 89.5718 74.1113C88.937 74.2985 88.3022 74.5345 87.6675 74.8193L86.4346 72.3047C87.1589 71.9222 87.9686 71.6211 88.8638 71.4014C89.7671 71.1816 90.6989 71.0718 91.6592 71.0718ZM93.6367 78.6768L92.1963 78.7256C90.9919 78.7581 90.1536 78.9738 89.6816 79.3726C89.2178 79.7713 88.9858 80.2962 88.9858 80.9473C88.9858 81.5169 89.1527 81.9238 89.4863 82.168C89.82 82.404 90.2554 82.522 90.7925 82.522C91.59 82.522 92.2614 82.286 92.8066 81.814C93.36 81.342 93.6367 80.6706 93.6367 79.7998V78.6768ZM113.266 71.0718C115.097 71.0718 116.5 71.4705 117.477 72.2681C118.454 73.0656 118.942 74.2782 118.942 75.9058V85H116.342L115.622 83.1445H115.524C115.133 83.6328 114.735 84.0316 114.328 84.3408C113.921 84.6501 113.453 84.8779 112.924 85.0244C112.395 85.1709 111.752 85.2441 110.995 85.2441C110.189 85.2441 109.465 85.0895 108.822 84.7803C108.188 84.471 107.687 83.999 107.321 83.3643C106.955 82.7214 106.771 81.9076 106.771 80.9229C106.771 79.4743 107.28 78.4082 108.297 77.7246C109.315 77.0329 110.84 76.6504 112.875 76.5771L115.243 76.5039V75.9058C115.243 75.1896 115.056 74.6647 114.682 74.3311C114.307 73.9974 113.786 73.8306 113.119 73.8306C112.46 73.8306 111.813 73.9242 111.178 74.1113C110.543 74.2985 109.909 74.5345 109.274 74.8193L108.041 72.3047C108.765 71.9222 109.575 71.6211 110.47 71.4014C111.374 71.1816 112.305 71.0718 113.266 71.0718ZM115.243 78.6768L113.803 78.7256C112.598 78.7581 111.76 78.9738 111.288 79.3726C110.824 79.7713 110.592 80.2962 110.592 80.9473C110.592 81.5169 110.759 81.9238 111.093 82.168C111.426 82.404 111.862 82.522 112.399 82.522C113.196 82.522 113.868 82.286 114.413 81.814C114.966 81.342 115.243 80.6706 115.243 79.7998V78.6768ZM128.329 85.2441C126.978 85.2441 125.827 85 124.875 84.5117C123.922 84.0153 123.198 83.2503 122.702 82.2168C122.205 81.1833 121.957 79.8608 121.957 78.2495C121.957 76.5812 122.238 75.2222 122.799 74.1724C123.369 73.1144 124.154 72.3372 125.155 71.8408C126.164 71.3444 127.332 71.0962 128.659 71.0962C129.603 71.0962 130.417 71.1898 131.1 71.377C131.792 71.556 132.394 71.7716 132.907 72.0239L131.808 74.9048C131.222 74.6688 130.677 74.4775 130.172 74.3311C129.668 74.1764 129.163 74.0991 128.659 74.0991C128.008 74.0991 127.466 74.2537 127.035 74.563C126.604 74.8641 126.282 75.3198 126.071 75.9302C125.859 76.5405 125.753 77.3055 125.753 78.2251C125.753 79.1284 125.867 79.8771 126.095 80.4712C126.323 81.0653 126.653 81.5088 127.084 81.8018C127.515 82.0866 128.04 82.229 128.659 82.229C129.432 82.229 130.119 82.1273 130.722 81.9238C131.324 81.7122 131.91 81.4193 132.479 81.0449V84.231C131.91 84.589 131.312 84.8454 130.685 85C130.067 85.1628 129.281 85.2441 128.329 85.2441ZM141.403 82.2778C141.81 82.2778 142.204 82.2371 142.587 82.1558C142.978 82.0744 143.364 81.9727 143.747 81.8506V84.6216C143.348 84.8006 142.851 84.9471 142.257 85.061C141.671 85.1831 141.028 85.2441 140.329 85.2441C139.515 85.2441 138.782 85.1139 138.131 84.8535C137.488 84.585 136.98 84.1252 136.605 83.4741C136.239 82.8149 136.056 81.8994 136.056 80.7275V74.1479H134.274V72.5732L136.325 71.3281L137.399 68.4473H139.779V71.3525H143.6V74.1479H139.779V80.7275C139.779 81.2484 139.926 81.639 140.219 81.8994C140.52 82.1517 140.915 82.2778 141.403 82.2778ZM150.241 71.3525V85H146.518V71.3525H150.241ZM148.385 66.0059C148.939 66.0059 149.415 66.1361 149.813 66.3965C150.212 66.6488 150.412 67.1248 150.412 67.8247C150.412 68.5164 150.212 68.9966 149.813 69.2651C149.415 69.5256 148.939 69.6558 148.385 69.6558C147.824 69.6558 147.344 69.5256 146.945 69.2651C146.554 68.9966 146.359 68.5164 146.359 67.8247C146.359 67.1248 146.554 66.6488 146.945 66.3965C147.344 66.1361 147.824 66.0059 148.385 66.0059ZM157.406 85L152.206 71.3525H156.1L158.737 79.1284C158.883 79.5841 158.997 80.0643 159.079 80.5688C159.168 81.0734 159.229 81.5251 159.262 81.9238H159.359C159.384 81.4925 159.441 81.0327 159.53 80.5444C159.628 80.0562 159.754 79.5841 159.909 79.1284L162.533 71.3525H166.427L161.227 85H157.406ZM180.795 78.1519C180.795 79.2912 180.64 80.3003 180.331 81.1792C180.03 82.0581 179.586 82.8027 179 83.4131C178.423 84.0153 177.723 84.471 176.901 84.7803C176.087 85.0895 175.167 85.2441 174.142 85.2441C173.182 85.2441 172.299 85.0895 171.493 84.7803C170.696 84.471 170 84.0153 169.406 83.4131C168.82 82.8027 168.364 82.0581 168.039 81.1792C167.721 80.3003 167.562 79.2912 167.562 78.1519C167.562 76.6382 167.831 75.3564 168.368 74.3066C168.905 73.2568 169.67 72.4593 170.663 71.9141C171.656 71.3688 172.84 71.0962 174.215 71.0962C175.493 71.0962 176.624 71.3688 177.609 71.9141C178.602 72.4593 179.379 73.2568 179.94 74.3066C180.51 75.3564 180.795 76.6382 180.795 78.1519ZM171.359 78.1519C171.359 79.047 171.457 79.7998 171.652 80.4102C171.847 81.0205 172.152 81.4803 172.567 81.7896C172.982 82.0988 173.524 82.2534 174.191 82.2534C174.85 82.2534 175.383 82.0988 175.79 81.7896C176.205 81.4803 176.506 81.0205 176.693 80.4102C176.889 79.7998 176.986 79.047 176.986 78.1519C176.986 77.2485 176.889 76.4998 176.693 75.9058C176.506 75.3035 176.205 74.8519 175.79 74.5508C175.375 74.2497 174.834 74.0991 174.167 74.0991C173.182 74.0991 172.466 74.4368 172.018 75.1123C171.579 75.7878 171.359 76.8009 171.359 78.1519ZM75.7412 119H63.2656V116.375L67.7456 111.847C68.6489 110.919 69.3732 110.146 69.9185 109.527C70.4718 108.901 70.8706 108.331 71.1147 107.818C71.367 107.306 71.4932 106.756 71.4932 106.17C71.4932 105.462 71.2938 104.933 70.895 104.583C70.5044 104.225 69.9795 104.046 69.3203 104.046C68.6286 104.046 67.9572 104.205 67.3062 104.522C66.6551 104.84 65.9756 105.292 65.2676 105.877L63.2168 103.448C63.7295 103.009 64.2707 102.594 64.8403 102.203C65.4181 101.812 66.0854 101.499 66.8423 101.263C67.6073 101.019 68.5228 100.897 69.5889 100.897C70.7607 100.897 71.7658 101.109 72.604 101.532C73.4504 101.955 74.1014 102.533 74.5571 103.265C75.0129 103.989 75.2407 104.811 75.2407 105.731C75.2407 106.716 75.0454 107.615 74.6548 108.429C74.2642 109.243 73.6945 110.048 72.9458 110.846C72.2052 111.643 71.3101 112.526 70.2603 113.495L67.9653 115.655V115.826H75.7412V119ZM90.4507 115.301H88.3022V119H84.6157V115.301H76.9985V112.677L84.8232 101.153H88.3022V112.372H90.4507V115.301ZM84.6157 112.372V109.344C84.6157 109.059 84.6198 108.722 84.6279 108.331C84.6442 107.94 84.6605 107.55 84.6768 107.159C84.693 106.769 84.7093 106.423 84.7256 106.122C84.75 105.812 84.7663 105.597 84.7744 105.475H84.6768C84.5221 105.808 84.3594 106.134 84.1885 106.451C84.0176 106.76 83.8182 107.086 83.5903 107.428L80.3188 112.372H84.6157ZM96.5542 100.006V103.875C96.5542 104.551 96.5298 105.194 96.481 105.804C96.4403 106.415 96.4077 106.846 96.3833 107.098H96.5786C96.8716 106.626 97.2174 106.244 97.6162 105.951C98.0231 105.658 98.4707 105.442 98.959 105.304C99.4473 105.165 99.9722 105.096 100.534 105.096C101.518 105.096 102.377 105.271 103.109 105.621C103.842 105.963 104.411 106.504 104.818 107.245C105.225 107.977 105.429 108.929 105.429 110.101V119H101.706V111.029C101.706 110.052 101.527 109.316 101.168 108.819C100.81 108.323 100.257 108.075 99.5083 108.075C98.7596 108.075 98.1696 108.25 97.7383 108.6C97.307 108.941 97.0018 109.45 96.8228 110.125C96.6437 110.793 96.5542 111.611 96.5542 112.579V119H92.8311V100.006H96.5542ZM118.783 114.947C118.783 115.875 118.563 116.66 118.124 117.303C117.693 117.938 117.046 118.422 116.183 118.756C115.32 119.081 114.246 119.244 112.96 119.244C112.008 119.244 111.19 119.183 110.507 119.061C109.831 118.939 109.148 118.736 108.456 118.451V115.375C109.197 115.708 109.99 115.985 110.836 116.205C111.691 116.416 112.44 116.522 113.083 116.522C113.807 116.522 114.324 116.416 114.633 116.205C114.95 115.985 115.109 115.7 115.109 115.35C115.109 115.122 115.044 114.919 114.914 114.74C114.792 114.553 114.523 114.345 114.108 114.117C113.693 113.881 113.042 113.576 112.155 113.202C111.3 112.844 110.596 112.481 110.043 112.115C109.498 111.749 109.091 111.318 108.822 110.821C108.562 110.317 108.432 109.678 108.432 108.905C108.432 107.643 108.92 106.695 109.896 106.061C110.881 105.418 112.195 105.096 113.839 105.096C114.686 105.096 115.491 105.182 116.256 105.353C117.029 105.523 117.823 105.796 118.637 106.17L117.514 108.856C116.838 108.563 116.199 108.323 115.597 108.136C115.003 107.949 114.397 107.855 113.778 107.855C113.233 107.855 112.822 107.928 112.545 108.075C112.269 108.221 112.13 108.445 112.13 108.746C112.13 108.966 112.2 109.161 112.338 109.332C112.484 109.503 112.761 109.694 113.168 109.906C113.583 110.109 114.189 110.374 114.987 110.699C115.76 111.017 116.431 111.35 117.001 111.7C117.571 112.042 118.01 112.469 118.319 112.982C118.629 113.486 118.783 114.142 118.783 114.947Z" fill="black"/>
<defs>
<clipPath id="clip0_69_945">
<rect width="44" height="44" fill="white" transform="translate(69)"/>
</clipPath>
</defs>
</svg>
