<svg width="130" height="45" viewBox="0 0 130 45" fill="none" xmlns="http://www.w3.org/2000/svg">
  <rect width="130" height="45" fill="#01183E"/>
  <path d="M14.544 17.296C13.9467 17.296 13.456 17.44 13.072 17.728C12.688 18.0053 12.496 18.448 12.496 19.056C12.496 19.3333 12.5333 19.5787 12.608 19.792C12.6827 20.0053 12.8053 20.1973 12.976 20.368C13.1573 20.5387 13.392 20.704 13.68 20.864C13.968 21.0133 14.3253 21.168 14.752 21.328C15.168 21.488 15.5627 21.664 15.936 21.856C16.3093 22.048 16.6347 22.2827 16.912 22.56C17.2 22.8373 17.424 23.1733 17.584 23.568C17.7547 23.9627 17.84 24.4427 17.84 25.008C17.84 25.4453 17.7493 25.8613 17.568 26.256C17.3973 26.6507 17.152 26.9973 16.832 27.296C16.5227 27.584 16.1493 27.8133 15.712 27.984C15.2747 28.1547 14.7947 28.24 14.272 28.24C13.7387 28.24 13.2693 28.1707 12.864 28.032C12.4693 27.904 12.128 27.7333 11.84 27.52C11.552 27.296 11.312 27.0453 11.12 26.768C10.9387 26.4907 10.7947 26.2027 10.688 25.904L11.84 25.472C11.9147 25.6853 12.0107 25.8933 12.128 26.096C12.256 26.2987 12.416 26.48 12.608 26.64C12.8 26.7893 13.0293 26.912 13.296 27.008C13.5733 27.104 13.904 27.152 14.288 27.152C14.544 27.152 14.8 27.12 15.056 27.056C15.312 26.9813 15.5413 26.864 15.744 26.704C15.9573 26.544 16.128 26.3307 16.256 26.064C16.384 25.7973 16.448 25.472 16.448 25.088C16.448 24.6827 16.3947 24.3467 16.288 24.08C16.192 23.8133 16.032 23.5787 15.808 23.376C15.5947 23.1733 15.312 22.992 14.96 22.832C14.608 22.672 14.1867 22.4907 13.696 22.288C12.832 21.936 12.192 21.5093 11.776 21.008C11.3707 20.5067 11.168 19.888 11.168 19.152C11.168 18.7467 11.2427 18.368 11.392 18.016C11.5413 17.6533 11.76 17.344 12.048 17.088C12.336 16.8213 12.6827 16.6133 13.088 16.464C13.504 16.3147 13.9787 16.24 14.512 16.24C15.4187 16.24 16.128 16.4267 16.64 16.8C17.152 17.1627 17.5467 17.6587 17.824 18.288L16.64 18.704C16.4587 18.256 16.208 17.9093 15.888 17.664C15.568 17.4187 15.12 17.296 14.544 17.296ZM20.0456 28V19.36H21.1336L21.2136 20.368C21.5123 19.92 21.859 19.6 22.2536 19.408C22.659 19.216 23.0643 19.12 23.4696 19.12C23.9923 19.12 24.4403 19.2267 24.8136 19.44C25.1976 19.6427 25.4963 19.9893 25.7096 20.48C26.019 20 26.3923 19.6533 26.8296 19.44C27.2776 19.2267 27.715 19.12 28.1416 19.12C28.515 19.12 28.8563 19.168 29.1656 19.264C29.475 19.3493 29.7416 19.4987 29.9656 19.712C30.1896 19.9253 30.3603 20.2133 30.4776 20.576C30.6056 20.9387 30.6696 21.392 30.6696 21.936V28H29.3896V22.176C29.3896 21.7813 29.3576 21.456 29.2936 21.2C29.2296 20.9333 29.1336 20.7253 29.0056 20.576C28.8883 20.416 28.7336 20.3093 28.5416 20.256C28.3496 20.192 28.1256 20.16 27.8696 20.16C27.4643 20.16 27.1123 20.2773 26.8136 20.512C26.515 20.7467 26.243 21.0613 25.9976 21.456V28H24.7176V22.016C24.7176 20.7787 24.211 20.16 23.1976 20.16C22.7923 20.16 22.4403 20.2773 22.1416 20.512C21.843 20.7467 21.571 21.0613 21.3256 21.456V28H20.0456ZM37.6808 28L37.6168 27.04C37.3821 27.36 37.0728 27.6267 36.6888 27.84C36.3154 28.0533 35.8354 28.16 35.2488 28.16C34.9394 28.16 34.6248 28.112 34.3048 28.016C33.9954 27.9307 33.7128 27.792 33.4568 27.6C33.2114 27.3973 33.0088 27.1413 32.8488 26.832C32.6888 26.5227 32.6088 26.144 32.6088 25.696C32.6088 24.7573 32.9928 24.016 33.7608 23.472C34.5394 22.928 35.7874 22.64 37.5048 22.608V21.888C37.5048 21.376 37.3768 20.9547 37.1208 20.624C36.8754 20.2827 36.4541 20.112 35.8568 20.112C35.3981 20.112 35.0141 20.2293 34.7048 20.464C34.4061 20.688 34.1768 21.0187 34.0168 21.456L32.8488 21.008C33.1048 20.432 33.4888 19.9733 34.0008 19.632C34.5128 19.2907 35.1421 19.12 35.8888 19.12C36.3794 19.12 36.8061 19.1893 37.1688 19.328C37.5314 19.456 37.8301 19.6373 38.0648 19.872C38.3101 20.096 38.4914 20.368 38.6088 20.688C38.7261 20.9973 38.7848 21.3333 38.7848 21.696V28H37.6808ZM35.6008 27.136C36.0061 27.136 36.3634 27.0453 36.6727 26.864C36.9821 26.6827 37.2594 26.4533 37.5048 26.176V23.616C36.2781 23.6373 35.3768 23.8133 34.8008 24.144C34.2248 24.464 33.9368 24.9493 33.9368 25.6C33.9368 26.144 34.0968 26.5387 34.4168 26.784C34.7474 27.0187 35.1421 27.136 35.6008 27.136ZM41.3425 28V19.36H42.5105L42.5585 20.576C42.7718 20.096 43.0438 19.7387 43.3745 19.504C43.7052 19.2693 44.0732 19.152 44.4785 19.152C44.6278 19.152 44.7558 19.1573 44.8625 19.168C44.9692 19.1787 45.0972 19.2107 45.2465 19.264L44.9265 20.464C44.8305 20.4427 44.7292 20.4267 44.6225 20.416C44.5265 20.3947 44.4145 20.384 44.2865 20.384C44.0732 20.384 43.8812 20.432 43.7105 20.528C43.5505 20.6133 43.4012 20.736 43.2625 20.896C43.1345 21.056 43.0172 21.2427 42.9105 21.456C42.8038 21.6587 42.7078 21.872 42.6225 22.096V28H41.3425ZM50.479 27.84C50.0737 28.0107 49.6203 28.096 49.119 28.096C48.415 28.096 47.8817 27.904 47.519 27.52C47.1563 27.136 46.975 26.608 46.975 25.936V20.4H45.615L45.775 19.36H46.991L47.071 17.28H48.255V19.36H50.111V20.4H48.255V25.872C48.255 26.2987 48.351 26.5973 48.543 26.768C48.735 26.9387 48.9963 27.024 49.327 27.024C49.487 27.024 49.6203 27.0133 49.727 26.992C49.8443 26.96 49.9883 26.9173 50.159 26.864L50.479 27.84ZM55.0228 16.48C56.2174 16.48 57.0921 16.7307 57.6468 17.232C58.2121 17.7333 58.4948 18.4267 58.4948 19.312C58.4948 19.6107 58.4468 19.8987 58.3508 20.176C58.2654 20.4427 58.1374 20.688 57.9668 20.912C57.8068 21.136 57.6094 21.3333 57.3748 21.504C57.1508 21.664 56.9054 21.7813 56.6388 21.856C56.9268 21.8987 57.2148 21.984 57.5028 22.112C57.7908 22.24 58.0468 22.4213 58.2708 22.656C58.4948 22.88 58.6761 23.1627 58.8148 23.504C58.9534 23.8453 59.0228 24.256 59.0228 24.736C59.0228 25.3227 58.9108 25.824 58.6868 26.24C58.4734 26.656 58.1854 26.9973 57.8228 27.264C57.4601 27.52 57.0441 27.7067 56.5748 27.824C56.1161 27.9413 55.6414 28 55.1508 28H52.1588V16.48H55.0228ZM53.5188 22.384V26.96H55.1188C55.4388 26.96 55.7428 26.9227 56.0308 26.848C56.3294 26.7733 56.5961 26.6507 56.8308 26.48C57.0654 26.2987 57.2521 26.0693 57.3908 25.792C57.5294 25.504 57.5988 25.152 57.5988 24.736C57.5988 23.968 57.3854 23.3867 56.9588 22.992C56.5321 22.5867 55.8974 22.384 55.0548 22.384H53.5188ZM53.5188 17.424V21.408H54.9908C55.7268 21.408 56.2654 21.2267 56.6068 20.864C56.9588 20.5013 57.1348 20 57.1348 19.36C57.1348 18.6773 56.9374 18.1867 56.5428 17.888C56.1588 17.5787 55.6414 17.424 54.9908 17.424H53.5188ZM65.5401 28L65.4761 27.04C65.2415 27.36 64.9321 27.6267 64.5481 27.84C64.1748 28.0533 63.6948 28.16 63.1081 28.16C62.7988 28.16 62.4841 28.112 62.1641 28.016C61.8548 27.9307 61.5721 27.792 61.3161 27.6C61.0708 27.3973 60.8681 27.1413 60.7081 26.832C60.5481 26.5227 60.4681 26.144 60.4681 25.696C60.4681 24.7573 60.8521 24.016 61.6201 23.472C62.3988 22.928 63.6468 22.64 65.3641 22.608V21.888C65.3641 21.376 65.2361 20.9547 64.9801 20.624C64.7348 20.2827 64.3135 20.112 63.7161 20.112C63.2575 20.112 62.8735 20.2293 62.5641 20.464C62.2655 20.688 62.0361 21.0187 61.8761 21.456L60.7081 21.008C60.9641 20.432 61.3481 19.9733 61.8601 19.632C62.3721 19.2907 63.0015 19.12 63.7481 19.12C64.2388 19.12 64.6655 19.1893 65.0281 19.328C65.3908 19.456 65.6895 19.6373 65.9241 19.872C66.1695 20.096 66.3508 20.368 66.4681 20.688C66.5855 20.9973 66.6441 21.3333 66.6441 21.696V28H65.5401ZM63.4601 27.136C63.8655 27.136 64.2228 27.0453 64.5321 26.864C64.8415 26.6827 65.1188 26.4533 65.3641 26.176V23.616C64.1375 23.6373 63.2361 23.8133 62.6601 24.144C62.0841 24.464 61.7961 24.9493 61.7961 25.6C61.7961 26.144 61.9561 26.5387 62.2761 26.784C62.6068 27.0187 63.0015 27.136 63.4601 27.136ZM69.2019 28V19.36H70.2899L70.3859 20.496C70.7272 19.9947 71.1219 19.6427 71.5699 19.44C72.0285 19.2267 72.4712 19.12 72.8979 19.12C73.2712 19.12 73.6125 19.1733 73.9219 19.28C74.2312 19.376 74.4925 19.5413 74.7059 19.776C74.9299 20.0107 75.1005 20.32 75.2179 20.704C75.3459 21.0773 75.4099 21.5413 75.4099 22.096V28H74.1299V22.336C74.1299 21.92 74.0979 21.5733 74.0339 21.296C73.9699 21.008 73.8739 20.784 73.7459 20.624C73.6285 20.4533 73.4739 20.336 73.2819 20.272C73.0899 20.1973 72.8659 20.16 72.6099 20.16C72.1832 20.16 71.7939 20.288 71.4419 20.544C71.0899 20.8 70.7699 21.152 70.4819 21.6V28H69.2019ZM77.9675 28V16.24H79.2475V22.96L82.4155 19.36H84.0795L80.6075 23.12L84.6075 28H82.9755L79.2475 23.44V28H77.9675Z" fill="#E6ECF7"/>
  <path d="M114.424 16.3645C114.413 16.4699 114.407 16.5902 114.404 16.7207L112.907 17.4359C112.697 17.4016 111.657 17.4621 110.105 16.6965C109.712 16.5023 109.327 16.3992 108.958 16.3992C108.624 16.3997 108.295 16.4793 107.998 16.6316C107.606 16.5469 107.041 16.3297 106.711 16.3305C105.964 16.3344 104.266 16.9426 103.796 16.9945C103.336 17.0449 102.862 17.1715 102.385 17.373C101.518 17.1207 100.432 16.7086 99.8496 16.4809L95.7812 13.5156V23.0508L98.7711 24.4734C98.8145 24.4227 98.8641 24.3445 98.918 24.2477L99.0105 24.2906C99.0559 24.4078 99.1059 24.5246 99.1605 24.6406C98.8324 25.193 98.7934 25.8152 99.0555 26.3563C99.2801 26.8191 99.6984 27.1441 100.164 27.2352C100.19 27.5234 100.287 27.8023 100.45 28.0441C100.743 28.4766 101.209 28.7348 101.696 28.7348C101.741 28.7348 101.785 28.7328 101.829 28.7277C101.898 28.9156 102 29.0906 102.132 29.2422C102.427 29.5809 102.839 29.775 103.264 29.775C103.295 29.775 103.325 29.7742 103.356 29.7719C103.41 29.9766 103.502 30.1703 103.63 30.343C103.925 30.7414 104.38 30.9785 104.848 30.9785C105.139 30.9785 105.416 30.8895 105.661 30.7227C106.135 31.0266 106.546 31.2402 106.912 31.3715C107.095 31.4461 107.286 31.4844 107.48 31.4844C107.94 31.4844 108.387 31.2695 108.705 30.8937C108.824 30.7539 108.92 30.5977 108.99 30.4305C109.128 30.4721 109.271 30.4935 109.415 30.4937C109.904 30.4937 110.368 30.2543 110.688 29.8355C110.841 29.6371 110.951 29.4097 111.012 29.1672C111.046 29.1695 111.079 29.1707 111.113 29.1707C111.678 29.1707 112.219 28.8391 112.523 28.3051C112.683 28.0273 112.767 27.7129 112.769 27.3926C113.327 27.3094 113.819 26.9121 114.059 26.3328C114.295 25.7621 114.23 25.1324 113.901 24.6074L115.423 23.75C115.462 23.8836 115.5 24.0066 115.537 24.1066L119.219 22.1477V14.157L114.424 16.3645ZM114.423 17.5508C114.448 17.9734 114.492 18.4512 114.549 18.95C114.236 18.425 113.842 18.1855 113.352 18.0664L114.423 17.5508ZM112.381 26.8305C111.542 26.5418 109.796 24.4887 109.796 24.4887H109.83C110.008 24.4762 110.392 24.2891 110.823 24.3785C110.146 23.7973 109.402 24.2891 108.895 23.9879C109.013 24.3648 109.578 24.4836 109.723 24.4883L111.396 26.4344C112.154 27.3152 111.627 28.4051 110.867 28.5785C110.357 28.3305 108.918 26.6184 108.918 26.6184C108.967 26.6094 109.259 26.518 109.556 26.557C108.87 26.0438 108.091 26.4891 107.63 26.1668C107.891 26.8133 108.754 26.6477 108.844 26.632L109.739 27.775C110.455 28.6891 109.893 29.7449 109.132 29.8879C108.457 29.6508 108.019 28.807 108.019 28.807C108.087 28.7961 108.314 28.6949 108.638 28.7418C108.062 28.2375 107.393 28.6949 106.99 28.4078C107.239 28.95 107.859 28.8266 107.894 28.8227C108.514 29.7996 107.871 30.8184 107.102 30.8488H107.101L107.1 30.8492C106.639 30.7691 106.155 30.4 105.609 30.0211C105.796 29.8133 105.962 29.448 105.962 29.448C106.511 28.4551 105.799 27.577 105.064 27.6523C105.66 27.8152 106.107 28.5762 105.642 29.4211L105.438 29.7648C105.216 30.1691 104.869 30.4133 104.614 30.3832C104.222 30.3355 103.67 29.7629 103.902 28.9551C103.992 28.873 104.858 27.5477 104.858 27.5477C105.454 26.5883 104.785 25.6699 104.048 25.7012C104.635 25.8992 105.046 26.6859 104.541 27.5023L103.836 28.6004C103.596 28.9887 103.285 29.2086 102.989 29.168C102.529 29.1055 102.206 28.5441 102.28 27.9648C102.276 27.9684 102.787 27.3969 102.787 27.3969C103.466 26.5098 102.884 25.5191 102.149 25.4672C102.714 25.7305 103.051 26.5602 102.474 27.3152L102.225 27.6207C101.951 27.9793 101.622 28.1617 101.334 28.0898C100.83 27.9637 100.569 27.0223 100.807 26.7656C100.994 26.5637 101.519 25.9242 101.519 25.9242C102.198 25.0367 101.617 24.0465 100.881 23.9938C101.446 24.2578 101.783 25.0875 101.206 25.843L100.957 26.1477C100.682 26.5094 100.352 26.691 100.061 26.6172C99.4566 26.4641 99.1547 25.5305 99.7332 24.7727C99.7332 24.7727 99.5367 24.1484 99.448 23.8816L99.1566 23.7465C99.8398 22.1547 100.872 18.6414 100.92 17.4742C101.423 17.6535 102.751 18.0355 102.892 18.0363L102.891 18.0371C104.321 17.5879 105.819 17.6375 106.503 17.3734C106.724 17.2891 107.165 17.2836 107.632 17.5508C107.34 17.8066 107.064 18.1113 106.778 18.3953C106.094 19.0746 103.549 20.134 104.04 21.248C104.463 22.2094 105.656 23.193 107.656 21.6488L108.781 21.4941L110.531 22.3574L112.773 24.6602C113.573 25.4797 113.12 26.5922 112.381 26.8305ZM112.944 24.2934C112.687 23.8129 111.886 23.025 111.129 22.3809L111.125 22.3762C111.473 22.3902 111.839 21.8285 112.312 21.7852C111.982 21.5328 111.434 21.8242 111.264 21.8703C110.323 22.1234 108.86 20.9395 108.86 20.9395L107.461 21.141C107.461 21.141 105.797 23.1719 104.395 21.4988C103.634 20.5902 106.393 19.4035 107.072 18.7281C107.943 17.8629 108.719 16.8043 110.151 17.5254C111.341 18.1254 111.81 18.0883 113.406 18.366C113.882 18.4492 114.211 18.6672 114.565 19.0926C114.731 20.4926 115 22.0453 115.259 23.1258C115.125 23.2379 113.984 24.0059 112.944 24.2934Z" fill="white"/>
  </svg>
  