<svg width="60" height="60" viewBox="0 0 60 60" fill="none" xmlns="http://www.w3.org/2000/svg">
  <g clip-path="url(#clip0_185_309)">
    <path
      d="M54.125 23.2161L47.15 16.2411C46.35 15.4411 45 15.9911 45 17.1161V21.5911H10C8.625 21.5911 7.5 22.7161 7.5 24.0911C7.5 25.4661 8.625 26.5911 10 26.5911H45V31.0661C45 32.1911 46.35 32.7411 47.125 31.9411L54.1 24.9661C54.6 24.4911 54.6 23.6911 54.125 23.2161Z"
      fill="#323232" />
    <path
      d="M5.87516 44.9661L12.8502 51.9411C13.6502 52.7411 15.0002 52.1911 15.0002 51.0661V46.5911H50.0002C51.3752 46.5911 52.5002 45.4661 52.5002 44.0911C52.5002 42.7161 51.3752 41.5911 50.0002 41.5911H15.0002V37.1161C15.0002 35.9911 13.6502 35.4411 12.8752 36.2411L5.90016 43.2161C5.40016 43.6911 5.40016 44.4911 5.87516 44.9661Z"
      fill="currentColor" />
  </g>
  <defs>
    <clipPath id="clip0_185_309">
      <rect width="60" height="60" fill="white" />
    </clipPath>
  </defs>
</svg>