<svg width="169" height="126" viewBox="0 0 169 126" fill="none" xmlns="http://www.w3.org/2000/svg">
<path d="M8.74316 74.856H13.4673V77.5293H8.74316V82.229H6.06982V77.5293H1.3457V74.856H6.06982V70.0952H8.74316V74.856ZM24.9053 85H21.1333V74.6729C21.1333 74.388 21.1374 74.0381 21.1455 73.623C21.1536 73.1999 21.1659 72.7686 21.1821 72.3291C21.1984 71.8815 21.2147 71.4787 21.231 71.1206C21.1414 71.2264 20.9583 71.4095 20.6816 71.6699C20.4131 71.9222 20.1608 72.1501 19.9248 72.3535L17.874 74.0015L16.0552 71.731L21.8047 67.1533H24.9053V85ZM38.687 85L34.3901 70.9985H34.2803C34.2965 71.3322 34.321 71.8368 34.3535 72.5122C34.3942 73.1795 34.4308 73.8916 34.4634 74.6484C34.4959 75.4053 34.5122 76.0889 34.5122 76.6992V85H31.1309V67.1533H36.2822L40.5059 80.8008H40.5791L45.0591 67.1533H50.2104V85H46.6826V76.5527C46.6826 75.9912 46.6908 75.3442 46.707 74.6118C46.7314 73.8794 46.7599 73.1836 46.7925 72.5244C46.825 71.8571 46.8494 71.3566 46.8657 71.0229H46.7559L42.1538 85H38.687ZM75.7354 67.1533V78.7012C75.7354 79.93 75.4627 81.0409 74.9175 82.0337C74.3804 83.0184 73.5625 83.7996 72.4639 84.3774C71.3734 84.9552 69.998 85.2441 68.3379 85.2441C65.9779 85.2441 64.1794 84.6419 62.9424 83.4375C61.7054 82.2331 61.0869 80.638 61.0869 78.6523V67.1533H64.8589V78.0786C64.8589 79.5516 65.16 80.5851 65.7622 81.1792C66.3644 81.7733 67.2555 82.0703 68.4355 82.0703C69.2656 82.0703 69.937 81.9279 70.4497 81.6431C70.9705 81.3582 71.353 80.9188 71.5972 80.3247C71.8413 79.7306 71.9634 78.9738 71.9634 78.0542V67.1533H75.7354ZM89.334 80.9473C89.334 81.875 89.1143 82.6603 88.6748 83.3032C88.2435 83.938 87.5965 84.4222 86.7339 84.7559C85.8713 85.0814 84.797 85.2441 83.5112 85.2441C82.5591 85.2441 81.7412 85.1831 81.0576 85.061C80.3822 84.939 79.6986 84.7355 79.0068 84.4507V81.3745C79.7474 81.7082 80.5409 81.9849 81.3872 82.2046C82.2417 82.4162 82.9904 82.522 83.6333 82.522C84.3576 82.522 84.8743 82.4162 85.1836 82.2046C85.501 81.9849 85.6597 81.7 85.6597 81.3501C85.6597 81.1222 85.5946 80.9188 85.4644 80.7397C85.3423 80.5526 85.0737 80.3451 84.6587 80.1172C84.2437 79.8812 83.5926 79.576 82.7056 79.2017C81.8511 78.8436 81.1471 78.4814 80.5938 78.1152C80.0485 77.749 79.6416 77.3177 79.373 76.8213C79.1126 76.3167 78.9824 75.6779 78.9824 74.9048C78.9824 73.6434 79.4707 72.6953 80.4473 72.0605C81.432 71.4176 82.7463 71.0962 84.3901 71.0962C85.2365 71.0962 86.0422 71.1816 86.8071 71.3525C87.5802 71.5234 88.3737 71.7961 89.1875 72.1704L88.0645 74.856C87.389 74.563 86.7502 74.3229 86.1479 74.1357C85.5539 73.9486 84.9476 73.855 84.3291 73.855C83.7839 73.855 83.3729 73.9282 83.0962 74.0747C82.8195 74.2212 82.6812 74.445 82.6812 74.7461C82.6812 74.9658 82.7503 75.1611 82.8887 75.332C83.0352 75.5029 83.3118 75.6942 83.7188 75.9058C84.1338 76.1092 84.7401 76.3737 85.5376 76.6992C86.3107 77.0166 86.9821 77.3503 87.5518 77.7002C88.1214 78.042 88.5609 78.4692 88.8701 78.9819C89.1794 79.4865 89.334 80.1416 89.334 80.9473ZM104.764 71.3525V85H101.907L101.407 83.2544H101.211C100.918 83.7183 100.552 84.0967 100.113 84.3896C99.6733 84.6826 99.1891 84.8983 98.6602 85.0366C98.1312 85.175 97.5819 85.2441 97.0122 85.2441C96.0356 85.2441 95.1852 85.0732 94.4609 84.7314C93.7367 84.3815 93.1711 83.8403 92.7642 83.1079C92.3654 82.3755 92.166 81.4233 92.166 80.2515V71.3525H95.8892V79.3237C95.8892 80.3003 96.0641 81.0368 96.4141 81.5332C96.764 82.0296 97.3215 82.2778 98.0864 82.2778C98.8433 82.2778 99.4373 82.1069 99.8687 81.7651C100.3 81.4152 100.601 80.9066 100.772 80.2393C100.951 79.5638 101.041 78.7419 101.041 77.7734V71.3525H104.764ZM114.261 71.0718C116.092 71.0718 117.496 71.4705 118.472 72.2681C119.449 73.0656 119.937 74.2782 119.937 75.9058V85H117.337L116.617 83.1445H116.519C116.128 83.6328 115.73 84.0316 115.323 84.3408C114.916 84.6501 114.448 84.8779 113.919 85.0244C113.39 85.1709 112.747 85.2441 111.99 85.2441C111.185 85.2441 110.46 85.0895 109.817 84.7803C109.183 84.471 108.682 83.999 108.316 83.3643C107.95 82.7214 107.767 81.9076 107.767 80.9229C107.767 79.4743 108.275 78.4082 109.292 77.7246C110.31 77.0329 111.836 76.6504 113.87 76.5771L116.238 76.5039V75.9058C116.238 75.1896 116.051 74.6647 115.677 74.3311C115.302 73.9974 114.782 73.8306 114.114 73.8306C113.455 73.8306 112.808 73.9242 112.173 74.1113C111.539 74.2985 110.904 74.5345 110.269 74.8193L109.036 72.3047C109.76 71.9222 110.57 71.6211 111.465 71.4014C112.369 71.1816 113.3 71.0718 114.261 71.0718ZM116.238 78.6768L114.798 78.7256C113.593 78.7581 112.755 78.9738 112.283 79.3726C111.819 79.7713 111.587 80.2962 111.587 80.9473C111.587 81.5169 111.754 81.9238 112.088 82.168C112.422 82.404 112.857 82.522 113.394 82.522C114.192 82.522 114.863 82.286 115.408 81.814C115.962 81.342 116.238 80.6706 116.238 79.7998V78.6768ZM131.399 71.0962C131.587 71.0962 131.802 71.1084 132.046 71.1328C132.299 71.1491 132.502 71.1735 132.657 71.2061L132.376 74.6973C132.254 74.6566 132.079 74.6281 131.851 74.6118C131.631 74.5874 131.44 74.5752 131.277 74.5752C130.797 74.5752 130.329 74.6362 129.874 74.7583C129.426 74.8804 129.023 75.0798 128.665 75.3564C128.307 75.625 128.022 75.9831 127.811 76.4307C127.607 76.8701 127.505 77.4113 127.505 78.0542V85H123.782V71.3525H126.602L127.151 73.6475H127.334C127.603 73.1836 127.937 72.7604 128.335 72.3779C128.742 71.9873 129.202 71.6781 129.715 71.4502C130.236 71.2142 130.797 71.0962 131.399 71.0962ZM138.858 71.3525V85H135.135V71.3525H138.858ZM137.002 66.0059C137.556 66.0059 138.032 66.1361 138.431 66.3965C138.829 66.6488 139.029 67.1248 139.029 67.8247C139.029 68.5164 138.829 68.9966 138.431 69.2651C138.032 69.5256 137.556 69.6558 137.002 69.6558C136.441 69.6558 135.961 69.5256 135.562 69.2651C135.171 68.9966 134.976 68.5164 134.976 67.8247C134.976 67.1248 135.171 66.6488 135.562 66.3965C135.961 66.1361 136.441 66.0059 137.002 66.0059ZM155.179 78.1519C155.179 79.2912 155.024 80.3003 154.715 81.1792C154.414 82.0581 153.97 82.8027 153.384 83.4131C152.806 84.0153 152.107 84.471 151.285 84.7803C150.471 85.0895 149.551 85.2441 148.526 85.2441C147.566 85.2441 146.683 85.0895 145.877 84.7803C145.079 84.471 144.384 84.0153 143.79 83.4131C143.204 82.8027 142.748 82.0581 142.422 81.1792C142.105 80.3003 141.946 79.2912 141.946 78.1519C141.946 76.6382 142.215 75.3564 142.752 74.3066C143.289 73.2568 144.054 72.4593 145.047 71.9141C146.04 71.3688 147.224 71.0962 148.599 71.0962C149.877 71.0962 151.008 71.3688 151.993 71.9141C152.986 72.4593 153.763 73.2568 154.324 74.3066C154.894 75.3564 155.179 76.6382 155.179 78.1519ZM145.743 78.1519C145.743 79.047 145.84 79.7998 146.036 80.4102C146.231 81.0205 146.536 81.4803 146.951 81.7896C147.366 82.0988 147.907 82.2534 148.575 82.2534C149.234 82.2534 149.767 82.0988 150.174 81.7896C150.589 81.4803 150.89 81.0205 151.077 80.4102C151.272 79.7998 151.37 79.047 151.37 78.1519C151.37 77.2485 151.272 76.4998 151.077 75.9058C150.89 75.3035 150.589 74.8519 150.174 74.5508C149.759 74.2497 149.218 74.0991 148.55 74.0991C147.566 74.0991 146.849 74.4368 146.402 75.1123C145.962 75.7878 145.743 76.8009 145.743 78.1519ZM167.776 80.9473C167.776 81.875 167.557 82.6603 167.117 83.3032C166.686 83.938 166.039 84.4222 165.176 84.7559C164.314 85.0814 163.239 85.2441 161.954 85.2441C161.001 85.2441 160.184 85.1831 159.5 85.061C158.825 84.939 158.141 84.7355 157.449 84.4507V81.3745C158.19 81.7082 158.983 81.9849 159.83 82.2046C160.684 82.4162 161.433 82.522 162.076 82.522C162.8 82.522 163.317 82.4162 163.626 82.2046C163.943 81.9849 164.102 81.7 164.102 81.3501C164.102 81.1222 164.037 80.9188 163.907 80.7397C163.785 80.5526 163.516 80.3451 163.101 80.1172C162.686 79.8812 162.035 79.576 161.148 79.2017C160.293 78.8436 159.59 78.4814 159.036 78.1152C158.491 77.749 158.084 77.3177 157.815 76.8213C157.555 76.3167 157.425 75.6779 157.425 74.9048C157.425 73.6434 157.913 72.6953 158.89 72.0605C159.874 71.4176 161.189 71.0962 162.833 71.0962C163.679 71.0962 164.485 71.1816 165.25 71.3525C166.023 71.5234 166.816 71.7961 167.63 72.1704L166.507 74.856C165.831 74.563 165.193 74.3229 164.59 74.1357C163.996 73.9486 163.39 73.855 162.771 73.855C162.226 73.855 161.815 73.9282 161.539 74.0747C161.262 74.2212 161.124 74.445 161.124 74.7461C161.124 74.9658 161.193 75.1611 161.331 75.332C161.478 75.5029 161.754 75.6942 162.161 75.9058C162.576 76.1092 163.182 76.3737 163.98 76.6992C164.753 77.0166 165.424 77.3503 165.994 77.7002C166.564 78.042 167.003 78.4692 167.312 78.9819C167.622 79.4865 167.776 80.1416 167.776 80.9473ZM47.7324 105.072C49.5635 105.072 50.9673 105.471 51.9438 106.268C52.9204 107.066 53.4087 108.278 53.4087 109.906V119H50.8086L50.0884 117.145H49.9907C49.6001 117.633 49.2013 118.032 48.7944 118.341C48.3875 118.65 47.9196 118.878 47.3906 119.024C46.8617 119.171 46.2188 119.244 45.4619 119.244C44.6562 119.244 43.932 119.09 43.2891 118.78C42.6543 118.471 42.1538 117.999 41.7876 117.364C41.4214 116.721 41.2383 115.908 41.2383 114.923C41.2383 113.474 41.7469 112.408 42.7642 111.725C43.7814 111.033 45.3073 110.65 47.3418 110.577L49.71 110.504V109.906C49.71 109.19 49.5228 108.665 49.1484 108.331C48.7741 107.997 48.2533 107.831 47.5859 107.831C46.9268 107.831 46.2798 107.924 45.645 108.111C45.0103 108.299 44.3755 108.535 43.7407 108.819L42.5078 106.305C43.2321 105.922 44.0418 105.621 44.937 105.401C45.8403 105.182 46.7721 105.072 47.7324 105.072ZM49.71 112.677L48.2695 112.726C47.0651 112.758 46.2269 112.974 45.7549 113.373C45.291 113.771 45.0591 114.296 45.0591 114.947C45.0591 115.517 45.2259 115.924 45.5596 116.168C45.8932 116.404 46.3286 116.522 46.8657 116.522C47.6632 116.522 48.3346 116.286 48.8799 115.814C49.4333 115.342 49.71 114.671 49.71 113.8V112.677ZM62.7959 119.244C61.445 119.244 60.2935 119 59.3413 118.512C58.3892 118.015 57.6649 117.25 57.1685 116.217C56.672 115.183 56.4238 113.861 56.4238 112.25C56.4238 110.581 56.7046 109.222 57.2661 108.172C57.8358 107.114 58.6211 106.337 59.6221 105.841C60.6312 105.344 61.799 105.096 63.1255 105.096C64.0695 105.096 64.8833 105.19 65.5669 105.377C66.2586 105.556 66.8608 105.772 67.3735 106.024L66.2749 108.905C65.689 108.669 65.1437 108.478 64.6392 108.331C64.1346 108.176 63.63 108.099 63.1255 108.099C62.4744 108.099 61.9333 108.254 61.502 108.563C61.0706 108.864 60.7492 109.32 60.5376 109.93C60.326 110.541 60.2202 111.306 60.2202 112.225C60.2202 113.128 60.3341 113.877 60.562 114.471C60.7899 115.065 61.1195 115.509 61.5508 115.802C61.9821 116.087 62.507 116.229 63.1255 116.229C63.8986 116.229 64.5863 116.127 65.1885 115.924C65.7907 115.712 66.3766 115.419 66.9463 115.045V118.231C66.3766 118.589 65.7785 118.845 65.1519 119C64.5334 119.163 63.748 119.244 62.7959 119.244ZM75.8696 116.278C76.2765 116.278 76.6712 116.237 77.0537 116.156C77.4443 116.074 77.8309 115.973 78.2134 115.851V118.622C77.8146 118.801 77.3182 118.947 76.7241 119.061C76.1382 119.183 75.4953 119.244 74.7954 119.244C73.9816 119.244 73.2492 119.114 72.5981 118.854C71.9552 118.585 71.4466 118.125 71.0723 117.474C70.7061 116.815 70.5229 115.899 70.5229 114.728V108.148H68.7407V106.573L70.7915 105.328L71.8657 102.447H74.2461V105.353H78.0669V108.148H74.2461V114.728C74.2461 115.248 74.3926 115.639 74.6855 115.899C74.9867 116.152 75.3813 116.278 75.8696 116.278ZM84.7075 105.353V119H80.9844V105.353H84.7075ZM82.8521 100.006C83.4054 100.006 83.8815 100.136 84.2803 100.396C84.679 100.649 84.8784 101.125 84.8784 101.825C84.8784 102.516 84.679 102.997 84.2803 103.265C83.8815 103.526 83.4054 103.656 82.8521 103.656C82.2905 103.656 81.8104 103.526 81.4116 103.265C81.021 102.997 80.8257 102.516 80.8257 101.825C80.8257 101.125 81.021 100.649 81.4116 100.396C81.8104 100.136 82.2905 100.006 82.8521 100.006ZM91.873 119L86.6729 105.353H90.5669L93.2036 113.128C93.3501 113.584 93.464 114.064 93.5454 114.569C93.6349 115.073 93.696 115.525 93.7285 115.924H93.8262C93.8506 115.493 93.9076 115.033 93.9971 114.544C94.0947 114.056 94.2209 113.584 94.3755 113.128L97 105.353H100.894L95.6938 119H91.873ZM115.262 112.152C115.262 113.291 115.107 114.3 114.798 115.179C114.497 116.058 114.053 116.803 113.467 117.413C112.889 118.015 112.19 118.471 111.368 118.78C110.554 119.09 109.634 119.244 108.609 119.244C107.649 119.244 106.766 119.09 105.96 118.78C105.162 118.471 104.467 118.015 103.873 117.413C103.287 116.803 102.831 116.058 102.505 115.179C102.188 114.3 102.029 113.291 102.029 112.152C102.029 110.638 102.298 109.356 102.835 108.307C103.372 107.257 104.137 106.459 105.13 105.914C106.123 105.369 107.307 105.096 108.682 105.096C109.96 105.096 111.091 105.369 112.076 105.914C113.069 106.459 113.846 107.257 114.407 108.307C114.977 109.356 115.262 110.638 115.262 112.152ZM105.826 112.152C105.826 113.047 105.923 113.8 106.119 114.41C106.314 115.021 106.619 115.48 107.034 115.79C107.449 116.099 107.99 116.253 108.658 116.253C109.317 116.253 109.85 116.099 110.257 115.79C110.672 115.48 110.973 115.021 111.16 114.41C111.355 113.8 111.453 113.047 111.453 112.152C111.453 111.249 111.355 110.5 111.16 109.906C110.973 109.304 110.672 108.852 110.257 108.551C109.842 108.25 109.301 108.099 108.633 108.099C107.649 108.099 106.932 108.437 106.485 109.112C106.045 109.788 105.826 110.801 105.826 112.152ZM127.859 114.947C127.859 115.875 127.64 116.66 127.2 117.303C126.769 117.938 126.122 118.422 125.259 118.756C124.397 119.081 123.322 119.244 122.037 119.244C121.084 119.244 120.267 119.183 119.583 119.061C118.908 118.939 118.224 118.736 117.532 118.451V115.375C118.273 115.708 119.066 115.985 119.913 116.205C120.767 116.416 121.516 116.522 122.159 116.522C122.883 116.522 123.4 116.416 123.709 116.205C124.026 115.985 124.185 115.7 124.185 115.35C124.185 115.122 124.12 114.919 123.99 114.74C123.868 114.553 123.599 114.345 123.184 114.117C122.769 113.881 122.118 113.576 121.231 113.202C120.376 112.844 119.673 112.481 119.119 112.115C118.574 111.749 118.167 111.318 117.898 110.821C117.638 110.317 117.508 109.678 117.508 108.905C117.508 107.643 117.996 106.695 118.973 106.061C119.957 105.418 121.272 105.096 122.916 105.096C123.762 105.096 124.568 105.182 125.333 105.353C126.106 105.523 126.899 105.796 127.713 106.17L126.59 108.856C125.914 108.563 125.276 108.323 124.673 108.136C124.079 107.949 123.473 107.855 122.854 107.855C122.309 107.855 121.898 107.928 121.622 108.075C121.345 108.221 121.207 108.445 121.207 108.746C121.207 108.966 121.276 109.161 121.414 109.332C121.561 109.503 121.837 109.694 122.244 109.906C122.659 110.109 123.265 110.374 124.063 110.699C124.836 111.017 125.507 111.35 126.077 111.7C126.647 112.042 127.086 112.469 127.396 112.982C127.705 113.486 127.859 114.142 127.859 114.947Z" fill="black"/>
<path d="M84.9999 7.33325C86.9448 7.33325 88.8101 8.10587 90.1854 9.48114C91.5606 10.8564 92.3333 12.7217 92.3333 14.6666C92.3333 16.6115 91.5606 18.4768 90.1854 19.852C88.8101 21.2273 86.9448 21.9999 84.9999 21.9999C83.055 21.9999 81.1897 21.2273 79.8145 19.852C78.4392 18.4768 77.6666 16.6115 77.6666 14.6666C77.6666 12.7217 78.4392 10.8564 79.8145 9.48114C81.1897 8.10587 83.055 7.33325 84.9999 7.33325ZM84.9999 25.6666C93.1033 25.6666 99.6666 28.9483 99.6666 32.9999V36.6666H70.3333V32.9999C70.3333 28.9483 76.8966 25.6666 84.9999 25.6666Z" fill="black"/>
</svg>
 
