<svg width="95" height="71" viewBox="0 0 95 71" fill="none" xmlns="http://www.w3.org/2000/svg">
  <path
    d="M4.88678 41.919H7.5441V43.4227H4.88678V46.0663H3.38303V43.4227H0.725708V41.919H3.38303V39.2411H4.88678V41.919ZM13.978 47.625H11.8562V41.816C11.8562 41.6558 11.8585 41.4589 11.8631 41.2255C11.8677 40.9874 11.8745 40.7448 11.8837 40.4976C11.8929 40.2458 11.902 40.0193 11.9112 39.8178C11.8608 39.8773 11.7578 39.9803 11.6022 40.1268C11.4511 40.2687 11.3092 40.3969 11.1765 40.5114L10.0229 41.4383L8.99979 40.1612L12.2339 37.5862H13.978V47.625ZM21.7302 47.625L19.3132 39.7492H19.2514C19.2606 39.9369 19.2743 40.2207 19.2926 40.6006C19.3155 40.976 19.3361 41.3765 19.3544 41.8022C19.3727 42.228 19.3819 42.6125 19.3819 42.9558V47.625H17.4799V37.5862H20.3775L22.7533 45.2629H22.7945L25.3145 37.5862H28.2121V47.625H26.2277V42.8734C26.2277 42.5576 26.2323 42.1936 26.2415 41.7816C26.2552 41.3697 26.2712 40.9783 26.2895 40.6075C26.3078 40.2321 26.3216 39.9506 26.3307 39.7629H26.2689L23.6803 47.625H21.7302ZM42.5699 37.5862V44.0819C42.5699 44.7731 42.4165 45.398 42.1098 45.9565C41.8077 46.5103 41.3477 46.9498 40.7297 47.2748C40.1163 47.5998 39.3427 47.7623 38.4088 47.7623C37.0813 47.7623 36.0696 47.4236 35.3738 46.7461C34.678 46.0686 34.3301 45.1714 34.3301 44.0544V37.5862H36.4519V43.7317C36.4519 44.5603 36.6212 45.1416 36.96 45.4758C37.2987 45.81 37.8 45.9771 38.4637 45.9771C38.9307 45.9771 39.3083 45.8969 39.5967 45.7367C39.8897 45.5765 40.1048 45.3293 40.2422 44.9951C40.3795 44.661 40.4482 44.2353 40.4482 43.718V37.5862H42.5699ZM50.2191 45.3453C50.2191 45.8672 50.0955 46.3089 49.8483 46.6706C49.6057 47.0276 49.2418 47.3 48.7566 47.4877C48.2713 47.6708 47.6671 47.7623 46.9438 47.7623C46.4082 47.7623 45.9482 47.728 45.5637 47.6593C45.1837 47.5907 44.7992 47.4762 44.4101 47.316V45.5857C44.8267 45.7733 45.273 45.929 45.7491 46.0526C46.2297 46.1716 46.6508 46.2311 47.0125 46.2311C47.4199 46.2311 47.7106 46.1716 47.8845 46.0526C48.063 45.929 48.1523 45.7688 48.1523 45.5719C48.1523 45.4438 48.1157 45.3293 48.0424 45.2286C47.9738 45.1233 47.8227 45.0066 47.5893 44.8784C47.3558 44.7457 46.9896 44.574 46.4906 44.3634C46.01 44.162 45.614 43.9583 45.3027 43.7523C44.996 43.5463 44.7672 43.3037 44.6161 43.0245C44.4696 42.7407 44.3964 42.3813 44.3964 41.9464C44.3964 41.2369 44.671 40.7036 45.2203 40.3466C45.7742 39.9849 46.5135 39.8041 47.4382 39.8041C47.9143 39.8041 48.3675 39.8522 48.7978 39.9483C49.2326 40.0444 49.679 40.1978 50.1367 40.4084L49.505 41.919C49.1251 41.7542 48.7657 41.6191 48.427 41.5139C48.0928 41.4086 47.7518 41.3559 47.4039 41.3559C47.0972 41.3559 46.866 41.3971 46.7104 41.4795C46.5547 41.5619 46.4769 41.6878 46.4769 41.8572C46.4769 41.9808 46.5158 42.0906 46.5936 42.1868C46.676 42.2829 46.8317 42.3905 47.0605 42.5095C47.294 42.6239 47.635 42.7727 48.0836 42.9558C48.5185 43.1343 48.8962 43.322 49.2166 43.5189C49.537 43.7111 49.7842 43.9514 49.9582 44.2398C50.1321 44.5237 50.2191 44.8922 50.2191 45.3453ZM58.8983 39.9483V47.625H57.2916L57.01 46.6431H56.9002C56.7354 46.904 56.5294 47.1169 56.2822 47.2817C56.035 47.4465 55.7626 47.5678 55.4651 47.6456C55.1675 47.7234 54.8586 47.7623 54.5381 47.7623C53.9888 47.7623 53.5104 47.6662 53.103 47.4739C52.6956 47.2771 52.3775 46.9727 52.1486 46.5607C51.9243 46.1487 51.8121 45.6131 51.8121 44.9539V39.9483H53.9064V44.4321C53.9064 44.9814 54.0048 45.3957 54.2017 45.6749C54.3985 45.9542 54.7121 46.0938 55.1424 46.0938C55.5681 46.0938 55.9023 45.9977 56.1449 45.8054C56.3875 45.6086 56.5569 45.3224 56.653 44.9471C56.7537 44.5671 56.804 44.1048 56.804 43.5601V39.9483H58.8983ZM64.2404 39.7904C65.2704 39.7904 66.06 40.0147 66.6093 40.4633C67.1587 40.9119 67.4333 41.594 67.4333 42.5095V47.625H65.9708L65.5656 46.5813H65.5107C65.291 46.856 65.0667 47.0803 64.8378 47.2542C64.6089 47.4282 64.3457 47.5563 64.0482 47.6387C63.7506 47.7211 63.389 47.7623 62.9633 47.7623C62.5101 47.7623 62.1027 47.6754 61.741 47.5014C61.384 47.3275 61.1024 47.062 60.8965 46.7049C60.6905 46.3433 60.5875 45.8855 60.5875 45.3316C60.5875 44.5168 60.8736 43.9171 61.4458 43.5326C62.018 43.1435 62.8763 42.9283 64.0207 42.8871L65.3528 42.8459V42.5095C65.3528 42.1067 65.2475 41.8114 65.0369 41.6237C64.8264 41.436 64.5334 41.3422 64.158 41.3422C63.7872 41.3422 63.4233 41.3948 63.0663 41.5001C62.7092 41.6054 62.3521 41.7382 61.9951 41.8984L61.3016 40.4839C61.709 40.2687 62.1645 40.0994 62.668 39.9758C63.1761 39.8522 63.7003 39.7904 64.2404 39.7904ZM65.3528 44.0682L64.5425 44.0956C63.8651 44.114 63.3936 44.2353 63.1281 44.4596C62.8671 44.6839 62.7367 44.9791 62.7367 45.3453C62.7367 45.6658 62.8305 45.8947 63.0182 46.032C63.2059 46.1647 63.4508 46.2311 63.7529 46.2311C64.2015 46.2311 64.5792 46.0984 64.8859 45.8329C65.1971 45.5674 65.3528 45.1897 65.3528 44.6999V44.0682ZM73.8809 39.8041C73.9862 39.8041 74.1075 39.811 74.2448 39.8247C74.3867 39.8339 74.5012 39.8476 74.5882 39.8659L74.4302 41.8297C74.3616 41.8068 74.2632 41.7908 74.135 41.7816C74.0114 41.7679 73.9038 41.761 73.8123 41.761C73.5422 41.761 73.279 41.7954 73.0226 41.864C72.7708 41.9327 72.5443 42.0449 72.3428 42.2005C72.1414 42.3516 71.9812 42.553 71.8622 42.8047C71.7477 43.0519 71.6905 43.3564 71.6905 43.718V47.625H69.5963V39.9483H71.1824L71.4914 41.2392H71.5944C71.7455 40.9783 71.9331 40.7402 72.1574 40.5251C72.3863 40.3054 72.645 40.1314 72.9333 40.0032C73.2263 39.8705 73.5422 39.8041 73.8809 39.8041ZM78.0763 39.9483V47.625H75.9821V39.9483H78.0763ZM77.0326 36.9408C77.3439 36.9408 77.6117 37.014 77.836 37.1605C78.0603 37.3024 78.1725 37.5702 78.1725 37.9639C78.1725 38.353 78.0603 38.6231 77.836 38.7741C77.6117 38.9206 77.3439 38.9939 77.0326 38.9939C76.7168 38.9939 76.4467 38.9206 76.2224 38.7741C76.0027 38.6231 75.8928 38.353 75.8928 37.9639C75.8928 37.5702 76.0027 37.3024 76.2224 37.1605C76.4467 37.014 76.7168 36.9408 77.0326 36.9408ZM87.2568 43.7729C87.2568 44.4138 87.1698 44.9814 86.9958 45.4758C86.8265 45.9702 86.577 46.389 86.2474 46.7324C85.9224 47.0711 85.5287 47.3275 85.0664 47.5014C84.6086 47.6754 84.0913 47.7623 83.5146 47.7623C82.9744 47.7623 82.4777 47.6754 82.0245 47.5014C81.5759 47.3275 81.1845 47.0711 80.8504 46.7324C80.5208 46.389 80.2644 45.9702 80.0813 45.4758C79.9028 44.9814 79.8135 44.4138 79.8135 43.7729C79.8135 42.9215 79.9646 42.2005 80.2667 41.61C80.5688 41.0195 80.9991 40.5709 81.5576 40.2642C82.1161 39.9575 82.7821 39.8041 83.5558 39.8041C84.2744 39.8041 84.9107 39.9575 85.4646 40.2642C86.0231 40.5709 86.4603 41.0195 86.7761 41.61C87.0966 42.2005 87.2568 42.9215 87.2568 43.7729ZM81.949 43.7729C81.949 44.2765 82.0039 44.6999 82.1138 45.0432C82.2237 45.3865 82.3953 45.6452 82.6288 45.8191C82.8622 45.9931 83.1667 46.08 83.542 46.08C83.9128 46.08 84.2126 45.9931 84.4415 45.8191C84.675 45.6452 84.8444 45.3865 84.9496 45.0432C85.0595 44.6999 85.1144 44.2765 85.1144 43.7729C85.1144 43.2648 85.0595 42.8437 84.9496 42.5095C84.8444 42.1707 84.675 41.9167 84.4415 41.7473C84.2081 41.5779 83.9037 41.4933 83.5283 41.4933C82.9744 41.4933 82.5716 41.6832 82.3198 42.0632C82.0726 42.4431 81.949 43.013 81.949 43.7729ZM94.343 45.3453C94.343 45.8672 94.2194 46.3089 93.9722 46.6706C93.7296 47.0276 93.3656 47.3 92.8804 47.4877C92.3952 47.6708 91.7909 47.7623 91.0677 47.7623C90.5321 47.7623 90.072 47.728 89.6875 47.6593C89.3076 47.5907 88.923 47.4762 88.5339 47.316V45.5857C88.9505 45.7733 89.3968 45.929 89.8729 46.0526C90.3535 46.1716 90.7747 46.2311 91.1363 46.2311C91.5437 46.2311 91.8344 46.1716 92.0084 46.0526C92.1869 45.929 92.2762 45.7688 92.2762 45.5719C92.2762 45.4438 92.2395 45.3293 92.1663 45.2286C92.0976 45.1233 91.9466 45.0066 91.7131 44.8784C91.4796 44.7457 91.1134 44.574 90.6145 44.3634C90.1338 44.162 89.7379 43.9583 89.4266 43.7523C89.1199 43.5463 88.891 43.3037 88.7399 43.0245C88.5934 42.7407 88.5202 42.3813 88.5202 41.9464C88.5202 41.2369 88.7949 40.7036 89.3442 40.3466C89.8981 39.9849 90.6374 39.8041 91.562 39.8041C92.0381 39.8041 92.4913 39.8522 92.9216 39.9483C93.3565 40.0444 93.8028 40.1978 94.2606 40.4084L93.6288 41.919C93.2489 41.7542 92.8896 41.6191 92.5508 41.5139C92.2166 41.4086 91.8756 41.3559 91.5277 41.3559C91.221 41.3559 90.9898 41.3971 90.8342 41.4795C90.6786 41.5619 90.6007 41.6878 90.6007 41.8572C90.6007 41.9808 90.6396 42.0906 90.7175 42.1868C90.7999 42.2829 90.9555 42.3905 91.1844 42.5095C91.4178 42.6239 91.7589 42.7727 92.2075 42.9558C92.6424 43.1343 93.02 43.322 93.3405 43.5189C93.6609 43.7111 93.9081 43.9514 94.082 44.2398C94.256 44.5237 94.343 44.8922 94.343 45.3453ZM26.8182 58.7904C27.8482 58.7904 28.6378 59.0147 29.1872 59.4633C29.7365 59.9119 30.0111 60.594 30.0111 61.5095V66.625H28.5486L28.1435 65.5813H28.0885C27.8688 65.856 27.6445 66.0803 27.4156 66.2542C27.1867 66.4282 26.9235 66.5563 26.626 66.6387C26.3284 66.7211 25.9668 66.7623 25.5411 66.7623C25.0879 66.7623 24.6805 66.6754 24.3188 66.5014C23.9618 66.3275 23.6803 66.062 23.4743 65.7049C23.2683 65.3433 23.1653 64.8855 23.1653 64.3316C23.1653 63.5168 23.4514 62.9171 24.0236 62.5326C24.5958 62.1435 25.4541 61.9283 26.5985 61.8871L27.9306 61.8459V61.5095C27.9306 61.1067 27.8253 60.8114 27.6147 60.6237C27.4042 60.436 27.1112 60.3422 26.7358 60.3422C26.3651 60.3422 26.0011 60.3948 25.6441 60.5001C25.287 60.6054 24.93 60.7382 24.5729 60.8984L23.8794 59.4839C24.2868 59.2687 24.7423 59.0994 25.2458 58.9758C25.7539 58.8522 26.2781 58.7904 26.8182 58.7904ZM27.9306 63.0682L27.1204 63.0956C26.4429 63.114 25.9714 63.2353 25.7059 63.4596C25.4449 63.6839 25.3145 63.9791 25.3145 64.3453C25.3145 64.6658 25.4083 64.8947 25.596 65.032C25.7837 65.1647 26.0286 65.2311 26.3307 65.2311C26.7793 65.2311 27.157 65.0984 27.4637 64.8329C27.775 64.5674 27.9306 64.1897 27.9306 63.6999V63.0682ZM35.2914 66.7623C34.5316 66.7623 33.8838 66.625 33.3482 66.3503C32.8127 66.0711 32.4052 65.6408 32.126 65.0594C31.8468 64.4781 31.7072 63.7342 31.7072 62.8279C31.7072 61.8894 31.8651 61.125 32.1809 60.5345C32.5014 59.9394 32.9431 59.5022 33.5062 59.223C34.0738 58.9437 34.7307 58.8041 35.4768 58.8041C36.0078 58.8041 36.4656 58.8568 36.8501 58.962C37.2392 59.0627 37.578 59.1841 37.8664 59.326L37.2484 60.9464C36.9188 60.8137 36.6121 60.7061 36.3283 60.6237C36.0445 60.5367 35.7607 60.4933 35.4768 60.4933C35.1106 60.4933 34.8062 60.5802 34.5636 60.7542C34.321 60.9236 34.1402 61.1799 34.0211 61.5232C33.9021 61.8665 33.8426 62.2968 33.8426 62.8141C33.8426 63.3222 33.9067 63.7434 34.0349 64.0775C34.1631 64.4117 34.3484 64.6612 34.5911 64.826C34.8337 64.9862 35.1289 65.0663 35.4768 65.0663C35.9117 65.0663 36.2985 65.0091 36.6373 64.8947C36.976 64.7756 37.3056 64.6108 37.626 64.4003V66.1924C37.3056 66.3938 36.9691 66.538 36.6167 66.625C36.2688 66.7166 35.827 66.7623 35.2914 66.7623ZM42.6454 65.0938C42.8743 65.0938 43.0963 65.0709 43.3115 65.0251C43.5312 64.9793 43.7486 64.9221 43.9638 64.8535V66.4121C43.7395 66.5128 43.4602 66.5952 43.1261 66.6593C42.7965 66.728 42.4348 66.7623 42.0412 66.7623C41.5834 66.7623 41.1714 66.6891 40.8052 66.5426C40.4436 66.3915 40.1575 66.1329 39.9469 65.7667C39.7409 65.3959 39.6379 64.8809 39.6379 64.2217V60.5207H38.6354V59.6349L39.789 58.9346L40.3932 57.3141H41.7322V58.9483H43.8814V60.5207H41.7322V64.2217C41.7322 64.5147 41.8146 64.7344 41.9794 64.8809C42.1487 65.0228 42.3708 65.0938 42.6454 65.0938ZM47.6167 58.9483V66.625H45.5225V58.9483H47.6167ZM46.573 55.9408C46.8843 55.9408 47.1521 56.014 47.3764 56.1605C47.6007 56.3024 47.7129 56.5702 47.7129 56.9639C47.7129 57.353 47.6007 57.6231 47.3764 57.7741C47.1521 57.9206 46.8843 57.9939 46.573 57.9939C46.2572 57.9939 45.9871 57.9206 45.7628 57.7741C45.5431 57.6231 45.4332 57.353 45.4332 56.9639C45.4332 56.5702 45.5431 56.3024 45.7628 56.1605C45.9871 56.014 46.2572 55.9408 46.573 55.9408ZM51.6473 66.625L48.7222 58.9483H50.9126L52.3958 63.3222C52.4782 63.5786 52.5423 63.8487 52.588 64.1325C52.6384 64.4163 52.6727 64.6703 52.691 64.8947H52.746C52.7597 64.652 52.7917 64.3934 52.8421 64.1187C52.897 63.8441 52.968 63.5786 53.055 63.3222L54.5312 58.9483H56.7216L53.7965 66.625H51.6473ZM64.8035 62.7729C64.8035 63.4138 64.7165 63.9814 64.5425 64.4758C64.3732 64.9702 64.1237 65.389 63.7941 65.7324C63.4691 66.0711 63.0754 66.3275 62.6131 66.5014C62.1553 66.6754 61.638 66.7623 61.0612 66.7623C60.5211 66.7623 60.0244 66.6754 59.5712 66.5014C59.1226 66.3275 58.7312 66.0711 58.3971 65.7324C58.0675 65.389 57.8111 64.9702 57.628 64.4758C57.4495 63.9814 57.3602 63.4138 57.3602 62.7729C57.3602 61.9215 57.5113 61.2005 57.8134 60.61C58.1155 60.0195 58.5458 59.5709 59.1043 59.2642C59.6628 58.9575 60.3288 58.8041 61.1024 58.8041C61.8211 58.8041 62.4574 58.9575 63.0113 59.2642C63.5698 59.5709 64.007 60.0195 64.3228 60.61C64.6432 61.2005 64.8035 61.9215 64.8035 62.7729ZM59.4957 62.7729C59.4957 63.2765 59.5506 63.6999 59.6605 64.0432C59.7704 64.3865 59.942 64.6452 60.1755 64.8191C60.4089 64.9931 60.7133 65.08 61.0887 65.08C61.4595 65.08 61.7593 64.9931 61.9882 64.8191C62.2217 64.6452 62.3911 64.3865 62.4963 64.0432C62.6062 63.6999 62.6611 63.2765 62.6611 62.7729C62.6611 62.2648 62.6062 61.8437 62.4963 61.5095C62.3911 61.1707 62.2217 60.9167 61.9882 60.7473C61.7548 60.5779 61.4503 60.4933 61.075 60.4933C60.5211 60.4933 60.1183 60.6832 59.8665 61.0632C59.6193 61.4431 59.4957 62.013 59.4957 62.7729ZM71.8896 64.3453C71.8896 64.8672 71.7661 65.3089 71.5189 65.6706C71.2762 66.0276 70.9123 66.3 70.4271 66.4877C69.9419 66.6708 69.3376 66.7623 68.6143 66.7623C68.0788 66.7623 67.6187 66.728 67.2342 66.6593C66.8542 66.5907 66.4697 66.4762 66.0806 66.316V64.5857C66.4972 64.7733 66.9435 64.929 67.4196 65.0526C67.9002 65.1716 68.3214 65.2311 68.683 65.2311C69.0904 65.2311 69.3811 65.1716 69.5551 65.0526C69.7336 64.929 69.8228 64.7688 69.8228 64.5719C69.8228 64.4438 69.7862 64.3293 69.713 64.2286C69.6443 64.1233 69.4933 64.0066 69.2598 63.8784C69.0263 63.7457 68.6601 63.574 68.1612 63.3634C67.6805 63.162 67.2845 62.9583 66.9733 62.7523C66.6666 62.5463 66.4377 62.3037 66.2866 62.0245C66.1401 61.7407 66.0669 61.3813 66.0669 60.9464C66.0669 60.2369 66.3416 59.7036 66.8909 59.3466C67.4448 58.9849 68.1841 58.8041 69.1087 58.8041C69.5848 58.8041 70.038 58.8522 70.4683 58.9483C70.9032 59.0444 71.3495 59.1978 71.8073 59.4084L71.1755 60.919C70.7956 60.7542 70.4362 60.6191 70.0975 60.5139C69.7633 60.4086 69.4223 60.3559 69.0744 60.3559C68.7677 60.3559 68.5365 60.3971 68.3809 60.4795C68.2253 60.5619 68.1474 60.6878 68.1474 60.8572C68.1474 60.9808 68.1863 61.0906 68.2642 61.1868C68.3466 61.2829 68.5022 61.3905 68.7311 61.5095C68.9645 61.6239 69.3056 61.7727 69.7542 61.9558C70.1891 62.1343 70.5667 62.322 70.8871 62.5189C71.2076 62.7111 71.4548 62.9514 71.6287 63.2398C71.8027 63.5237 71.8896 63.8922 71.8896 64.3453Z"
    fill="black" />
  <path
    d="M47.8125 4.125C48.9065 4.125 49.9557 4.5596 50.7293 5.33318C51.5029 6.10677 51.9375 7.15598 51.9375 8.25C51.9375 9.34402 51.5029 10.3932 50.7293 11.1668C49.9557 11.9404 48.9065 12.375 47.8125 12.375C46.7185 12.375 45.6693 11.9404 44.8957 11.1668C44.1221 10.3932 43.6875 9.34402 43.6875 8.25C43.6875 7.15598 44.1221 6.10677 44.8957 5.33318C45.6693 4.5596 46.7185 4.125 47.8125 4.125ZM47.8125 14.4375C52.3706 14.4375 56.0625 16.2834 56.0625 18.5625V20.625H39.5625V18.5625C39.5625 16.2834 43.2544 14.4375 47.8125 14.4375Z"
    fill="#0345B0" />
</svg>