<svg width="44" height="45" viewBox="0 0 44 45" fill="none" xmlns="http://www.w3.org/2000/svg">
<path d="M22.0002 17C20.5415 17 19.1425 17.5795 18.1111 18.6109C17.0796 19.6424 16.5002 21.0413 16.5002 22.5C16.5002 23.9587 17.0796 25.3576 18.1111 26.3891C19.1425 27.4205 20.5415 28 22.0002 28C23.4589 28 24.8578 27.4205 25.8893 26.3891C26.9207 25.3576 27.5002 23.9587 27.5002 22.5C27.5002 21.0413 26.9207 19.6424 25.8893 18.6109C24.8578 17.5795 23.4589 17 22.0002 17ZM22.0002 31.6667C19.569 31.6667 17.2374 30.7009 15.5184 28.9818C13.7993 27.2627 12.8335 24.9312 12.8335 22.5C12.8335 20.0688 13.7993 17.7373 15.5184 16.0182C17.2374 14.2991 19.569 13.3333 22.0002 13.3333C24.4313 13.3333 26.7629 14.2991 28.482 16.0182C30.2011 17.7373 31.1668 20.0688 31.1668 22.5C31.1668 24.9312 30.2011 27.2627 28.482 28.9818C26.7629 30.7009 24.4313 31.6667 22.0002 31.6667ZM22.0002 8.75C12.8335 8.75 5.00516 14.4517 1.8335 22.5C5.00516 30.5483 12.8335 36.25 22.0002 36.25C31.1668 36.25 38.9952 30.5483 42.1668 22.5C38.9952 14.4517 31.1668 8.75 22.0002 8.75Z" fill="black"/>
</svg>
