<svg width="42" height="35" viewBox="0 0 42 35" fill="none" xmlns="http://www.w3.org/2000/svg">
<path d="M20.6885 11L26.5002 16.7933V16.5C26.5002 15.0413 25.9207 13.6424 24.8893 12.6109C23.8578 11.5795 22.4589 11 21.0002 11H20.6885ZM12.8052 12.4667L15.6468 15.3083C15.5552 15.6933 15.5002 16.0783 15.5002 16.5C15.5002 17.9587 16.0796 19.3576 17.1111 20.3891C18.1425 21.4205 19.5415 22 21.0002 22C21.4035 22 21.8068 21.945 22.1918 21.8533L25.0335 24.695C23.8052 25.3 22.4485 25.6667 21.0002 25.6667C18.569 25.6667 16.2374 24.7009 14.5184 22.9818C12.7993 21.2627 11.8335 18.9312 11.8335 16.5C11.8335 15.0517 12.2002 13.695 12.8052 12.4667ZM2.66683 2.32833L6.84683 6.50833L7.67183 7.33333C4.64683 9.71667 2.2635 12.8333 0.833496 16.5C4.00516 24.5483 11.8335 30.25 21.0002 30.25C23.8418 30.25 26.5552 29.7 29.0302 28.71L29.8185 29.48L35.1718 34.8333L37.5002 32.505L4.99516 0M21.0002 7.33333C23.4313 7.33333 25.7629 8.2991 27.482 10.0182C29.2011 11.7373 30.1668 14.0688 30.1668 16.5C30.1668 17.6733 29.9285 18.81 29.5068 19.8367L34.8785 25.2083C37.6285 22.9167 39.8285 19.91 41.1668 16.5C37.9952 8.45167 30.1668 2.75 21.0002 2.75C18.4335 2.75 15.9768 3.20833 13.6668 4.03333L17.6452 7.975C18.6902 7.57167 19.8085 7.33333 21.0002 7.33333Z" fill="black"/>
</svg>
